<svg width="32" height="32" viewBox="0 0 32 32" fill="none" xmlns="http://www.w3.org/2000/svg">
<g clip-path="url(#clip0)">
<path d="M12.9146 14.9271C12.9146 14.9271 15.9425 14.7023 15.9425 11.1506C15.9425 7.59927 13.4651 5.8667 10.3266 5.8667H4.55005H4.38037H0V25.7123H4.38037H4.55005H10.3266C10.3266 25.7123 16.6306 25.9117 16.6306 19.8549C16.631 19.8549 16.9059 14.9271 12.9146 14.9271ZM4.55005 9.39431H9.58343H10.327C10.327 9.39431 11.7309 9.39431 11.7309 11.4589C11.7309 13.5235 10.9048 13.8228 9.96889 13.8228H4.55005V9.39431ZM10.0604 22.1857H4.55005V16.8818H10.3266C10.3266 16.8818 12.4189 16.855 12.4189 19.6074C12.4189 21.9024 10.8888 22.1626 10.0604 22.1857Z" fill="#0056FF"/>
<path d="M28.9577 7.03589H20.7695V9.47993H28.9577V7.03589Z" fill="#0056FF"/>
<path d="M25.0386 10.9165C17.4069 10.9165 17.4136 18.5409 17.4136 18.5409C17.4136 18.5409 16.8905 26.1275 25.039 26.1275C25.039 26.1275 31.83 26.5157 31.83 20.8497H28.3374C28.3374 20.8497 28.454 22.9844 25.1555 22.9844C25.1555 22.9844 21.6633 23.2179 21.6633 19.5306H31.9462C31.9462 19.5306 33.0712 10.9165 25.0386 10.9165ZM28.143 16.8818H21.6239C21.6239 16.8818 22.0505 13.8228 25.1161 13.8228C28.1821 13.8225 28.143 16.8818 28.143 16.8818Z" fill="#0056FF"/>
</g>
<defs>
<clipPath id="clip0">
<rect width="32" height="32" fill="white"/>
</clipPath>
</defs>
</svg>
