<svg width="26" height="25" viewBox="0 0 26 25" fill="none" xmlns="http://www.w3.org/2000/svg">
<path fill-rule="evenodd" clip-rule="evenodd" d="M13 0C5.82322 0 0 5.59925 0 12.5C0 19.4007 5.82322 25 13 25C20.1627 25 26 19.4007 26 12.5C26 5.59925 20.1627 0 13 0ZM21.5868 5.76193C23.1377 7.57863 24.0683 9.89697 24.0965 12.4051C23.7299 12.3373 20.064 11.6188 16.3699 12.0661C16.2853 11.8899 16.2147 11.7001 16.1302 11.5103C15.9046 10.9951 15.6508 10.4664 15.397 9.96475C19.4859 8.36498 21.3471 6.0602 21.5868 5.76193ZM13 1.84382C15.82 1.84382 18.4002 2.86063 20.3601 4.5282C20.1627 4.79935 18.4848 6.955 14.5369 8.37852C12.718 5.1654 10.7017 2.53525 10.3915 2.12853C11.2234 1.93872 12.0976 1.84382 13 1.84382ZM8.27658 2.84707C8.57267 3.22668 10.5466 5.8704 12.3937 9.01573C7.20499 10.3443 2.62257 10.3173 2.12907 10.3173C2.84814 7.00923 5.17462 4.25705 8.27658 2.84707ZM1.88937 12.5135C1.88937 12.4051 1.88937 12.2966 1.88937 12.1882C2.36876 12.2017 7.75489 12.2695 13.2961 10.6698C13.6204 11.2663 13.9165 11.8764 14.1985 12.4865C14.0575 12.5271 13.9024 12.5678 13.7614 12.6084C8.03689 14.3845 4.99132 19.2381 4.73754 19.6448C2.97505 17.7603 1.88937 15.2522 1.88937 12.5135ZM13 23.1833C10.4339 23.1833 8.06507 22.3427 6.18979 20.9328C6.38721 20.5396 8.64318 16.3639 14.9035 14.2625C14.9317 14.2489 14.9458 14.2489 14.974 14.2353C16.539 18.1264 17.1735 21.3937 17.3427 22.3292C16.0033 22.885 14.5369 23.1833 13 23.1833ZM19.1898 21.3531C19.077 20.7023 18.4848 17.5841 17.0325 13.7473C20.5152 13.2186 23.5607 14.0862 23.9414 14.2083C23.462 17.1773 21.6855 19.7397 19.1898 21.3531Z" fill="#EA4C89"/>
</svg>
