<svg width="25" height="25" viewBox="0 0 25 25" fill="none" xmlns="http://www.w3.org/2000/svg">
<path d="M23.6201 2.16673e-08H1.37891C1.01309 0.000194221 0.662323 0.145668 0.403742 0.404432C0.14516 0.663196 -6.4765e-05 1.01406 2.16673e-08 1.37988V23.6211C0.000194221 23.9869 0.145668 24.3377 0.404432 24.5963C0.663196 24.8548 1.01406 25.0001 1.37988 25H13.3545V15.332H10.1074V11.5479H13.3545V8.76294C13.3545 5.53394 15.3264 3.77563 18.207 3.77563C19.5867 3.77563 20.7725 3.87842 21.1182 3.92432V7.2998H19.1316C17.5642 7.2998 17.2607 8.04468 17.2607 9.1377V11.5479H21.0081L20.5198 15.332H17.2607V25H23.6201C23.8013 25 23.9808 24.9644 24.1482 24.895C24.3156 24.8257 24.4678 24.7241 24.5959 24.5959C24.7241 24.4678 24.8257 24.3156 24.895 24.1482C24.9644 23.9808 25 23.8013 25 23.6201V1.37891C24.9998 1.01309 24.8543 0.662323 24.5956 0.403742C24.3368 0.14516 23.9859 -6.4765e-05 23.6201 2.16673e-08Z" fill="#4267B2"/>
</svg>
