<svg width="894" height="270" viewBox="0 0 894 270" fill="none" xmlns="http://www.w3.org/2000/svg">
<g filter="url(#filter0_d)">
<rect x="40" y="87.5908" width="172.534" height="135.621" rx="4" transform="rotate(-9.23409 40 87.5908)" fill="white"/>
</g>
<path opacity="0.2" d="M120.242 174.587H115.502V177.107H119.802V180.427H115.502V186.347H111.582V171.267H120.242V174.587ZM126.342 171.267V186.347H122.422V171.267H126.342ZM137.567 174.587H132.827V177.107H137.127V180.427H132.827V186.347H128.907V171.267H137.567V174.587ZM147.893 183.727H142.493L141.453 186.347H137.293L143.093 171.267H147.373L153.053 186.347H148.873L147.893 183.727ZM146.833 180.727L145.233 175.927H145.193L143.573 180.727H146.833Z" fill="#050401"/>
<path d="M118.34 76.0987C97.2615 66.5092 81.2749 104.324 75.9165 124.431C73.0588 138.697 86.1492 137.136 93.5875 133.89C105.401 128.735 111.828 120.574 115.815 118.61C123.745 123.671 141.846 125.534 149.906 125.833C154.473 132.931 162.811 147.124 164.225 148.039C176.288 162.769 183.186 150.39 184.552 142.245C191.661 88.8121 170.475 86.9362 167.863 86.0185C165.051 85.0302 144.145 84.8195 139.539 83.8967C135.853 83.1585 123.871 78.3905 118.34 76.0987Z" fill="#69DC9E"/>
<path d="M115.171 70.4542C94.2897 60.9042 78.3753 98.7338 73.0283 118.842C70.1706 133.109 83.1513 131.526 90.5314 128.268C102.253 123.094 108.638 114.925 112.594 112.955C120.448 118.001 138.39 119.832 146.38 120.117C150.896 127.205 159.138 141.379 160.538 142.291C172.472 156.995 179.333 144.609 180.701 136.463C187.841 83.0371 166.839 81.1982 164.252 80.2854C161.465 79.3022 140.74 79.1275 136.174 78.213C132.521 77.4814 120.65 72.7356 115.171 70.4542Z" stroke="#050401" stroke-opacity="0.8" stroke-width="2"/>
<path d="M112.394 84.2924C111.996 86.4258 111.484 89.1393 111.202 90.6397C111.1 91.1833 110.576 91.5401 110.033 91.4381L103.845 90.2773C103.301 90.1753 102.778 90.5339 102.677 91.0777L102.098 94.1964C101.998 94.7386 102.355 95.2599 102.897 95.3616L109.091 96.5236C109.634 96.6254 109.992 97.148 109.89 97.6908L108.767 103.672C108.665 104.216 109.024 104.739 109.568 104.84L112.633 105.409C113.175 105.509 113.696 105.152 113.798 104.61L114.921 98.624C115.023 98.0812 115.546 97.7237 116.089 97.8255L122.279 98.9867C122.822 99.0887 123.346 98.7301 123.446 98.1863L124.025 95.0676C124.125 94.5254 123.768 94.0041 123.226 93.9024L117.032 92.7404C116.489 92.6386 116.132 92.116 116.233 91.5732L117.423 85.2283C117.525 84.6847 117.167 84.1615 116.623 84.0607L113.56 83.4926C113.017 83.3918 112.495 83.7495 112.394 84.2924Z" stroke="#050401" stroke-opacity="0.8" stroke-width="2"/>
<circle r="3.42082" transform="matrix(-0.980523 -0.196406 -0.196406 0.980523 160.652 96.1406)" stroke="#050401" stroke-opacity="0.8" stroke-width="2"/>
<circle r="3.42082" transform="matrix(-0.980523 -0.196406 -0.196406 0.980523 167.284 105.962)" stroke="#050401" stroke-opacity="0.8" stroke-width="2"/>
<circle r="3.42082" transform="matrix(-0.980523 -0.196406 -0.196406 0.980523 150.907 102.682)" stroke="#050401" stroke-opacity="0.8" stroke-width="2"/>
<circle r="3.42082" transform="matrix(-0.980523 -0.196406 -0.196406 0.980523 157.613 112.125)" stroke="#050401" stroke-opacity="0.8" stroke-width="2"/>
<g filter="url(#filter1_d)">
<rect x="276.488" y="59.8859" width="160.399" height="136.384" rx="4" transform="rotate(0.99898 276.488 59.8859)" fill="white"/>
</g>
<path opacity="0.2" d="M327.872 167.772L332.625 173.942L327.745 173.952L324.033 168.16L323.993 168.16L324.005 173.96L320.085 173.968L320.053 158.888L325.913 158.876C327.407 158.886 328.654 159.264 329.656 160.008C330.657 160.74 331.16 161.912 331.163 163.525C331.165 164.565 330.88 165.493 330.309 166.307C329.75 167.108 328.938 167.603 327.872 167.792L327.872 167.772ZM323.98 161.88L323.987 165.64L324.367 165.639C324.434 165.653 324.501 165.659 324.567 165.659C324.634 165.659 324.694 165.659 324.747 165.659C325.334 165.631 325.867 165.496 326.347 165.255C326.839 165.001 327.085 164.507 327.084 163.774C327.082 163.04 326.834 162.554 326.341 162.315C325.86 162.063 325.326 161.924 324.74 161.899C324.686 161.899 324.626 161.899 324.56 161.899C324.493 161.899 324.426 161.899 324.36 161.899L323.98 161.88ZM344.128 169.018L344.129 169.398L336.469 169.414C336.471 170.161 336.665 170.734 337.053 171.133C337.44 171.519 338.007 171.711 338.754 171.71C339.14 171.709 339.474 171.635 339.753 171.488C340.046 171.34 340.292 171.1 340.492 170.766L343.992 170.739C343.701 171.966 343.049 172.861 342.037 173.423C341.038 173.985 339.952 174.267 338.779 174.27C337.086 174.273 335.671 173.816 334.536 172.898C333.401 171.967 332.831 170.615 332.828 168.842C332.824 167.135 333.348 165.794 334.399 164.819C335.464 163.843 336.83 163.354 338.496 163.35C340.283 163.346 341.664 163.857 342.64 164.882C343.628 165.906 344.125 167.292 344.128 169.038L344.128 169.018ZM336.525 167.314L340.745 167.305C340.65 166.826 340.403 166.44 340.002 166.147C339.615 165.854 339.175 165.709 338.681 165.71C338.148 165.711 337.682 165.852 337.282 166.133C336.883 166.4 336.63 166.801 336.525 167.334L336.525 167.314ZM357.004 163.632L357.025 173.892L353.385 173.899L353.383 172.759L353.343 172.759C353.051 173.24 352.651 173.601 352.145 173.842C351.639 174.07 351.113 174.197 350.566 174.225C350.513 174.239 350.459 174.245 350.406 174.246C350.353 174.246 350.299 174.246 350.246 174.246C348.726 174.249 347.478 173.712 346.503 172.634C345.54 171.542 345.058 170.263 345.055 168.797C345.052 167.33 345.522 166.056 346.467 164.974C347.425 163.878 348.663 163.329 350.183 163.326C350.25 163.326 350.317 163.326 350.383 163.326C350.45 163.325 350.517 163.332 350.583 163.345C351.104 163.384 351.611 163.516 352.104 163.742C352.611 163.954 353.032 164.26 353.366 164.659L353.364 163.639L357.004 163.632ZM351.15 166.464C350.417 166.479 349.844 166.72 349.431 167.188C349.019 167.642 348.813 168.182 348.815 168.809C348.816 169.462 349.024 170.008 349.438 170.448C349.852 170.887 350.426 171.105 351.16 171.104C351.906 171.102 352.479 170.881 352.878 170.44C353.291 170 353.496 169.452 353.495 168.799C353.493 168.172 353.286 167.633 352.871 167.18C352.47 166.715 351.897 166.482 351.15 166.484L351.15 166.464ZM367.158 173.871L367.156 172.731L367.116 172.731C366.823 173.212 366.424 173.572 365.918 173.813C365.412 174.041 364.885 174.169 364.339 174.197C364.285 174.21 364.232 174.217 364.179 174.217C364.125 174.217 364.072 174.217 364.019 174.217C362.499 174.22 361.251 173.683 360.275 172.605C359.313 171.514 358.831 170.235 358.828 168.768C358.824 167.301 359.295 166.027 360.24 164.945C361.197 163.85 362.436 163.301 363.956 163.297C364.023 163.297 364.09 163.297 364.156 163.297C364.223 163.297 364.29 163.303 364.356 163.317C364.876 163.356 365.383 163.488 365.877 163.713C366.384 163.926 366.805 164.232 367.139 164.631L367.124 157.271L370.764 157.263L370.798 173.863L367.158 173.871ZM364.923 166.435C364.189 166.45 363.617 166.692 363.204 167.159C362.792 167.613 362.586 168.154 362.588 168.78C362.589 169.434 362.797 169.98 363.211 170.419C363.625 170.858 364.199 171.077 364.932 171.075C365.679 171.074 366.252 170.853 366.651 170.412C367.063 169.971 367.269 169.424 367.268 168.771C367.266 168.144 367.058 167.604 366.644 167.152C366.243 166.686 365.669 166.454 364.923 166.455L364.923 166.435ZM376.69 163.591L376.711 173.851L373.071 173.859L373.05 163.599L376.69 163.591ZM374.857 157.615C375.417 157.627 375.898 157.833 376.299 158.232C376.699 158.631 376.9 159.111 376.902 159.671C376.903 160.231 376.704 160.711 376.305 161.112C375.905 161.513 375.426 161.714 374.866 161.715C374.306 161.716 373.825 161.517 373.425 161.118C373.024 160.719 372.823 160.239 372.822 159.679C372.82 159.119 373.019 158.639 373.419 158.238C373.818 157.837 374.297 157.636 374.857 157.635L374.857 157.615ZM382.725 163.579L382.728 164.899L382.768 164.899C383.193 164.284 383.665 163.857 384.185 163.616C384.718 163.375 385.337 163.253 386.044 163.252C387.431 163.249 388.418 163.64 389.007 164.426C389.608 165.211 389.91 166.237 389.913 167.504L389.926 173.824L386.286 173.831L386.276 168.831C386.276 168.805 386.276 168.771 386.275 168.731C386.275 168.691 386.275 168.651 386.275 168.611C386.275 168.491 386.275 168.365 386.274 168.231C386.274 168.098 386.267 167.965 386.254 167.831C386.226 167.418 386.105 167.038 385.891 166.692C385.677 166.333 385.257 166.153 384.63 166.155C383.897 166.156 383.397 166.397 383.132 166.878C382.866 167.345 382.734 167.899 382.735 168.539L382.746 173.839L379.106 173.846L379.085 163.586L382.725 163.579ZM403.567 163.536L403.587 172.795C403.591 174.982 403.074 176.55 402.036 177.499C401.012 178.447 399.553 178.924 397.659 178.928C397.406 178.928 397.139 178.916 396.859 178.889C396.579 178.863 396.299 178.817 396.019 178.751C395.032 178.54 394.111 178.128 393.256 177.517C392.415 176.905 391.933 176.073 391.811 175.02L395.891 175.011C395.945 175.198 396.032 175.351 396.152 175.471C396.272 175.604 396.413 175.71 396.573 175.79C396.666 175.843 396.766 175.883 396.873 175.909C396.98 175.949 397.086 175.976 397.193 175.989C397.26 176.002 397.327 176.008 397.393 176.008C397.473 176.021 397.547 176.028 397.613 176.028C398.6 176.026 399.233 175.738 399.511 175.164C399.804 174.603 399.949 173.916 399.947 173.103L399.946 172.603C399.481 173.084 398.988 173.438 398.468 173.666C397.962 173.894 397.369 174.008 396.689 174.01C395.196 174.013 393.975 173.515 393.026 172.517C392.091 171.519 391.621 170.28 391.618 168.8C391.615 167.294 392.092 165.993 393.05 164.897C394.021 163.789 395.293 163.233 396.867 163.229C397.467 163.228 398.027 163.34 398.547 163.566C399.081 163.778 399.529 164.137 399.89 164.643L399.93 164.623L399.927 163.543L403.567 163.536ZM397.713 166.288C396.98 166.302 396.407 166.544 395.995 167.011C395.582 167.465 395.377 168.006 395.378 168.632C395.379 169.286 395.587 169.832 396.001 170.271C396.416 170.71 396.989 170.929 397.723 170.928C398.469 170.926 399.042 170.705 399.441 170.264C399.854 169.823 400.059 169.276 400.058 168.623C400.057 167.996 399.849 167.457 399.435 167.004C399.034 166.538 398.46 166.306 397.713 166.308L397.713 166.288Z" fill="#050401"/>
<path d="M318.016 121.405C319.553 100.4 311.993 75.108 308.021 65.0875C337.237 63.2609 351.461 72.1906 354.921 76.8837C353.767 77.7716 352.307 79.7757 355.69 80.689C359.073 81.6023 367.351 81.0695 371.067 80.689C374.142 80.0802 373.63 77.8985 372.989 76.8837C376.987 68.6644 406.434 65.5948 420.658 65.0875C414.815 69.0449 410.535 104.282 409.125 121.405C398.054 121.405 382.984 125.464 376.833 127.494C366.377 135.713 356.074 130.918 352.23 127.494C338.39 121.71 323.654 121.025 318.016 121.405Z" fill="#FFD046"/>
<path d="M344.578 117.211C341.533 115.376 331.934 111.827 317.901 112.317" stroke="#050401" stroke-opacity="0.8" stroke-width="2"/>
<path d="M343.59 73.7372C338.261 70.6366 323.687 64.5199 308.021 64.8582" stroke="#050401" stroke-opacity="0.8" stroke-width="2"/>
<path d="M376.196 117.211C378.408 115.057 386.445 111.117 400.897 112.594" stroke="#050401" stroke-opacity="0.8" stroke-width="2"/>
<path d="M374.22 73.7372C381.063 70.0452 397.362 63.1723 407.813 65.2171" stroke="#050401" stroke-opacity="0.8" stroke-width="2"/>
<path d="M355.447 121.163C356.85 121.909 360.987 122.953 366.316 121.163" stroke="#050401" stroke-opacity="0.8" stroke-width="2"/>
<path d="M352.483 85.5936C355.173 86.3392 361.705 87.3831 366.316 85.5936" stroke="#050401" stroke-opacity="0.8" stroke-width="2"/>
<path d="M352.483 73.7371C344.807 59.3704 318.326 56.5768 306.045 56.9759V59.7694" stroke="#050401" stroke-opacity="0.8" stroke-width="2"/>
<path d="M355.447 72.7491C347.743 58.5143 322.322 54.5955 309.997 54.9909V57.328" stroke="#050401" stroke-opacity="0.8" stroke-width="2"/>
<path d="M358.411 72.749C350.578 58.6553 327.862 52 314.937 52V55.5234" stroke="#050401" stroke-opacity="0.8" stroke-width="2"/>
<path d="M364.339 73.7371C372.178 59.3704 399.223 56.5768 411.766 56.9759V60.5676" stroke="#050401" stroke-opacity="0.8" stroke-width="2"/>
<path d="M407.813 55.9788C395.22 55.5834 369.246 59.5022 361.375 73.737" stroke="#050401" stroke-opacity="0.8" stroke-width="2"/>
<path d="M360.388 73.737C367.865 59.6433 389.548 52.988 401.886 52.988V56.5115" stroke="#050401" stroke-opacity="0.8" stroke-width="2"/>
<path d="M314.063 117.14C315.601 95.5176 308.041 69.4815 304.068 59.1662C333.285 57.286 347.509 66.4783 350.969 71.3095C349.815 72.2235 348.354 74.2865 351.737 75.2267C355.12 76.1668 363.398 75.6184 367.115 75.2267C370.19 74.5999 369.677 72.3541 369.037 71.3095C373.035 62.8484 402.482 59.6885 416.706 59.1662C410.862 63.2401 406.583 99.5131 405.173 117.14C394.101 117.14 379.032 121.319 372.881 123.408C362.425 131.869 352.122 126.933 348.278 123.408C334.438 117.454 319.702 116.749 314.063 117.14Z" stroke="#050401" stroke-opacity="0.8" stroke-width="2"/>
<path d="M347.542 78.6772C347.542 98.7616 350.507 113.439 350.507 121.163" stroke="#050401" stroke-opacity="0.8" stroke-width="2"/>
<path d="M369.28 78.6772C368.534 92.5274 367.49 120.612 369.28 122.151" stroke="#050401" stroke-opacity="0.8" stroke-width="2"/>
<g filter="url(#filter2_d)">
<rect width="179.387" height="149.026" rx="4" transform="matrix(-0.999364 -0.0356672 -0.0356672 0.999364 853.588 57.6743)" fill="white"/>
</g>
<path opacity="0.2" d="M713.525 158.739L711.965 161.779C711.605 161.486 711.199 161.253 710.745 161.079C710.305 160.893 709.845 160.799 709.365 160.799C709.299 160.799 709.225 160.806 709.145 160.819C709.065 160.819 708.985 160.833 708.905 160.859C708.599 160.926 708.319 161.059 708.065 161.259C707.812 161.459 707.685 161.726 707.685 162.059C707.685 162.379 707.805 162.639 708.045 162.839C708.285 163.026 708.545 163.179 708.825 163.299C708.932 163.339 709.032 163.379 709.125 163.419C709.232 163.446 709.332 163.473 709.425 163.499L710.425 163.779C711.479 164.099 712.359 164.566 713.065 165.179C713.785 165.779 714.145 166.693 714.145 167.919C714.145 167.973 714.145 168.026 714.145 168.079C714.145 168.133 714.145 168.186 714.145 168.239C714.119 168.933 713.992 169.613 713.765 170.279C713.539 170.933 713.145 171.499 712.585 171.979C712.079 172.419 711.505 172.746 710.865 172.959C710.225 173.173 709.572 173.306 708.905 173.359C708.799 173.359 708.692 173.359 708.585 173.359C708.492 173.373 708.399 173.379 708.305 173.379C707.359 173.379 706.432 173.233 705.525 172.939C704.619 172.633 703.779 172.213 703.005 171.679L704.685 168.499C705.179 168.939 705.712 169.313 706.285 169.619C706.872 169.926 707.499 170.079 708.165 170.079C708.192 170.079 708.219 170.079 708.245 170.079C708.272 170.079 708.299 170.079 708.325 170.079C708.765 170.053 709.165 169.919 709.525 169.679C709.885 169.426 710.065 169.053 710.065 168.559C710.065 168.186 709.912 167.886 709.605 167.659C709.312 167.433 708.979 167.253 708.605 167.119C708.445 167.066 708.285 167.019 708.125 166.979C707.965 166.926 707.819 166.879 707.685 166.839C707.659 166.826 707.625 166.819 707.585 166.819C707.559 166.806 707.532 166.793 707.505 166.779C706.319 166.446 705.372 166.019 704.665 165.499C703.959 164.979 703.605 164.006 703.605 162.579C703.605 161.046 704.092 159.819 705.065 158.899C706.052 157.979 707.299 157.519 708.805 157.519C709.112 157.519 709.425 157.539 709.745 157.579C710.065 157.606 710.385 157.659 710.705 157.739C711.212 157.846 711.705 157.986 712.185 158.159C712.679 158.333 713.125 158.533 713.525 158.759V158.739ZM719.45 162.719V163.879H719.49C719.796 163.413 720.21 163.059 720.73 162.819C721.25 162.566 721.79 162.426 722.35 162.399C722.39 162.399 722.43 162.399 722.47 162.399C722.51 162.399 722.55 162.399 722.59 162.399C724.123 162.399 725.37 162.953 726.33 164.059C727.29 165.153 727.77 166.433 727.77 167.899C727.77 169.379 727.29 170.653 726.33 171.719C725.383 172.786 724.15 173.319 722.63 173.319C722.576 173.319 722.523 173.319 722.47 173.319C722.43 173.319 722.383 173.319 722.33 173.319C721.796 173.279 721.27 173.159 720.75 172.959C720.243 172.746 719.81 172.433 719.45 172.019V178.099H715.81V162.719H719.45ZM721.67 165.539C720.936 165.553 720.363 165.793 719.95 166.259C719.536 166.713 719.33 167.253 719.33 167.879C719.33 168.533 719.536 169.079 719.95 169.519C720.363 169.959 720.936 170.179 721.67 170.179C722.416 170.179 722.99 169.959 723.39 169.519C723.803 169.079 724.01 168.533 724.01 167.879C724.01 167.253 723.803 166.713 723.39 166.259C722.99 165.793 722.416 165.559 721.67 165.559V165.539ZM740.782 162.719V172.979H737.142V171.839H737.102C736.809 172.319 736.409 172.679 735.902 172.919C735.396 173.146 734.869 173.273 734.322 173.299C734.269 173.313 734.216 173.319 734.162 173.319C734.109 173.319 734.056 173.319 734.002 173.319C732.482 173.319 731.236 172.779 730.262 171.699C729.302 170.606 728.822 169.326 728.822 167.859C728.822 166.393 729.296 165.119 730.242 164.039C731.202 162.946 732.442 162.399 733.962 162.399C734.029 162.399 734.096 162.399 734.162 162.399C734.229 162.399 734.296 162.406 734.362 162.419C734.882 162.459 735.389 162.593 735.882 162.819C736.389 163.033 736.809 163.339 737.142 163.739V162.719H740.782ZM734.922 165.539C734.189 165.553 733.616 165.793 733.202 166.259C732.789 166.713 732.582 167.253 732.582 167.879C732.582 168.533 732.789 169.079 733.202 169.519C733.616 169.959 734.189 170.179 734.922 170.179C735.669 170.179 736.242 169.959 736.642 169.519C737.056 169.079 737.262 168.533 737.262 167.879C737.262 167.253 737.056 166.713 736.642 166.259C736.242 165.793 735.669 165.559 734.922 165.559V165.539ZM750.595 162.979V166.059C750.329 165.873 750.035 165.713 749.715 165.579C749.395 165.433 749.062 165.359 748.715 165.359C748.022 165.359 747.429 165.599 746.935 166.079C746.455 166.559 746.215 167.153 746.215 167.859C746.215 168.593 746.455 169.199 746.935 169.679C747.415 170.146 748.029 170.379 748.775 170.379C748.842 170.379 748.909 170.379 748.975 170.379C749.055 170.366 749.129 170.353 749.195 170.339C749.449 170.299 749.695 170.226 749.935 170.119C750.189 169.999 750.409 169.853 750.595 169.679V172.739C750.195 172.939 749.775 173.086 749.335 173.179C748.909 173.273 748.475 173.319 748.035 173.319C746.515 173.319 745.202 172.819 744.095 171.819C743.002 170.806 742.455 169.526 742.455 167.979C742.455 166.326 743.009 164.986 744.115 163.959C745.222 162.919 746.582 162.399 748.195 162.399C748.622 162.399 749.035 162.453 749.435 162.559C749.849 162.653 750.235 162.799 750.595 162.999V162.979ZM763.403 168.079V168.459H755.743C755.743 169.206 755.936 169.779 756.323 170.179C756.71 170.566 757.276 170.759 758.023 170.759C758.41 170.759 758.743 170.686 759.023 170.539C759.316 170.393 759.563 170.153 759.763 169.819L763.263 169.799C762.97 171.026 762.316 171.919 761.303 172.479C760.303 173.039 759.216 173.319 758.043 173.319C756.35 173.319 754.936 172.859 753.803 171.939C752.67 171.006 752.103 169.653 752.103 167.879C752.103 166.173 752.63 164.833 753.683 163.859C754.75 162.886 756.116 162.399 757.783 162.399C759.57 162.399 760.95 162.913 761.923 163.939C762.91 164.966 763.403 166.353 763.403 168.099V168.079ZM755.803 166.359H760.023C759.93 165.879 759.683 165.493 759.283 165.199C758.896 164.906 758.456 164.759 757.963 164.759C757.43 164.759 756.963 164.899 756.563 165.179C756.163 165.446 755.91 165.846 755.803 166.379V166.359ZM779.926 163.039L778.706 165.359C778.546 165.279 778.366 165.206 778.166 165.139C777.979 165.073 777.786 165.019 777.586 164.979C777.439 164.953 777.292 164.933 777.146 164.919C777.012 164.893 776.879 164.879 776.746 164.879C776.679 164.879 776.606 164.886 776.526 164.899C776.459 164.899 776.392 164.913 776.326 164.939C776.139 164.979 775.972 165.053 775.826 165.159C775.679 165.253 775.606 165.393 775.606 165.579C775.606 165.806 775.699 165.979 775.886 166.099C776.086 166.206 776.306 166.286 776.546 166.339C776.679 166.379 776.806 166.413 776.926 166.439C777.046 166.453 777.152 166.466 777.246 166.479C778.099 166.653 778.806 166.966 779.366 167.419C779.939 167.873 780.226 168.573 780.226 169.519C780.226 170.826 779.746 171.779 778.786 172.379C777.826 172.966 776.766 173.279 775.606 173.319C775.566 173.319 775.526 173.319 775.486 173.319C775.459 173.319 775.426 173.319 775.386 173.319C774.652 173.319 773.932 173.219 773.226 173.019C772.532 172.819 771.872 172.533 771.246 172.159L772.566 169.599C772.792 169.773 773.052 169.933 773.346 170.079C773.639 170.213 773.939 170.333 774.246 170.439C774.459 170.506 774.666 170.559 774.866 170.599C775.066 170.639 775.259 170.659 775.446 170.659C775.499 170.659 775.552 170.659 775.606 170.659C775.672 170.646 775.739 170.633 775.806 170.619C776.006 170.579 776.186 170.499 776.346 170.379C776.506 170.259 776.586 170.093 776.586 169.879C776.586 169.586 776.446 169.379 776.166 169.259C775.886 169.126 775.552 169.019 775.166 168.939C775.019 168.913 774.872 168.886 774.726 168.859C774.592 168.819 774.452 168.779 774.306 168.739C773.732 168.593 773.206 168.339 772.726 167.979C772.259 167.606 772.026 166.959 772.026 166.039C772.026 164.799 772.486 163.886 773.406 163.299C774.326 162.713 775.332 162.413 776.426 162.399C776.452 162.399 776.472 162.399 776.486 162.399C776.512 162.399 776.532 162.399 776.546 162.399C777.132 162.399 777.706 162.453 778.266 162.559C778.839 162.653 779.392 162.819 779.926 163.059V163.039ZM786.16 165.719V172.979H782.52V165.719H781.34V162.719H782.52V159.639H786.16V162.719H788.22V165.719H786.16ZM789.327 162.719H792.967V168.199C792.967 168.866 793.08 169.406 793.307 169.819C793.547 170.233 794.04 170.439 794.787 170.439C795.533 170.439 796.02 170.233 796.247 169.819C796.487 169.406 796.607 168.873 796.607 168.219V162.719H800.247V168.899C800.247 170.606 799.72 171.773 798.667 172.399C797.627 173.013 796.333 173.319 794.787 173.319C793.253 173.319 791.96 173.013 790.907 172.399C789.853 171.773 789.327 170.613 789.327 168.919V162.719ZM806.57 165.719V172.979H802.93V165.719H801.65V162.719H802.93V161.419C802.93 160.873 802.957 160.366 803.01 159.899C803.064 159.433 803.217 158.979 803.47 158.539C803.537 158.419 803.61 158.306 803.69 158.199C803.77 158.079 803.864 157.959 803.97 157.839C804.424 157.306 804.957 156.899 805.57 156.619C806.197 156.339 806.857 156.199 807.55 156.199C807.83 156.199 808.097 156.226 808.35 156.279C808.604 156.333 808.857 156.426 809.11 156.559V159.679C809.057 159.666 808.997 159.646 808.93 159.619C808.877 159.593 808.817 159.573 808.75 159.559C808.604 159.493 808.457 159.446 808.31 159.419C808.164 159.379 808.004 159.359 807.83 159.359C807.364 159.359 807.037 159.499 806.85 159.779C806.664 160.059 806.57 160.493 806.57 161.079V162.719H809.11V165.719H806.57ZM814.324 165.719V172.979H810.684V165.719H809.404V162.719H810.684V161.419C810.684 160.873 810.711 160.366 810.764 159.899C810.817 159.433 810.971 158.979 811.224 158.539C811.291 158.419 811.364 158.306 811.444 158.199C811.524 158.079 811.617 157.959 811.724 157.839C812.177 157.306 812.711 156.899 813.324 156.619C813.951 156.339 814.611 156.199 815.304 156.199C815.584 156.199 815.851 156.226 816.104 156.279C816.357 156.333 816.611 156.426 816.864 156.559V159.679C816.811 159.666 816.751 159.646 816.684 159.619C816.631 159.593 816.571 159.573 816.504 159.559C816.357 159.493 816.211 159.446 816.064 159.419C815.917 159.379 815.757 159.359 815.584 159.359C815.117 159.359 814.791 159.499 814.604 159.779C814.417 160.059 814.324 160.493 814.324 161.079V162.719H816.864V165.719H814.324Z" fill="#050401"/>
<circle cx="769.01" cy="91.9589" r="38.4059" transform="rotate(-31.3515 769.01 91.9589)" fill="#2A38B2"/>
<circle cx="763.305" cy="89.46" r="37.4059" transform="rotate(-31.3515 763.305 89.46)" stroke="#050401" stroke-opacity="0.8" stroke-width="2"/>
<circle r="3.15199" transform="matrix(0.853992 -0.520287 -0.520287 -0.853992 746.034 89.0428)" stroke="#050401" stroke-opacity="0.8" stroke-width="2"/>
<circle r="3.15199" transform="matrix(0.853992 -0.520287 -0.520287 -0.853992 776.52 69.2543)" stroke="#050401" stroke-opacity="0.8" stroke-width="2"/>
<circle r="3.15199" transform="matrix(0.853992 -0.520287 -0.520287 -0.853992 752.403 109.472)" stroke="#050401" stroke-opacity="0.8" stroke-width="2"/>
<circle r="3.15199" transform="matrix(0.853992 -0.520287 -0.520287 -0.853992 783.428 90.57)" stroke="#050401" stroke-opacity="0.8" stroke-width="2"/>
<path d="M758.472 67.4878C757.778 66.3495 756.007 65.906 754.41 66.8792C752.813 67.8523 752.395 69.6294 753.088 70.7677C753.782 71.906 755.553 72.3494 757.15 71.3763C758.747 70.4031 759.165 68.6261 758.472 67.4878Z" stroke="#050401" stroke-opacity="0.8" stroke-width="2"/>
<circle r="3.15199" transform="matrix(0.853992 -0.520287 -0.520287 -0.853992 774.106 107.189)" stroke="#050401" stroke-opacity="0.8" stroke-width="2"/>
<circle r="3.15199" transform="matrix(0.853992 -0.520287 -0.520287 -0.853992 766.311 86.4134)" stroke="#050401" stroke-opacity="0.8" stroke-width="2"/>
<path d="M803.958 97.421C839.811 114.54 867.257 134.814 767.211 104.439C713.644 88.9813 639.927 61.2647 733.924 77.7338" stroke="#2A38B2" stroke-width="4"/>
<path d="M800.641 97.002C836.622 114.244 864.569 135.013 764.27 104.199C710.573 88.502 634.514 59.672 728.674 76.6212" stroke="#050401" stroke-opacity="0.8" stroke-width="2"/>
<g filter="url(#filter3_d)">
<rect width="163.01" height="147.207" rx="4" transform="matrix(-0.998886 0.047186 0.047186 0.998886 630.828 74.9418)" fill="white"/>
</g>
<path opacity="0.2" d="M509.996 188.638V200.398H506.076V188.638H502.836V185.318H513.236V188.638H509.996ZM517.126 190.138V191.818H517.166C517.513 191.205 517.973 190.752 518.546 190.458C519.133 190.165 519.78 190.018 520.486 190.018L521.186 189.998V193.498C521.133 193.485 521.08 193.465 521.026 193.438C520.986 193.412 520.94 193.392 520.886 193.378C520.686 193.298 520.486 193.245 520.286 193.218C520.086 193.192 519.873 193.178 519.646 193.178C518.633 193.178 517.96 193.478 517.626 194.078C517.293 194.665 517.126 195.398 517.126 196.278V200.398H513.486V190.138H517.126ZM533.769 190.138V200.398H530.129V199.258H530.089C529.796 199.738 529.396 200.098 528.889 200.338C528.382 200.565 527.856 200.692 527.309 200.718C527.256 200.732 527.202 200.738 527.149 200.738C527.096 200.738 527.042 200.738 526.989 200.738C525.469 200.738 524.222 200.198 523.249 199.118C522.289 198.025 521.809 196.745 521.809 195.278C521.809 193.812 522.282 192.538 523.229 191.458C524.189 190.365 525.429 189.818 526.949 189.818C527.016 189.818 527.082 189.818 527.149 189.818C527.216 189.818 527.282 189.825 527.349 189.838C527.869 189.878 528.376 190.012 528.869 190.238C529.376 190.452 529.796 190.758 530.129 191.158V190.138H533.769ZM527.909 192.958C527.176 192.972 526.602 193.212 526.189 193.678C525.776 194.132 525.569 194.672 525.569 195.298C525.569 195.952 525.776 196.498 526.189 196.938C526.602 197.378 527.176 197.598 527.909 197.598C528.656 197.598 529.229 197.378 529.629 196.938C530.042 196.498 530.249 195.952 530.249 195.298C530.249 194.672 530.042 194.132 529.629 193.678C529.229 193.212 528.656 192.978 527.909 192.978V192.958ZM538.762 190.138L541.222 195.398L543.662 190.138H547.742L542.382 200.398H540.062L534.682 190.138H538.762ZM559.183 195.498V195.878H551.523C551.523 196.625 551.716 197.198 552.103 197.598C552.489 197.985 553.056 198.178 553.803 198.178C554.189 198.178 554.523 198.105 554.803 197.958C555.096 197.812 555.343 197.572 555.543 197.238L559.043 197.218C558.749 198.445 558.096 199.338 557.083 199.898C556.083 200.458 554.996 200.738 553.823 200.738C552.129 200.738 550.716 200.278 549.583 199.358C548.449 198.425 547.883 197.072 547.883 195.298C547.883 193.592 548.409 192.252 549.463 191.278C550.529 190.305 551.896 189.818 553.563 189.818C555.349 189.818 556.729 190.332 557.703 191.358C558.689 192.385 559.183 193.772 559.183 195.518V195.498ZM551.583 193.778H555.803C555.709 193.298 555.463 192.912 555.063 192.618C554.676 192.325 554.236 192.178 553.743 192.178C553.209 192.178 552.743 192.318 552.343 192.598C551.943 192.865 551.689 193.265 551.583 193.798V193.778ZM564.49 183.798V200.398H560.85V183.798H564.49ZM570.525 183.798V200.398H566.885V183.798H570.525ZM576.56 190.138V200.398H572.92V190.138H576.56ZM574.74 184.158C575.3 184.172 575.78 184.378 576.18 184.778C576.58 185.178 576.78 185.658 576.78 186.218C576.78 186.778 576.58 187.258 576.18 187.658C575.78 188.058 575.3 188.258 574.74 188.258C574.18 188.258 573.7 188.058 573.3 187.658C572.9 187.258 572.7 186.778 572.7 186.218C572.7 185.658 572.9 185.178 573.3 184.778C573.7 184.378 574.18 184.178 574.74 184.178V184.158ZM582.595 190.138V191.458H582.635C583.062 190.845 583.535 190.418 584.055 190.178C584.588 189.938 585.208 189.818 585.915 189.818C587.302 189.818 588.288 190.212 588.875 190.998C589.475 191.785 589.775 192.812 589.775 194.078V200.398H586.135V195.398C586.135 195.372 586.135 195.338 586.135 195.298C586.135 195.258 586.135 195.218 586.135 195.178C586.135 195.058 586.135 194.932 586.135 194.798C586.135 194.665 586.128 194.532 586.115 194.398C586.088 193.985 585.968 193.605 585.755 193.258C585.542 192.898 585.122 192.718 584.495 192.718C583.762 192.718 583.262 192.958 582.995 193.438C582.728 193.905 582.595 194.458 582.595 195.098V200.398H578.955V190.138H582.595ZM603.438 190.138V199.398C603.438 201.585 602.918 203.152 601.878 204.098C600.851 205.045 599.391 205.518 597.498 205.518C597.244 205.518 596.978 205.505 596.698 205.478C596.418 205.452 596.138 205.405 595.858 205.338C594.871 205.125 593.951 204.712 593.098 204.098C592.258 203.485 591.778 202.652 591.658 201.598H595.738C595.791 201.785 595.878 201.938 595.998 202.058C596.118 202.192 596.258 202.298 596.418 202.378C596.511 202.432 596.611 202.472 596.718 202.498C596.824 202.538 596.931 202.565 597.038 202.578C597.104 202.592 597.171 202.598 597.238 202.598C597.318 202.612 597.391 202.618 597.458 202.618C598.444 202.618 599.078 202.332 599.358 201.758C599.651 201.198 599.798 200.512 599.798 199.698V199.198C599.331 199.678 598.838 200.032 598.318 200.258C597.811 200.485 597.218 200.598 596.538 200.598C595.044 200.598 593.824 200.098 592.878 199.098C591.944 198.098 591.478 196.858 591.478 195.378C591.478 193.872 591.958 192.572 592.918 191.478C593.891 190.372 595.164 189.818 596.738 189.818C597.338 189.818 597.898 189.932 598.418 190.158C598.951 190.372 599.398 190.732 599.758 191.238L599.798 191.218V190.138H603.438ZM597.578 192.878C596.844 192.892 596.271 193.132 595.858 193.598C595.444 194.052 595.238 194.592 595.238 195.218C595.238 195.872 595.444 196.418 595.858 196.858C596.271 197.298 596.844 197.518 597.578 197.518C598.324 197.518 598.898 197.298 599.298 196.858C599.711 196.418 599.918 195.872 599.918 195.218C599.918 194.592 599.711 194.052 599.298 193.598C598.898 193.132 598.324 192.898 597.578 192.898V192.878Z" fill="#050401"/>
<path d="M572.376 165.533C581.983 160.875 589.55 110.81 592.133 86.3592C593.116 77.8209 546.42 64.6253 536.348 68.5063C529.023 71.3287 519.437 116.268 514.455 144.44C513.639 149.053 516.183 153.59 520.578 155.211C537.781 161.554 564.098 169.545 572.376 165.533Z" fill="#FF7D49"/>
<path d="M562.854 166.273C565.463 165.561 565.632 160.785 565.391 158.709C563.579 159.154 557.78 159.599 553.794 158.709C553.214 160.133 554.156 162.713 554.881 164.048C556.693 166.273 559.592 167.162 562.854 166.273Z" stroke="#050401" stroke-width="2"/>
<path d="M521.939 157.339C524.532 157.206 525.782 153.568 525.825 151.909C524.714 151.721 519.757 149.495 516.653 148.852C515.91 149.868 514.818 153.198 515.124 154.202C515.989 155.419 518.698 157.506 521.939 157.339Z" stroke="#050401" stroke-width="2"/>
<path d="M567.682 159.615C577.17 155.004 584.642 105.44 587.192 81.2335C588.164 72.7805 542.051 59.7169 532.105 63.5592C524.878 66.3509 515.421 110.769 510.498 138.663C509.685 143.272 512.224 147.805 516.614 149.427C533.604 155.702 559.521 163.581 567.682 159.615Z" stroke="#050401" stroke-width="2"/>
<path d="M570.553 57.0796C576.549 58.601 575.681 66.7157 574.498 70.7729L568.581 68.4907C569.37 66.9693 569.066 65.3975 568.581 64.3065C567.398 61.6441 556.747 58.6012 552.408 59.7421C547.643 60.9951 548.069 62.7852 547.674 63.546L541.757 62.7852C542.152 58.2209 543.888 50.9177 547.674 52.1348C552.408 53.6563 563.059 55.1778 570.553 57.0796Z" stroke="#050401" stroke-width="2"/>
<path d="M569.423 81.6414C567.729 92.9824 563.579 115.974 560.53 117.211" stroke="#050401" stroke-width="2"/>
<path d="M545.709 76.7013C543.293 87.8118 538.765 110.876 539.986 114.247" stroke="#050401" stroke-width="2"/>
<path d="M569.423 126.104L523.973 117.211" stroke="#050401" stroke-width="2"/>
<path d="M562.507 129.068L521.997 119.187" stroke="#050401" stroke-width="2"/>
<defs>
<filter id="filter0_d" x="0" y="19.9045" width="272.061" height="241.55" filterUnits="userSpaceOnUse" color-interpolation-filters="sRGB">
<feFlood flood-opacity="0" result="BackgroundImageFix"/>
<feColorMatrix in="SourceAlpha" type="matrix" values="0 0 0 0 0 0 0 0 0 0 0 0 0 0 0 0 0 0 127 0"/>
<feOffset/>
<feGaussianBlur stdDeviation="20"/>
<feColorMatrix type="matrix" values="0 0 0 0 0.0196078 0 0 0 0 0.0156863 0 0 0 0 0.00392157 0 0 0 0.05 0"/>
<feBlend mode="normal" in2="BackgroundImageFix" result="effect1_dropShadow"/>
<feBlend mode="normal" in="SourceGraphic" in2="effect1_dropShadow" result="shape"/>
</filter>
<filter id="filter1_d" x="234.11" y="19.8859" width="242.753" height="219.16" filterUnits="userSpaceOnUse" color-interpolation-filters="sRGB">
<feFlood flood-opacity="0" result="BackgroundImageFix"/>
<feColorMatrix in="SourceAlpha" type="matrix" values="0 0 0 0 0 0 0 0 0 0 0 0 0 0 0 0 0 0 127 0"/>
<feOffset/>
<feGaussianBlur stdDeviation="20"/>
<feColorMatrix type="matrix" values="0 0 0 0 0.0196078 0 0 0 0 0.0156863 0 0 0 0 0.00392157 0 0 0 0.05 0"/>
<feBlend mode="normal" in2="BackgroundImageFix" result="effect1_dropShadow"/>
<feBlend mode="normal" in="SourceGraphic" in2="effect1_dropShadow" result="shape"/>
</filter>
<filter id="filter2_d" x="629" y="11.2761" width="264.588" height="235.329" filterUnits="userSpaceOnUse" color-interpolation-filters="sRGB">
<feFlood flood-opacity="0" result="BackgroundImageFix"/>
<feColorMatrix in="SourceAlpha" type="matrix" values="0 0 0 0 0 0 0 0 0 0 0 0 0 0 0 0 0 0 127 0"/>
<feOffset/>
<feGaussianBlur stdDeviation="20"/>
<feColorMatrix type="matrix" values="0 0 0 0 0.0196078 0 0 0 0 0.0156863 0 0 0 0 0.00392157 0 0 0 0.05 0"/>
<feBlend mode="normal" in2="BackgroundImageFix" result="effect1_dropShadow"/>
<feBlend mode="normal" in="SourceGraphic" in2="effect1_dropShadow" result="shape"/>
</filter>
<filter id="filter3_d" x="428" y="34.9418" width="249.774" height="234.735" filterUnits="userSpaceOnUse" color-interpolation-filters="sRGB">
<feFlood flood-opacity="0" result="BackgroundImageFix"/>
<feColorMatrix in="SourceAlpha" type="matrix" values="0 0 0 0 0 0 0 0 0 0 0 0 0 0 0 0 0 0 127 0"/>
<feOffset/>
<feGaussianBlur stdDeviation="20"/>
<feColorMatrix type="matrix" values="0 0 0 0 0.0196078 0 0 0 0 0.0156863 0 0 0 0 0.00392157 0 0 0 0.05 0"/>
<feBlend mode="normal" in2="BackgroundImageFix" result="effect1_dropShadow"/>
<feBlend mode="normal" in="SourceGraphic" in2="effect1_dropShadow" result="shape"/>
</filter>
</defs>
</svg>
