<svg width="500" height="442" viewBox="0 0 500 442" fill="none" xmlns="http://www.w3.org/2000/svg">
<g filter="url(#filter0_d)">
<rect x="40.1064" y="60.75" width="174.621" height="137.262" rx="4" transform="rotate(-6.07708 40.1064 60.75)" fill="#222430"/>
</g>
<path opacity="0.4" d="M99.5219 155.558H102.482V161.238C101.722 161.812 100.842 162.252 99.8419 162.558C98.8419 162.865 97.8352 163.018 96.8219 163.018C95.3685 163.018 94.0619 162.712 92.9019 162.098C91.7419 161.472 90.8285 160.612 90.1619 159.518C89.5085 158.412 89.1819 157.165 89.1819 155.778C89.1819 154.392 89.5085 153.152 90.1619 152.058C90.8285 150.952 91.7485 150.092 92.9219 149.478C94.0952 148.852 95.4152 148.538 96.8819 148.538C98.1085 148.538 99.2219 148.745 100.222 149.158C101.222 149.572 102.062 150.172 102.742 150.958L100.662 152.878C99.6619 151.825 98.4552 151.298 97.0419 151.298C96.1485 151.298 95.3552 151.485 94.6619 151.858C93.9685 152.232 93.4285 152.758 93.0419 153.438C92.6552 154.118 92.4619 154.898 92.4619 155.778C92.4619 156.645 92.6552 157.418 93.0419 158.098C93.4285 158.778 93.9619 159.312 94.6419 159.698C95.3352 160.072 96.1219 160.258 97.0019 160.258C97.9352 160.258 98.7752 160.058 99.5219 159.658V155.558ZM109.612 151.858C111.278 151.858 112.558 152.258 113.452 153.058C114.345 153.845 114.792 155.038 114.792 156.638V162.778H111.872V161.438C111.285 162.438 110.192 162.938 108.592 162.938C107.765 162.938 107.045 162.798 106.432 162.518C105.832 162.238 105.372 161.852 105.052 161.358C104.732 160.865 104.572 160.305 104.572 159.678C104.572 158.678 104.945 157.892 105.692 157.318C106.452 156.745 107.618 156.458 109.192 156.458H111.672C111.672 155.778 111.465 155.258 111.052 154.898C110.638 154.525 110.018 154.338 109.192 154.338C108.618 154.338 108.052 154.432 107.492 154.618C106.945 154.792 106.478 155.032 106.092 155.338L104.972 153.158C105.558 152.745 106.258 152.425 107.072 152.198C107.898 151.972 108.745 151.858 109.612 151.858ZM109.372 160.838C109.905 160.838 110.378 160.718 110.792 160.478C111.205 160.225 111.498 159.858 111.672 159.378V158.278H109.532C108.252 158.278 107.612 158.698 107.612 159.538C107.612 159.938 107.765 160.258 108.072 160.498C108.392 160.725 108.825 160.838 109.372 160.838ZM131.395 151.858C132.742 151.858 133.809 152.258 134.595 153.058C135.395 153.845 135.795 155.032 135.795 156.618V162.778H132.675V157.098C132.675 156.245 132.495 155.612 132.135 155.198C131.789 154.772 131.289 154.558 130.635 154.558C129.902 154.558 129.322 154.798 128.895 155.278C128.469 155.745 128.255 156.445 128.255 157.378V162.778H125.135V157.098C125.135 155.405 124.455 154.558 123.095 154.558C122.375 154.558 121.802 154.798 121.375 155.278C120.949 155.745 120.735 156.445 120.735 157.378V162.778H117.615V152.018H120.595V153.258C120.995 152.805 121.482 152.458 122.055 152.218C122.642 151.978 123.282 151.858 123.975 151.858C124.735 151.858 125.422 152.012 126.035 152.318C126.649 152.612 127.142 153.045 127.515 153.618C127.955 153.058 128.509 152.625 129.175 152.318C129.855 152.012 130.595 151.858 131.395 151.858ZM138.592 152.018H141.712V162.778H138.592V152.018ZM140.152 150.518C139.579 150.518 139.112 150.352 138.752 150.018C138.392 149.685 138.212 149.272 138.212 148.778C138.212 148.285 138.392 147.872 138.752 147.538C139.112 147.205 139.579 147.038 140.152 147.038C140.725 147.038 141.192 147.198 141.552 147.518C141.912 147.838 142.092 148.238 142.092 148.718C142.092 149.238 141.912 149.672 141.552 150.018C141.192 150.352 140.725 150.518 140.152 150.518ZM151.147 151.858C152.481 151.858 153.554 152.258 154.367 153.058C155.194 153.858 155.607 155.045 155.607 156.618V162.778H152.487V157.098C152.487 156.245 152.301 155.612 151.927 155.198C151.554 154.772 151.014 154.558 150.307 154.558C149.521 154.558 148.894 154.805 148.427 155.298C147.961 155.778 147.727 156.498 147.727 157.458V162.778H144.607V152.018H147.587V153.278C148.001 152.825 148.514 152.478 149.127 152.238C149.741 151.985 150.414 151.858 151.147 151.858ZM169.653 152.018V160.978C169.653 162.952 169.139 164.418 168.113 165.378C167.086 166.338 165.586 166.818 163.613 166.818C162.573 166.818 161.586 166.692 160.653 166.438C159.719 166.185 158.946 165.818 158.333 165.338L159.573 163.098C160.026 163.472 160.599 163.765 161.293 163.978C161.986 164.205 162.679 164.318 163.373 164.318C164.453 164.318 165.246 164.072 165.753 163.578C166.273 163.098 166.533 162.365 166.533 161.378V160.918C165.719 161.812 164.586 162.258 163.133 162.258C162.146 162.258 161.239 162.045 160.413 161.618C159.599 161.178 158.953 160.565 158.473 159.778C157.993 158.992 157.753 158.085 157.753 157.058C157.753 156.032 157.993 155.125 158.473 154.338C158.953 153.552 159.599 152.945 160.413 152.518C161.239 152.078 162.146 151.858 163.133 151.858C164.693 151.858 165.879 152.372 166.693 153.398V152.018H169.653ZM163.753 159.698C164.579 159.698 165.253 159.458 165.773 158.978C166.306 158.485 166.573 157.845 166.573 157.058C166.573 156.272 166.306 155.638 165.773 155.158C165.253 154.665 164.579 154.418 163.753 154.418C162.926 154.418 162.246 154.665 161.713 155.158C161.179 155.638 160.913 156.272 160.913 157.058C160.913 157.845 161.179 158.485 161.713 158.978C162.246 159.458 162.926 159.698 163.753 159.698Z" fill="#FFFAFF"/>
<path d="M116.288 54.3904C94.9546 44.6849 78.7746 82.9575 73.3514 103.307C70.4591 117.746 83.7078 116.166 91.2361 112.881C103.193 107.663 109.697 99.4033 113.732 97.4157C121.759 102.538 140.079 104.424 148.236 104.726C152.859 111.91 161.297 126.275 162.728 127.201C174.937 142.109 181.919 129.581 183.301 121.336C190.496 67.2576 169.053 65.359 166.41 64.4302C163.564 63.4299 142.406 63.2167 137.743 62.2827C134.013 61.5356 121.886 56.7099 116.288 54.3904Z" fill="#69DC9E"/>
<path d="M113.081 48.6772C91.9466 39.0117 75.8397 77.299 70.428 97.6508C67.5358 112.09 80.6735 110.487 88.1428 107.19C100.006 101.954 106.468 93.6859 110.472 91.692C118.421 96.7991 136.581 98.6525 144.667 98.9409C149.238 106.114 157.579 120.46 158.996 121.383C171.075 136.264 178.018 123.729 179.403 115.485C186.629 61.4123 165.374 59.5512 162.755 58.6273C159.935 57.6323 138.958 57.4555 134.338 56.5299C130.641 55.7894 118.626 50.9862 113.081 48.6772Z" stroke="#050401" stroke-opacity="0.8" stroke-width="2"/>
<path d="M110.272 62.6706C109.868 64.8373 109.347 67.5997 109.061 69.1186C108.959 69.6622 108.436 70.0188 107.892 69.9169L101.605 68.7375C101.062 68.6355 100.538 68.9942 100.438 69.538L99.8478 72.7182C99.7472 73.2604 100.105 73.7817 100.647 73.8834L106.939 75.0638C107.482 75.1657 107.84 75.6883 107.738 76.2311L106.597 82.3089C106.495 82.8525 106.854 83.3757 107.398 83.4766L110.524 84.0563C111.066 84.1569 111.587 83.7995 111.689 83.2575L112.83 77.1755C112.932 76.6327 113.455 76.2753 113.997 76.3771L120.286 77.5568C120.83 77.6588 121.353 77.3001 121.454 76.7563L122.044 73.5762C122.144 73.034 121.787 72.5126 121.245 72.411L114.952 71.2305C114.409 71.1287 114.052 70.6061 114.154 70.0633L115.362 63.6178C115.464 63.0742 115.106 62.551 114.562 62.4502L111.438 61.8708C110.895 61.7701 110.373 62.1277 110.272 62.6706Z" stroke="#050401" stroke-opacity="0.8" stroke-width="2"/>
<circle r="3.4743" transform="matrix(-0.980523 -0.196406 -0.196406 0.980523 159.112 74.6744)" stroke="#050401" stroke-opacity="0.8" stroke-width="2"/>
<circle r="3.4743" transform="matrix(-0.980523 -0.196406 -0.196406 0.980523 165.823 84.6148)" stroke="#050401" stroke-opacity="0.8" stroke-width="2"/>
<circle r="3.4743" transform="matrix(-0.980523 -0.196406 -0.196406 0.980523 149.25 81.2945)" stroke="#050401" stroke-opacity="0.8" stroke-width="2"/>
<circle r="3.4743" transform="matrix(-0.980523 -0.196406 -0.196406 0.980523 156.037 90.8521)" stroke="#050401" stroke-opacity="0.8" stroke-width="2"/>
<g filter="url(#filter1_d)">
<rect x="273.349" y="40.9814" width="162.34" height="138.034" rx="4" transform="rotate(0.99898 273.349 40.9814)" fill="#222430"/>
</g>
<path opacity="0.4" d="M323.56 155.231L320.852 151.337L320.692 151.337L317.872 151.343L317.88 155.243L314.64 155.25L314.611 141.25L320.671 141.237C321.911 141.235 322.985 141.439 323.892 141.851C324.813 142.262 325.521 142.847 326.016 143.606C326.511 144.365 326.759 145.265 326.762 146.305C326.764 147.345 326.512 148.245 326.007 149.006C325.515 149.754 324.81 150.329 323.891 150.731L327.04 155.224L323.56 155.231ZM323.482 146.311C323.48 145.525 323.225 144.925 322.718 144.513C322.21 144.087 321.47 143.876 320.497 143.878L317.857 143.883L317.867 148.763L320.507 148.758C321.48 148.756 322.22 148.541 322.725 148.113C323.231 147.685 323.483 147.085 323.482 146.311ZM339.656 149.858C339.656 149.898 339.637 150.178 339.598 150.698L331.458 150.715C331.606 151.381 331.954 151.907 332.501 152.293C333.048 152.678 333.729 152.87 334.542 152.869C335.102 152.867 335.595 152.786 336.022 152.625C336.461 152.451 336.867 152.184 337.24 151.823L338.904 153.619C337.893 154.782 336.414 155.365 334.467 155.369C333.254 155.371 332.18 155.14 331.246 154.675C330.312 154.197 329.59 153.539 329.082 152.7C328.573 151.861 328.318 150.908 328.316 149.841C328.314 148.788 328.558 147.841 329.05 147C329.555 146.145 330.24 145.484 331.106 145.016C331.985 144.534 332.964 144.292 334.044 144.29C335.098 144.287 336.052 144.512 336.906 144.964C337.76 145.415 338.428 146.067 338.91 146.919C339.405 147.758 339.654 148.738 339.656 149.858ZM334.069 146.649C333.363 146.651 332.77 146.852 332.291 147.253C331.811 147.654 331.519 148.201 331.414 148.895L336.714 148.884C336.606 148.204 336.311 147.665 335.831 147.266C335.35 146.854 334.763 146.648 334.069 146.649ZM345.769 144.265C347.435 144.262 348.716 144.659 349.611 145.457C350.506 146.242 350.955 147.435 350.959 149.035L350.971 155.175L348.051 155.181L348.048 153.841C347.464 154.842 346.372 155.344 344.772 155.347C343.945 155.349 343.225 155.211 342.611 154.932C342.01 154.653 341.549 154.267 341.228 153.775C340.907 153.282 340.746 152.722 340.745 152.096C340.743 151.096 341.114 150.308 341.86 149.733C342.619 149.158 343.785 148.869 345.358 148.866L347.838 148.861C347.837 148.181 347.629 147.661 347.215 147.302C346.801 146.93 346.18 146.744 345.354 146.746C344.78 146.747 344.214 146.842 343.654 147.03C343.108 147.204 342.642 147.445 342.256 147.753L341.131 145.575C341.717 145.16 342.416 144.839 343.229 144.611C344.056 144.382 344.902 144.267 345.769 144.265ZM345.547 153.246C346.081 153.245 346.554 153.124 346.966 152.883C347.379 152.629 347.672 152.261 347.844 151.781L347.842 150.681L345.702 150.685C344.422 150.688 343.783 151.109 343.785 151.949C343.785 152.349 343.939 152.669 344.247 152.908C344.567 153.134 345.001 153.247 345.547 153.246ZM364.841 140.306L364.872 155.146L361.892 155.152L361.89 153.912C361.118 154.847 359.999 155.316 358.532 155.319C357.519 155.321 356.599 155.096 355.771 154.645C354.957 154.193 354.315 153.548 353.847 152.709C353.379 151.87 353.143 150.897 353.141 149.79C353.139 148.683 353.37 147.71 353.835 146.869C354.3 146.028 354.939 145.38 355.751 144.925C356.577 144.47 357.496 144.241 358.51 144.239C359.883 144.236 360.957 144.667 361.732 145.532L361.721 140.312L364.841 140.306ZM359.067 152.758C359.854 152.756 360.507 152.488 361.026 151.954C361.544 151.406 361.803 150.679 361.801 149.772C361.799 148.865 361.538 148.146 361.017 147.614C360.495 147.068 359.841 146.796 359.055 146.798C358.255 146.799 357.595 147.074 357.077 147.622C356.558 148.156 356.299 148.877 356.301 149.783C356.303 150.69 356.564 151.416 357.086 151.962C357.607 152.494 358.267 152.759 359.067 152.758ZM367.738 144.38L370.857 144.373L370.88 155.133L367.76 155.14L367.738 144.38ZM369.294 142.877C368.721 142.878 368.254 142.712 367.893 142.379C367.533 142.047 367.352 141.634 367.351 141.141C367.35 140.647 367.529 140.234 367.888 139.899C368.248 139.565 368.714 139.398 369.287 139.397C369.861 139.395 370.328 139.554 370.688 139.874C371.049 140.193 371.23 140.593 371.231 141.073C371.232 141.593 371.053 142.026 370.693 142.374C370.334 142.708 369.868 142.875 369.294 142.877ZM380.293 144.194C381.626 144.191 382.7 144.589 383.515 145.387C384.344 146.185 384.759 147.371 384.763 148.945L384.775 155.105L381.655 155.111L381.644 149.431C381.642 148.578 381.454 147.945 381.08 147.532C380.705 147.106 380.165 146.894 379.458 146.896C378.672 146.897 378.046 147.145 377.58 147.639C377.114 148.12 376.882 148.841 376.884 149.801L376.895 155.121L373.775 155.127L373.753 144.367L376.733 144.361L376.736 145.621C377.148 145.167 377.661 144.819 378.274 144.578C378.886 144.323 379.559 144.195 380.293 144.194ZM398.798 144.316L398.817 153.276C398.821 155.249 398.311 156.717 397.286 157.679C396.261 158.641 394.762 159.124 392.789 159.128C391.749 159.13 390.762 159.006 389.828 158.754C388.894 158.503 388.12 158.138 387.506 157.659L388.741 155.416C389.195 155.789 389.769 156.081 390.463 156.293C391.157 156.518 391.851 156.63 392.544 156.629C393.624 156.626 394.417 156.378 394.922 155.884C395.441 155.403 395.7 154.669 395.698 153.682L395.697 153.222C394.885 154.117 393.753 154.566 392.3 154.569C391.313 154.571 390.406 154.36 389.578 153.935C388.764 153.496 388.116 152.884 387.634 152.099C387.153 151.313 386.911 150.407 386.909 149.38C386.907 148.353 387.145 147.446 387.623 146.659C388.102 145.871 388.747 145.263 389.559 144.835C390.385 144.393 391.291 144.171 392.278 144.169C393.838 144.166 395.026 144.677 395.841 145.702L395.838 144.322L398.798 144.316ZM392.914 152.008C393.741 152.006 394.414 151.765 394.933 151.284C395.465 150.789 395.73 150.149 395.729 149.362C395.727 148.575 395.459 147.942 394.925 147.464C394.404 146.971 393.73 146.726 392.903 146.728C392.077 146.729 391.397 146.978 390.865 147.472C390.333 147.953 390.067 148.587 390.069 149.374C390.07 150.16 390.338 150.8 390.873 151.292C391.407 151.771 392.088 152.009 392.914 152.008Z" fill="#FFFAFF"/>
<path d="M315.379 103.245C316.936 81.9856 309.284 56.3874 305.263 46.2457C334.833 44.397 349.229 53.4347 352.731 58.1847C351.564 59.0833 350.085 61.1116 353.509 62.0359C356.933 62.9602 365.311 62.4211 369.072 62.0359C372.185 61.4197 371.666 59.2117 371.017 58.1847C375.064 49.8659 404.867 46.7592 419.263 46.2457C413.349 50.251 409.017 85.9139 407.591 103.245C396.385 103.245 381.133 107.353 374.908 109.407C364.325 117.726 353.898 112.873 350.007 109.407C336 103.553 321.086 102.86 315.379 103.245Z" fill="#2F52E0"/>
<path d="M342.263 99C339.181 97.1424 329.466 93.5511 315.263 94.0464" stroke="#050401" stroke-opacity="0.8" stroke-width="2"/>
<path d="M341.263 55C335.87 51.8619 321.119 45.6713 305.263 46.0136" stroke="#050401" stroke-opacity="0.8" stroke-width="2"/>
<path d="M374.263 99C376.502 96.8195 384.636 92.8322 399.263 94.3274" stroke="#050401" stroke-opacity="0.8" stroke-width="2"/>
<path d="M372.263 55C379.189 51.2633 395.685 44.3074 406.263 46.3769" stroke="#050401" stroke-opacity="0.8" stroke-width="2"/>
<path d="M353.263 103C354.683 103.755 358.87 104.811 364.263 103" stroke="#050401" stroke-opacity="0.8" stroke-width="2"/>
<path d="M350.263 67C352.985 67.7546 359.597 68.8111 364.263 67" stroke="#050401" stroke-opacity="0.8" stroke-width="2"/>
<path d="M350.263 55C342.495 40.4594 315.693 37.6321 303.263 38.036V40.8633" stroke="#050401" stroke-opacity="0.8" stroke-width="2"/>
<path d="M353.263 54C345.467 39.593 319.738 35.6268 307.263 36.027V38.3924" stroke="#050401" stroke-opacity="0.8" stroke-width="2"/>
<path d="M356.263 54C348.335 39.7358 325.344 33 312.263 33V36.5661" stroke="#050401" stroke-opacity="0.8" stroke-width="2"/>
<path d="M362.263 55C370.197 40.4594 397.569 37.6321 410.263 38.036V41.6711" stroke="#050401" stroke-opacity="0.8" stroke-width="2"/>
<path d="M406.263 37.027C393.517 36.6268 367.229 40.593 359.263 55" stroke="#050401" stroke-opacity="0.8" stroke-width="2"/>
<path d="M358.263 55C365.831 40.7358 387.777 34 400.263 34V37.5661" stroke="#050401" stroke-opacity="0.8" stroke-width="2"/>
<path d="M311.379 98.9284C312.936 77.044 305.284 50.6929 301.263 40.2529C330.833 38.3499 345.229 47.6534 348.731 52.543C347.564 53.4681 346.085 55.5561 349.509 56.5076C352.933 57.4591 361.311 56.904 365.072 56.5076C368.185 55.8733 367.666 53.6002 367.017 52.543C371.064 43.9796 400.867 40.7815 415.263 40.2529C409.349 44.376 405.017 81.0879 403.591 98.9284C392.385 98.9284 377.133 103.157 370.908 105.272C360.325 113.835 349.898 108.84 346.007 105.272C332 99.2455 317.086 98.5319 311.379 98.9284Z" stroke="#050401" stroke-opacity="0.8" stroke-width="2"/>
<path d="M345.263 60C345.263 80.3273 348.263 95.1818 348.263 103" stroke="#050401" stroke-opacity="0.8" stroke-width="2"/>
<path d="M367.263 60C366.509 74.0177 365.452 102.442 367.263 104" stroke="#050401" stroke-opacity="0.8" stroke-width="2"/>
<g filter="url(#filter2_d)">
<rect width="180.259" height="155.016" rx="4" transform="matrix(-0.999364 -0.0356672 -0.0356672 0.999364 244.895 246.411)" fill="#222430"/>
</g>
<rect x="103" y="300.449" width="97" height="21.4188" transform="rotate(-6.77873 103 300.449)" fill="white"/>
<path d="M172.158 268.17C164.877 266.134 160.131 266.147 155.822 257.81C147.292 241.299 139.733 231.588 121.516 234.186C98.2347 237.502 99.4849 259.955 99.4849 259.955L104.729 319.905C105.093 322.998 108.442 327.707 111.452 327.353L202.725 316.603C205.733 316.249 207.824 310.961 207.932 307.85C208.369 295.147 207.674 267.937 185.702 269.385C180.182 269.744 175.711 269.167 172.158 268.17ZM201.541 304.286C201.788 306.732 200.028 308.925 197.586 309.212L109.151 319.628L107.301 301.236L112.656 300.605L114.459 315.912L120.228 315.232L118.425 299.926L123.16 299.368L124.963 314.674L130.732 313.995L128.929 298.689L133.665 298.131L135.467 313.437L141.235 312.758L139.432 297.452L144.169 296.894L145.972 312.2L151.739 311.521L149.937 296.214L154.677 295.656L156.48 310.962L162.247 310.283L160.444 294.977L165.18 294.419L166.983 309.725L172.75 309.046L170.948 293.74L175.686 293.182L177.489 308.488L183.253 307.809L181.451 292.503L186.189 291.945L187.992 307.251L193.762 306.571L191.959 291.265L200.129 290.303L201.541 304.286Z" fill="#FFD046"/>
<path d="M126.533 272.394C128.07 273.087 129.223 271.947 129.608 271.29L128.202 262.841L117.967 264.545L119.469 273.57C118.941 274.25 117.48 275.323 115.866 274.169" stroke="#050401" stroke-width="2" stroke-linecap="round"/>
<path d="M135.384 261.646L136.79 270.095C136.406 270.752 135.252 271.892 133.715 271.199" stroke="#050401" stroke-width="2" stroke-linecap="round"/>
<path d="M169.714 270.087C173.376 271.078 177.955 271.635 183.577 271.262L183.578 271.262C188.828 270.909 192.763 272.368 195.749 274.889C198.76 277.431 200.876 281.116 202.337 285.315C205.264 293.729 205.456 303.903 205.219 310.063C205.123 312.567 202.825 314.931 200.269 315.232L108.996 325.982C106.539 326.271 104.306 324.512 104.01 322.052L98.0477 260.187L98.0466 260.158C98.0453 260.122 98.0435 260.067 98.0422 259.993C98.0394 259.844 98.0381 259.621 98.0444 259.333C98.0569 258.756 98.0998 257.922 98.2218 256.907C98.4664 254.875 99.0265 252.139 100.283 249.313C102.774 243.711 108.028 237.668 119.291 236.071L119.291 236.071C128.187 234.808 134.337 236.487 139.303 240.336C144.335 244.236 148.252 250.435 152.489 258.465L152.489 258.465C154.707 262.666 157.167 265.108 160.063 266.737C162.66 268.197 165.579 268.979 168.799 269.841C169.101 269.922 169.406 270.004 169.714 270.087ZM169.714 270.087L169.976 269.121M169.714 270.087C169.715 270.087 169.715 270.087 169.715 270.087L169.976 269.121M169.976 269.121C169.673 269.04 169.375 268.96 169.08 268.881C162.285 267.06 157.478 265.772 153.374 257.998M169.976 269.121C173.524 270.082 177.992 270.631 183.511 270.264C205.48 268.787 206.694 297.722 206.219 310.102C206.102 313.134 203.394 315.871 200.386 316.225L109.113 326.975C106.103 327.329 103.371 325.173 103.016 322.159L153.374 257.998M153.374 257.998C144.896 241.934 137.37 232.494 119.151 235.08L153.374 257.998ZM201.267 310.832L201.156 309.831L201.142 309.833L198.864 290.487L198.747 289.494L197.753 289.611L189.583 290.574L188.59 290.691L188.707 291.684L190.346 305.6L186.563 306.046L184.924 292.129L184.807 291.136L183.813 291.253L179.075 291.811L178.082 291.928L178.199 292.921L179.838 306.838L176.06 307.283L174.421 293.366L174.304 292.373L173.311 292.49L168.572 293.048L167.579 293.165L167.696 294.158L169.335 308.075L165.554 308.52L163.915 294.604L163.798 293.611L162.805 293.727L158.069 294.285L157.075 294.402L157.192 295.395L158.831 309.312L155.05 309.757L153.411 295.841L153.294 294.848L152.301 294.965L147.561 295.523L146.568 295.64L146.685 296.633L148.324 310.55L144.543 310.995L142.904 297.078L142.787 296.085L141.794 296.202L137.056 296.76L136.063 296.877L136.18 297.87L137.819 311.787L134.038 312.232L132.399 298.315L132.282 297.322L131.289 297.439L126.553 297.997L125.56 298.114L125.677 299.107L127.316 313.024L123.534 313.469L121.895 299.553L121.778 298.559L120.785 298.676L116.049 299.234L115.056 299.351L115.173 300.344L116.812 314.261L113.029 314.706L111.39 300.79L111.273 299.797L110.28 299.914L104.925 300.544L103.932 300.661L104.049 301.654L106.444 321.993L106.561 322.986L107.554 322.869L200.39 311.935L200.387 311.911L201.374 311.799L201.373 311.791L201.267 310.832Z" stroke="#050401" stroke-opacity="0.8" stroke-width="2"/>
<path opacity="0.4" d="M101.449 365.378L99.5695 367.338V370.878H96.3495V356.878H99.5695V363.418L105.769 356.878H109.369L103.569 363.118L109.709 370.878H105.929L101.449 365.378ZM121.025 365.538C121.025 365.578 121.005 365.858 120.965 366.378H112.825C112.972 367.045 113.318 367.571 113.865 367.958C114.412 368.345 115.092 368.538 115.905 368.538C116.465 368.538 116.958 368.458 117.385 368.298C117.825 368.125 118.232 367.858 118.605 367.498L120.265 369.298C119.252 370.458 117.772 371.038 115.825 371.038C114.612 371.038 113.538 370.805 112.605 370.338C111.672 369.858 110.952 369.198 110.445 368.358C109.938 367.518 109.685 366.565 109.685 365.498C109.685 364.445 109.932 363.498 110.425 362.658C110.932 361.805 111.618 361.145 112.485 360.678C113.365 360.198 114.345 359.958 115.425 359.958C116.478 359.958 117.432 360.185 118.285 360.638C119.138 361.091 119.805 361.745 120.285 362.598C120.778 363.438 121.025 364.418 121.025 365.538ZM115.445 362.318C114.738 362.318 114.145 362.518 113.665 362.918C113.185 363.318 112.892 363.865 112.785 364.558H118.085C117.978 363.878 117.685 363.338 117.205 362.938C116.725 362.525 116.138 362.318 115.445 362.318ZM133.587 360.118L128.727 371.538C128.233 372.778 127.62 373.651 126.887 374.158C126.167 374.665 125.293 374.918 124.267 374.918C123.707 374.918 123.153 374.831 122.607 374.658C122.06 374.485 121.613 374.245 121.267 373.938L122.407 371.718C122.647 371.931 122.92 372.098 123.227 372.218C123.547 372.338 123.86 372.398 124.167 372.398C124.593 372.398 124.94 372.291 125.207 372.078C125.473 371.878 125.713 371.538 125.927 371.058L125.967 370.958L121.307 360.118H124.527L127.547 367.418L130.587 360.118H133.587ZM141.22 359.958C142.22 359.958 143.127 360.191 143.94 360.658C144.767 361.111 145.413 361.758 145.88 362.598C146.347 363.425 146.58 364.391 146.58 365.498C146.58 366.605 146.347 367.578 145.88 368.418C145.413 369.245 144.767 369.891 143.94 370.358C143.127 370.811 142.22 371.038 141.22 371.038C139.74 371.038 138.613 370.571 137.84 369.638V370.878H134.86V356.038H137.98V361.258C138.767 360.391 139.847 359.958 141.22 359.958ZM140.68 368.478C141.48 368.478 142.133 368.211 142.64 367.678C143.16 367.131 143.42 366.405 143.42 365.498C143.42 364.591 143.16 363.871 142.64 363.338C142.133 362.791 141.48 362.518 140.68 362.518C139.88 362.518 139.22 362.791 138.7 363.338C138.193 363.871 137.94 364.591 137.94 365.498C137.94 366.405 138.193 367.131 138.7 367.678C139.22 368.211 139.88 368.478 140.68 368.478ZM153.789 371.038C152.655 371.038 151.635 370.805 150.729 370.338C149.835 369.858 149.135 369.198 148.629 368.358C148.122 367.518 147.869 366.565 147.869 365.498C147.869 364.431 148.122 363.478 148.629 362.638C149.135 361.798 149.835 361.145 150.729 360.678C151.635 360.198 152.655 359.958 153.789 359.958C154.922 359.958 155.935 360.198 156.829 360.678C157.722 361.145 158.422 361.798 158.929 362.638C159.435 363.478 159.689 364.431 159.689 365.498C159.689 366.565 159.435 367.518 158.929 368.358C158.422 369.198 157.722 369.858 156.829 370.338C155.935 370.805 154.922 371.038 153.789 371.038ZM153.789 368.478C154.589 368.478 155.242 368.211 155.749 367.678C156.269 367.131 156.529 366.405 156.529 365.498C156.529 364.591 156.269 363.871 155.749 363.338C155.242 362.791 154.589 362.518 153.789 362.518C152.989 362.518 152.329 362.791 151.809 363.338C151.289 363.871 151.029 364.591 151.029 365.498C151.029 366.405 151.289 367.131 151.809 367.678C152.329 368.211 152.989 368.478 153.789 368.478ZM165.938 359.958C167.605 359.958 168.885 360.358 169.778 361.158C170.672 361.945 171.118 363.138 171.118 364.738V370.878H168.198V369.538C167.612 370.538 166.518 371.038 164.918 371.038C164.092 371.038 163.372 370.898 162.758 370.618C162.158 370.338 161.698 369.951 161.378 369.458C161.058 368.965 160.898 368.405 160.898 367.778C160.898 366.778 161.272 365.991 162.018 365.418C162.778 364.845 163.945 364.558 165.518 364.558H167.998C167.998 363.878 167.792 363.358 167.378 362.998C166.965 362.625 166.345 362.438 165.518 362.438C164.945 362.438 164.378 362.531 163.818 362.718C163.272 362.891 162.805 363.131 162.418 363.438L161.298 361.258C161.885 360.845 162.585 360.525 163.398 360.298C164.225 360.071 165.072 359.958 165.938 359.958ZM165.698 368.938C166.232 368.938 166.705 368.818 167.118 368.578C167.532 368.325 167.825 367.958 167.998 367.478V366.378H165.858C164.578 366.378 163.938 366.798 163.938 367.638C163.938 368.038 164.092 368.358 164.398 368.598C164.718 368.825 165.152 368.938 165.698 368.938ZM176.922 361.538C177.295 361.018 177.795 360.625 178.422 360.358C179.062 360.091 179.795 359.958 180.622 359.958V362.838C180.275 362.811 180.042 362.798 179.922 362.798C179.029 362.798 178.329 363.051 177.822 363.558C177.315 364.051 177.062 364.798 177.062 365.798V370.878H173.942V360.118H176.922V361.538ZM193.339 356.038V370.878H190.359V369.638C189.586 370.571 188.466 371.038 186.999 371.038C185.986 371.038 185.066 370.811 184.239 370.358C183.426 369.905 182.786 369.258 182.319 368.418C181.853 367.578 181.619 366.605 181.619 365.498C181.619 364.391 181.853 363.418 182.319 362.578C182.786 361.738 183.426 361.091 184.239 360.638C185.066 360.185 185.986 359.958 186.999 359.958C188.373 359.958 189.446 360.391 190.219 361.258V356.038H193.339ZM187.539 368.478C188.326 368.478 188.979 368.211 189.499 367.678C190.019 367.131 190.279 366.405 190.279 365.498C190.279 364.591 190.019 363.871 189.499 363.338C188.979 362.791 188.326 362.518 187.539 362.518C186.739 362.518 186.079 362.791 185.559 363.338C185.039 363.871 184.779 364.591 184.779 365.498C184.779 366.405 185.039 367.131 185.559 367.678C186.079 368.211 186.739 368.478 187.539 368.478Z" fill="#FFFAFF"/>
<g filter="url(#filter3_d)">
<rect width="164.982" height="148.988" rx="4" transform="matrix(-0.998886 0.047186 0.047186 0.998886 452.051 242.219)" fill="#222430"/>
</g>
<path opacity="0.4" d="M326.95 360.64H322.47V358H334.67V360.64H330.19V372H326.95V360.64ZM338.939 362.66C339.312 362.14 339.812 361.747 340.439 361.48C341.079 361.213 341.812 361.08 342.639 361.08V363.96C342.292 363.933 342.059 363.92 341.939 363.92C341.045 363.92 340.345 364.173 339.839 364.68C339.332 365.173 339.079 365.92 339.079 366.92V372H335.959V361.24H338.939V362.66ZM348.775 361.08C350.442 361.08 351.722 361.48 352.615 362.28C353.508 363.067 353.955 364.26 353.955 365.86V372H351.035V370.66C350.448 371.66 349.355 372.16 347.755 372.16C346.928 372.16 346.208 372.02 345.595 371.74C344.995 371.46 344.535 371.073 344.215 370.58C343.895 370.087 343.735 369.527 343.735 368.9C343.735 367.9 344.108 367.113 344.855 366.54C345.615 365.967 346.782 365.68 348.355 365.68H350.835C350.835 365 350.628 364.48 350.215 364.12C349.802 363.747 349.182 363.56 348.355 363.56C347.782 363.56 347.215 363.653 346.655 363.84C346.108 364.013 345.642 364.253 345.255 364.56L344.135 362.38C344.722 361.967 345.422 361.647 346.235 361.42C347.062 361.193 347.908 361.08 348.775 361.08ZM348.535 370.06C349.068 370.06 349.542 369.94 349.955 369.7C350.368 369.447 350.662 369.08 350.835 368.6V367.5H348.695C347.415 367.5 346.775 367.92 346.775 368.76C346.775 369.16 346.928 369.48 347.235 369.72C347.555 369.947 347.988 370.06 348.535 370.06ZM367.264 361.24L362.724 372H359.504L354.984 361.24H358.204L361.184 368.56L364.264 361.24H367.264ZM378.784 366.66C378.784 366.7 378.764 366.98 378.724 367.5H370.584C370.73 368.167 371.077 368.693 371.624 369.08C372.17 369.467 372.85 369.66 373.664 369.66C374.224 369.66 374.717 369.58 375.144 369.42C375.584 369.247 375.99 368.98 376.364 368.62L378.024 370.42C377.01 371.58 375.53 372.16 373.584 372.16C372.37 372.16 371.297 371.927 370.364 371.46C369.43 370.98 368.71 370.32 368.204 369.48C367.697 368.64 367.444 367.687 367.444 366.62C367.444 365.567 367.69 364.62 368.184 363.78C368.69 362.927 369.377 362.267 370.244 361.8C371.124 361.32 372.104 361.08 373.184 361.08C374.237 361.08 375.19 361.307 376.044 361.76C376.897 362.213 377.564 362.867 378.044 363.72C378.537 364.56 378.784 365.54 378.784 366.66ZM373.204 363.44C372.497 363.44 371.904 363.64 371.424 364.04C370.944 364.44 370.65 364.987 370.544 365.68H375.844C375.737 365 375.444 364.46 374.964 364.06C374.484 363.647 373.897 363.44 373.204 363.44ZM380.861 357.16H383.981V372H380.861V357.16ZM386.877 357.16H389.997V372H386.877V357.16ZM392.892 361.24H396.012V372H392.892V361.24ZM394.452 359.74C393.879 359.74 393.412 359.573 393.052 359.24C392.692 358.907 392.512 358.493 392.512 358C392.512 357.507 392.692 357.093 393.052 356.76C393.412 356.427 393.879 356.26 394.452 356.26C395.025 356.26 395.492 356.42 395.852 356.74C396.212 357.06 396.392 357.46 396.392 357.94C396.392 358.46 396.212 358.893 395.852 359.24C395.492 359.573 395.025 359.74 394.452 359.74ZM405.448 361.08C406.781 361.08 407.854 361.48 408.668 362.28C409.494 363.08 409.908 364.267 409.908 365.84V372H406.788V366.32C406.788 365.467 406.601 364.833 406.228 364.42C405.854 363.993 405.314 363.78 404.608 363.78C403.821 363.78 403.194 364.027 402.728 364.52C402.261 365 402.028 365.72 402.028 366.68V372H398.908V361.24H401.888V362.5C402.301 362.047 402.814 361.7 403.428 361.46C404.041 361.207 404.714 361.08 405.448 361.08ZM423.953 361.24V370.2C423.953 372.173 423.44 373.64 422.413 374.6C421.386 375.56 419.886 376.04 417.913 376.04C416.873 376.04 415.886 375.913 414.953 375.66C414.02 375.407 413.246 375.04 412.633 374.56L413.873 372.32C414.326 372.693 414.9 372.987 415.593 373.2C416.286 373.427 416.98 373.54 417.673 373.54C418.753 373.54 419.546 373.293 420.053 372.8C420.573 372.32 420.833 371.587 420.833 370.6V370.14C420.02 371.033 418.886 371.48 417.433 371.48C416.446 371.48 415.54 371.267 414.713 370.84C413.9 370.4 413.253 369.787 412.773 369C412.293 368.213 412.053 367.307 412.053 366.28C412.053 365.253 412.293 364.347 412.773 363.56C413.253 362.773 413.9 362.167 414.713 361.74C415.54 361.3 416.446 361.08 417.433 361.08C418.993 361.08 420.18 361.593 420.993 362.62V361.24H423.953ZM418.053 368.92C418.88 368.92 419.553 368.68 420.073 368.2C420.606 367.707 420.873 367.067 420.873 366.28C420.873 365.493 420.606 364.86 420.073 364.38C419.553 363.887 418.88 363.64 418.053 363.64C417.226 363.64 416.546 363.887 416.013 364.38C415.48 364.86 415.213 365.493 415.213 366.28C415.213 367.067 415.48 367.707 416.013 368.2C416.546 368.68 417.226 368.92 418.053 368.92Z" fill="#FFFAFF"/>
<path d="M400.446 330.376C409.436 324.38 410.113 273.138 409.328 248.267C409.137 239.57 360.496 232.784 350.932 238.065C343.97 241.91 340.56 288.393 339.457 317.32C339.279 322.001 342.418 326.147 346.993 327.154C365.116 331.146 392.687 335.55 400.446 330.376Z" fill="#FF7D49"/>
<path d="M391.002 332.432C393.52 331.358 393.03 326.547 392.501 324.498C390.746 325.194 384.994 326.441 380.874 326.099C380.489 327.606 381.79 330.063 382.701 331.302C384.825 333.282 387.854 333.774 391.002 332.432Z" stroke="#050401" stroke-width="2"/>
<path d="M348.745 329.122C351.327 328.63 352.078 324.81 351.891 323.141C350.752 323.106 345.475 321.558 342.273 321.341C341.668 322.463 341.033 325.952 341.479 326.917C342.514 328.018 345.518 329.736 348.745 329.122Z" stroke="#050401" stroke-width="2"/>
<path d="M394.924 325.09C403.8 319.158 404.452 268.431 403.668 243.809C403.476 235.2 355.438 228.465 345.996 233.691C339.127 237.491 335.775 283.433 334.693 312.074C334.516 316.75 337.651 320.893 342.22 321.902C360.12 325.855 387.275 330.202 394.924 325.09Z" stroke="#050401" stroke-width="2"/>
<path d="M383.651 221.888C389.873 222.586 390.123 230.842 389.496 235.073L383.249 233.601C383.83 231.967 383.308 230.433 382.671 229.406C381.117 226.9 370.019 225.319 365.825 227.062C361.22 228.976 361.895 230.712 361.604 231.529L355.567 231.583C355.332 226.952 356.065 219.39 360.03 220.088C364.986 220.96 375.874 221.015 383.651 221.888Z" stroke="#050401" stroke-width="2"/>
<path d="M385.908 246.671C385.775 258.276 384.787 281.901 381.901 283.562" stroke="#050401" stroke-width="2"/>
<path d="M361.45 244.99C360.561 256.464 359.204 280.213 360.894 283.425" stroke="#050401" stroke-width="2"/>
<path d="M392.044 291.25L345.246 288.607" stroke="#050401" stroke-width="2"/>
<path d="M385.518 295.177L343.538 290.861" stroke="#050401" stroke-width="2"/>
<defs>
<filter id="filter0_d" x="0.106445" y="2.26367" width="268.171" height="234.977" filterUnits="userSpaceOnUse" color-interpolation-filters="sRGB">
<feFlood flood-opacity="0" result="BackgroundImageFix"/>
<feColorMatrix in="SourceAlpha" type="matrix" values="0 0 0 0 0 0 0 0 0 0 0 0 0 0 0 0 0 0 127 0"/>
<feOffset/>
<feGaussianBlur stdDeviation="20"/>
<feColorMatrix type="matrix" values="0 0 0 0 0.0196078 0 0 0 0 0.0156863 0 0 0 0 0.00392157 0 0 0 0.05 0"/>
<feBlend mode="normal" in2="BackgroundImageFix" result="effect1_dropShadow"/>
<feBlend mode="normal" in="SourceGraphic" in2="effect1_dropShadow" result="shape"/>
</filter>
<filter id="filter1_d" x="230.942" y="0.981445" width="244.722" height="220.843" filterUnits="userSpaceOnUse" color-interpolation-filters="sRGB">
<feFlood flood-opacity="0" result="BackgroundImageFix"/>
<feColorMatrix in="SourceAlpha" type="matrix" values="0 0 0 0 0 0 0 0 0 0 0 0 0 0 0 0 0 0 127 0"/>
<feOffset/>
<feGaussianBlur stdDeviation="20"/>
<feColorMatrix type="matrix" values="0 0 0 0 0.0196078 0 0 0 0 0.0156863 0 0 0 0 0.00392157 0 0 0 0.05 0"/>
<feBlend mode="normal" in2="BackgroundImageFix" result="effect1_dropShadow"/>
<feBlend mode="normal" in="SourceGraphic" in2="effect1_dropShadow" result="shape"/>
</filter>
<filter id="filter2_d" x="19.2212" y="199.981" width="265.674" height="241.346" filterUnits="userSpaceOnUse" color-interpolation-filters="sRGB">
<feFlood flood-opacity="0" result="BackgroundImageFix"/>
<feColorMatrix in="SourceAlpha" type="matrix" values="0 0 0 0 0 0 0 0 0 0 0 0 0 0 0 0 0 0 127 0"/>
<feOffset/>
<feGaussianBlur stdDeviation="20"/>
<feColorMatrix type="matrix" values="0 0 0 0 0.0196078 0 0 0 0 0.0156863 0 0 0 0 0.00392157 0 0 0 0.05 0"/>
<feBlend mode="normal" in2="BackgroundImageFix" result="effect1_dropShadow"/>
<feBlend mode="normal" in="SourceGraphic" in2="effect1_dropShadow" result="shape"/>
</filter>
<filter id="filter3_d" x="247.253" y="202.219" width="251.828" height="236.607" filterUnits="userSpaceOnUse" color-interpolation-filters="sRGB">
<feFlood flood-opacity="0" result="BackgroundImageFix"/>
<feColorMatrix in="SourceAlpha" type="matrix" values="0 0 0 0 0 0 0 0 0 0 0 0 0 0 0 0 0 0 127 0"/>
<feOffset/>
<feGaussianBlur stdDeviation="20"/>
<feColorMatrix type="matrix" values="0 0 0 0 0.0196078 0 0 0 0 0.0156863 0 0 0 0 0.00392157 0 0 0 0.05 0"/>
<feBlend mode="normal" in2="BackgroundImageFix" result="effect1_dropShadow"/>
<feBlend mode="normal" in="SourceGraphic" in2="effect1_dropShadow" result="shape"/>
</filter>
</defs>
</svg>
