<svg width="506" height="442" viewBox="0 0 506 442" fill="none" xmlns="http://www.w3.org/2000/svg">
<g filter="url(#filter0_d)">
<rect x="40" y="69.0212" width="174.621" height="137.262" rx="4" transform="rotate(-9.23409 40 69.0212)" fill="white"/>
</g>
<path opacity="0.2" d="M121.351 157.019H116.611V159.539H120.911V162.859H116.611V168.779H112.691V153.699H121.351V157.019ZM127.451 153.699V168.779H123.531V153.699H127.451ZM138.676 157.019H133.936V159.539H138.236V162.859H133.936V168.779H130.016V153.699H138.676V157.019ZM149.002 166.159H143.602L142.562 168.779H138.402L144.202 153.699H148.482L154.162 168.779H149.982L149.002 166.159ZM147.942 163.159L146.342 158.359H146.302L144.682 163.159H147.942Z" fill="#050401"/>
<path d="M119.288 57.3902C97.9543 47.6847 81.7744 85.9573 76.3511 106.307C73.4589 120.746 86.7076 119.166 94.2359 115.881C106.193 110.663 112.697 102.403 116.732 100.415C124.758 105.538 143.079 107.424 151.235 107.726C155.858 114.91 164.297 129.275 165.728 130.201C177.937 145.109 184.919 132.58 186.301 124.336C193.496 70.2573 172.053 68.3587 169.41 67.43C166.564 66.4296 145.405 66.2164 140.743 65.2825C137.013 64.5353 124.886 59.7096 119.288 57.3902Z" fill="#69DC9E"/>
<path d="M116.08 51.6774C94.9464 42.012 78.8395 80.2992 73.4278 100.651C70.5355 115.09 83.6732 113.488 91.1425 110.191C103.006 104.954 109.468 96.6862 113.472 94.6923C121.421 99.7994 139.58 101.653 147.667 101.941C152.238 109.114 160.579 123.46 161.996 124.383C174.075 139.265 181.018 126.729 182.403 118.485C189.629 64.4125 168.373 62.5515 165.755 61.6276C162.935 60.6325 141.958 60.4557 137.337 59.5301C133.641 58.7896 121.626 53.9865 116.08 51.6774Z" stroke="#050401" stroke-opacity="0.8" stroke-width="2"/>
<path d="M113.272 65.6712C112.867 67.8379 112.346 70.6003 112.061 72.1192C111.958 72.6628 111.435 73.0194 110.891 72.9175L104.605 71.7381C104.061 71.6362 103.538 71.9948 103.437 72.5386L102.847 75.7188C102.747 76.261 103.104 76.7823 103.646 76.884L109.939 78.0645C110.482 78.1663 110.839 78.6889 110.737 79.2317L109.597 85.3095C109.495 85.8531 109.854 86.3763 110.397 86.4772L113.523 87.0569C114.065 87.1575 114.587 86.8001 114.688 86.2581L115.83 80.1761C115.932 79.6333 116.454 79.2759 116.997 79.3777L123.286 80.5574C123.829 80.6594 124.353 80.3008 124.453 79.7569L125.043 76.5768C125.144 76.0346 124.786 75.5133 124.244 75.4116L117.952 74.2311C117.409 74.1293 117.051 73.6067 117.153 73.0639L118.362 66.6184C118.464 66.0748 118.105 65.5517 117.561 65.4508L114.438 64.8714C113.894 64.7707 113.373 65.1283 113.272 65.6712Z" stroke="#050401" stroke-opacity="0.8" stroke-width="2"/>
<circle r="3.4743" transform="matrix(-0.980523 -0.196406 -0.196406 0.980523 162.111 77.6745)" stroke="#050401" stroke-opacity="0.8" stroke-width="2"/>
<circle r="3.4743" transform="matrix(-0.980523 -0.196406 -0.196406 0.980523 168.823 87.6151)" stroke="#050401" stroke-opacity="0.8" stroke-width="2"/>
<circle r="3.4743" transform="matrix(-0.980523 -0.196406 -0.196406 0.980523 152.25 84.2952)" stroke="#050401" stroke-opacity="0.8" stroke-width="2"/>
<circle r="3.4743" transform="matrix(-0.980523 -0.196406 -0.196406 0.980523 159.036 93.8522)" stroke="#050401" stroke-opacity="0.8" stroke-width="2"/>
<g filter="url(#filter1_d)">
<rect x="279.348" y="40.9812" width="162.34" height="138.034" rx="4" transform="rotate(0.99898 279.348 40.9812)" fill="white"/>
</g>
<path opacity="0.2" d="M331.763 150.053L336.516 156.223L331.636 156.233L327.924 150.441L327.884 150.441L327.896 156.241L323.976 156.249L323.945 141.169L329.805 141.157C331.298 141.167 332.546 141.545 333.547 142.289C334.549 143.02 335.051 144.193 335.055 145.806C335.057 146.846 334.772 147.773 334.2 148.588C333.642 149.389 332.83 149.884 331.763 150.073L331.763 150.053ZM327.871 144.161L327.879 147.921L328.259 147.92C328.326 147.933 328.392 147.94 328.459 147.94C328.526 147.94 328.586 147.939 328.639 147.939C329.226 147.911 329.759 147.777 330.238 147.536C330.731 147.282 330.977 146.788 330.975 146.054C330.974 145.321 330.726 144.835 330.232 144.596C329.752 144.344 329.218 144.205 328.631 144.179C328.578 144.179 328.518 144.18 328.451 144.18C328.385 144.18 328.318 144.18 328.251 144.18L327.871 144.161ZM348.02 151.299L348.021 151.679L340.361 151.695C340.362 152.442 340.557 153.015 340.944 153.414C341.332 153.8 341.899 153.992 342.645 153.99C343.032 153.99 343.365 153.916 343.645 153.768C343.938 153.621 344.184 153.381 344.383 153.047L347.883 153.02C347.593 154.247 346.941 155.141 345.929 155.704C344.93 156.266 343.844 156.548 342.671 156.55C340.977 156.554 339.563 156.097 338.428 155.179C337.293 154.248 336.723 152.896 336.719 151.123C336.716 149.416 337.24 148.075 338.291 147.099C339.356 146.124 340.721 145.634 342.388 145.631C344.175 145.627 345.556 146.138 346.531 147.162C347.52 148.187 348.016 149.573 348.02 151.319L348.02 151.299ZM340.416 149.595L344.636 149.586C344.542 149.106 344.294 148.72 343.894 148.428C343.507 148.135 343.066 147.989 342.573 147.991C342.04 147.992 341.573 148.133 341.174 148.413C340.774 148.681 340.522 149.081 340.416 149.615L340.416 149.595ZM360.896 145.913L360.917 156.173L357.277 156.18L357.275 155.04L357.235 155.04C356.942 155.521 356.543 155.882 356.037 156.123C355.531 156.35 355.004 156.478 354.458 156.506C354.404 156.519 354.351 156.526 354.298 156.526C354.244 156.526 354.191 156.526 354.138 156.527C352.618 156.53 351.37 155.992 350.394 154.914C349.432 153.823 348.949 152.544 348.946 151.077C348.943 149.611 349.414 148.336 350.358 147.254C351.316 146.159 352.555 145.61 354.075 145.607C354.142 145.607 354.208 145.606 354.275 145.606C354.342 145.606 354.408 145.613 354.475 145.626C354.995 145.665 355.502 145.797 355.996 146.023C356.503 146.235 356.924 146.541 357.258 146.94L357.256 145.92L360.896 145.913ZM355.042 148.745C354.308 148.76 353.735 149.001 353.323 149.468C352.911 149.922 352.705 150.463 352.706 151.09C352.708 151.743 352.916 152.289 353.33 152.728C353.744 153.167 354.318 153.386 355.051 153.385C355.798 153.383 356.371 153.162 356.77 152.721C357.182 152.28 357.388 151.733 357.386 151.08C357.385 150.453 357.177 149.914 356.763 149.461C356.362 148.995 355.788 148.763 355.042 148.765L355.042 148.745ZM371.05 156.152L371.047 155.012L371.007 155.012C370.715 155.492 370.316 155.853 369.81 156.094C369.303 156.322 368.777 156.45 368.23 156.477C368.177 156.491 368.124 156.498 368.07 156.498C368.017 156.498 367.964 156.498 367.91 156.498C366.39 156.501 365.143 155.964 364.167 154.886C363.205 153.794 362.722 152.515 362.719 151.049C362.716 149.582 363.187 148.308 364.131 147.226C365.089 146.131 366.328 145.581 367.848 145.578C367.915 145.578 367.981 145.578 368.048 145.578C368.115 145.578 368.181 145.584 368.248 145.597C368.768 145.636 369.275 145.769 369.769 145.994C370.276 146.207 370.696 146.512 371.031 146.912L371.015 139.552L374.655 139.544L374.69 156.144L371.05 156.152ZM368.814 148.716C368.081 148.731 367.508 148.972 367.096 149.44C366.683 149.894 366.478 150.434 366.479 151.061C366.481 151.714 366.688 152.261 367.103 152.7C367.517 153.139 368.091 153.358 368.824 153.356C369.571 153.355 370.143 153.133 370.543 152.693C370.955 152.252 371.161 151.705 371.159 151.051C371.158 150.425 370.95 149.885 370.536 149.433C370.135 148.967 369.561 148.735 368.814 148.736L368.814 148.716ZM380.581 145.872L380.603 156.132L376.963 156.139L376.941 145.879L380.581 145.872ZM378.749 139.896C379.309 139.908 379.789 140.113 380.19 140.513C380.591 140.912 380.792 141.391 380.793 141.951C380.794 142.511 380.595 142.992 380.196 143.393C379.797 143.793 379.317 143.994 378.757 143.996C378.197 143.997 377.717 143.798 377.316 143.399C376.915 142.999 376.714 142.52 376.713 141.96C376.712 141.4 376.911 140.919 377.31 140.519C377.709 140.118 378.189 139.917 378.749 139.916L378.749 139.896ZM386.616 145.859L386.619 147.179L386.659 147.179C387.085 146.565 387.557 146.137 388.077 145.896C388.609 145.655 389.229 145.534 389.936 145.533C391.322 145.53 392.31 145.921 392.898 146.706C393.5 147.492 393.802 148.518 393.805 149.785L393.818 156.104L390.178 156.112L390.167 151.112C390.167 151.085 390.167 151.052 390.167 151.012C390.167 150.972 390.167 150.932 390.167 150.892C390.167 150.772 390.166 150.645 390.166 150.512C390.166 150.379 390.159 150.245 390.145 150.112C390.118 149.699 389.997 149.319 389.783 148.973C389.569 148.613 389.148 148.434 388.522 148.435C387.788 148.437 387.289 148.678 387.023 149.159C386.758 149.626 386.625 150.179 386.627 150.819L386.638 156.119L382.998 156.127L382.976 145.867L386.616 145.859ZM407.459 145.816L407.478 155.076C407.483 157.263 406.966 158.831 405.928 159.779C404.903 160.728 403.444 161.205 401.551 161.209C401.298 161.209 401.031 161.196 400.751 161.17C400.471 161.144 400.191 161.098 399.911 161.032C398.923 160.821 398.003 160.409 397.148 159.798C396.307 159.186 395.825 158.354 395.703 157.301L399.783 157.292C399.836 157.479 399.923 157.632 400.044 157.752C400.164 157.885 400.304 157.991 400.464 158.071C400.558 158.124 400.658 158.164 400.765 158.19C400.871 158.23 400.978 158.256 401.085 158.269C401.151 158.283 401.218 158.289 401.285 158.289C401.365 158.302 401.438 158.309 401.505 158.309C402.492 158.307 403.124 158.019 403.403 157.445C403.695 156.884 403.841 156.197 403.839 155.384L403.838 154.884C403.372 155.365 402.88 155.719 402.36 155.947C401.854 156.175 401.261 156.289 400.581 156.291C399.087 156.294 397.866 155.796 396.918 154.798C395.982 153.8 395.513 152.561 395.51 151.081C395.507 149.574 395.984 148.273 396.942 147.178C397.913 146.069 399.185 145.513 400.758 145.51C401.358 145.509 401.919 145.621 402.439 145.847C402.973 146.059 403.42 146.418 403.781 146.924L403.821 146.904L403.819 145.824L407.459 145.816ZM401.605 148.568C400.871 148.583 400.299 148.824 399.886 149.292C399.474 149.746 399.268 150.287 399.27 150.913C399.271 151.567 399.479 152.113 399.893 152.552C400.307 152.991 400.881 153.21 401.614 153.208C402.361 153.207 402.934 152.986 403.333 152.545C403.745 152.104 403.951 151.557 403.95 150.904C403.948 150.277 403.74 149.737 403.326 149.285C402.925 148.819 402.351 148.587 401.605 148.588L401.605 148.568Z" fill="#050401"/>
<path d="M321.379 103.245C322.935 81.9856 315.283 56.3874 311.263 46.2457C340.833 44.397 355.229 53.4347 358.73 58.1847C357.563 59.0833 356.085 61.1116 359.508 62.0359C362.932 62.9602 371.31 62.4211 375.072 62.0359C378.184 61.4197 377.665 59.2117 377.017 58.1847C381.063 49.8659 410.867 46.7592 425.263 46.2457C419.349 50.251 415.017 85.9139 413.59 103.245C402.385 103.245 387.133 107.353 380.908 109.407C370.325 117.726 359.898 112.873 356.007 109.407C342 103.553 327.085 102.86 321.379 103.245Z" fill="#FFD046"/>
<path d="M348.263 99C345.181 97.1424 335.465 93.5511 321.263 94.0464" stroke="#050401" stroke-opacity="0.8" stroke-width="2"/>
<path d="M347.263 55C341.869 51.8619 327.119 45.6713 311.263 46.0136" stroke="#050401" stroke-opacity="0.8" stroke-width="2"/>
<path d="M380.263 99C382.502 96.8195 390.636 92.8322 405.263 94.3274" stroke="#050401" stroke-opacity="0.8" stroke-width="2"/>
<path d="M378.263 55C385.189 51.2633 401.685 44.3074 412.263 46.3769" stroke="#050401" stroke-opacity="0.8" stroke-width="2"/>
<path d="M359.263 103C360.682 103.755 364.869 104.811 370.263 103" stroke="#050401" stroke-opacity="0.8" stroke-width="2"/>
<path d="M356.263 67C358.985 67.7546 365.596 68.8111 370.263 67" stroke="#050401" stroke-opacity="0.8" stroke-width="2"/>
<path d="M356.263 55C348.494 40.4594 321.692 37.6321 309.263 38.036V40.8633" stroke="#050401" stroke-opacity="0.8" stroke-width="2"/>
<path d="M359.263 54C351.466 39.593 325.737 35.6268 313.263 36.027V38.3924" stroke="#050401" stroke-opacity="0.8" stroke-width="2"/>
<path d="M362.263 54C354.335 39.7358 331.344 33 318.263 33V36.5661" stroke="#050401" stroke-opacity="0.8" stroke-width="2"/>
<path d="M368.263 55C376.197 40.4594 403.568 37.6321 416.263 38.036V41.6711" stroke="#050401" stroke-opacity="0.8" stroke-width="2"/>
<path d="M412.263 37.027C399.517 36.6268 373.229 40.593 365.263 55" stroke="#050401" stroke-opacity="0.8" stroke-width="2"/>
<path d="M364.263 55C371.83 40.7358 393.776 34 406.263 34V37.5661" stroke="#050401" stroke-opacity="0.8" stroke-width="2"/>
<path d="M317.379 98.9284C318.935 77.044 311.283 50.6929 307.263 40.2529C336.833 38.3499 351.229 47.6534 354.73 52.543C353.563 53.4681 352.085 55.5561 355.508 56.5076C358.932 57.4591 367.31 56.904 371.072 56.5076C374.184 55.8733 373.665 53.6002 373.017 52.543C377.063 43.9796 406.867 40.7815 421.263 40.2529C415.349 44.376 411.017 81.0879 409.59 98.9284C398.385 98.9284 383.133 103.157 376.908 105.272C366.325 113.835 355.898 108.84 352.007 105.272C338 99.2455 323.085 98.5319 317.379 98.9284Z" stroke="#050401" stroke-opacity="0.8" stroke-width="2"/>
<path d="M351.263 60C351.263 80.3273 354.263 95.1818 354.263 103" stroke="#050401" stroke-opacity="0.8" stroke-width="2"/>
<path d="M373.263 60C372.508 74.0177 371.452 102.442 373.263 104" stroke="#050401" stroke-opacity="0.8" stroke-width="2"/>
<g filter="url(#filter2_d)">
<rect width="181.557" height="150.829" rx="4" transform="matrix(-0.999364 -0.0356672 -0.0356672 0.999364 245.821 250.371)" fill="white"/>
</g>
<path opacity="0.2" d="M104.622 352.638L103.062 355.678C102.702 355.385 102.296 355.152 101.842 354.978C101.402 354.792 100.942 354.698 100.462 354.698C100.396 354.698 100.322 354.705 100.242 354.718C100.162 354.718 100.082 354.732 100.002 354.758C99.6958 354.825 99.4158 354.958 99.1624 355.158C98.9091 355.358 98.7824 355.625 98.7824 355.958C98.7824 356.278 98.9024 356.538 99.1424 356.738C99.3824 356.925 99.6424 357.078 99.9224 357.198C100.029 357.238 100.129 357.278 100.222 357.318C100.329 357.345 100.429 357.372 100.522 357.398L101.522 357.678C102.576 357.998 103.456 358.465 104.162 359.078C104.882 359.678 105.242 360.592 105.242 361.818C105.242 361.872 105.242 361.925 105.242 361.978C105.242 362.032 105.242 362.085 105.242 362.138C105.216 362.832 105.089 363.512 104.862 364.178C104.636 364.832 104.242 365.398 103.682 365.878C103.176 366.318 102.602 366.645 101.962 366.858C101.322 367.072 100.669 367.205 100.002 367.258C99.8958 367.258 99.7891 367.258 99.6824 367.258C99.5891 367.272 99.4958 367.278 99.4024 367.278C98.4558 367.278 97.5291 367.132 96.6224 366.838C95.7158 366.532 94.8758 366.112 94.1024 365.578L95.7824 362.398C96.2758 362.838 96.8091 363.212 97.3824 363.518C97.9691 363.825 98.5958 363.978 99.2624 363.978C99.2891 363.978 99.3158 363.978 99.3424 363.978C99.3691 363.978 99.3958 363.978 99.4224 363.978C99.8624 363.952 100.262 363.818 100.622 363.578C100.982 363.325 101.162 362.952 101.162 362.458C101.162 362.085 101.009 361.785 100.702 361.558C100.409 361.332 100.076 361.152 99.7024 361.018C99.5424 360.965 99.3824 360.918 99.2224 360.878C99.0624 360.825 98.9158 360.778 98.7824 360.738C98.7558 360.725 98.7224 360.718 98.6824 360.718C98.6558 360.705 98.6291 360.692 98.6024 360.678C97.4158 360.345 96.4691 359.918 95.7624 359.398C95.0558 358.878 94.7024 357.905 94.7024 356.478C94.7024 354.945 95.1891 353.718 96.1624 352.798C97.1491 351.878 98.3958 351.418 99.9024 351.418C100.209 351.418 100.522 351.438 100.842 351.478C101.162 351.505 101.482 351.558 101.802 351.638C102.309 351.745 102.802 351.885 103.282 352.058C103.776 352.232 104.222 352.432 104.622 352.658V352.638ZM110.547 356.618V357.778H110.587C110.893 357.312 111.307 356.958 111.827 356.718C112.347 356.465 112.887 356.325 113.447 356.298C113.487 356.298 113.527 356.298 113.567 356.298C113.607 356.298 113.647 356.298 113.687 356.298C115.22 356.298 116.467 356.852 117.427 357.958C118.387 359.052 118.867 360.332 118.867 361.798C118.867 363.278 118.387 364.552 117.427 365.618C116.48 366.685 115.247 367.218 113.727 367.218C113.673 367.218 113.62 367.218 113.567 367.218C113.527 367.218 113.48 367.218 113.427 367.218C112.893 367.178 112.367 367.058 111.847 366.858C111.34 366.645 110.907 366.332 110.547 365.918V371.998H106.907V356.618H110.547ZM112.767 359.438C112.033 359.452 111.46 359.692 111.047 360.158C110.633 360.612 110.427 361.152 110.427 361.778C110.427 362.432 110.633 362.978 111.047 363.418C111.46 363.858 112.033 364.078 112.767 364.078C113.513 364.078 114.087 363.858 114.487 363.418C114.9 362.978 115.107 362.432 115.107 361.778C115.107 361.152 114.9 360.612 114.487 360.158C114.087 359.692 113.513 359.458 112.767 359.458V359.438ZM131.879 356.618V366.878H128.239V365.738H128.199C127.906 366.218 127.506 366.578 126.999 366.818C126.493 367.045 125.966 367.172 125.419 367.198C125.366 367.212 125.313 367.218 125.259 367.218C125.206 367.218 125.153 367.218 125.099 367.218C123.579 367.218 122.333 366.678 121.359 365.598C120.399 364.505 119.919 363.225 119.919 361.758C119.919 360.292 120.393 359.018 121.339 357.938C122.299 356.845 123.539 356.298 125.059 356.298C125.126 356.298 125.193 356.298 125.259 356.298C125.326 356.298 125.393 356.305 125.459 356.318C125.979 356.358 126.486 356.492 126.979 356.718C127.486 356.932 127.906 357.238 128.239 357.638V356.618H131.879ZM126.019 359.438C125.286 359.452 124.713 359.692 124.299 360.158C123.886 360.612 123.679 361.152 123.679 361.778C123.679 362.432 123.886 362.978 124.299 363.418C124.713 363.858 125.286 364.078 126.019 364.078C126.766 364.078 127.339 363.858 127.739 363.418C128.153 362.978 128.359 362.432 128.359 361.778C128.359 361.152 128.153 360.612 127.739 360.158C127.339 359.692 126.766 359.458 126.019 359.458V359.438ZM141.692 356.878V359.958C141.426 359.772 141.132 359.612 140.812 359.478C140.492 359.332 140.159 359.258 139.812 359.258C139.119 359.258 138.526 359.498 138.032 359.978C137.552 360.458 137.312 361.052 137.312 361.758C137.312 362.492 137.552 363.098 138.032 363.578C138.512 364.045 139.126 364.278 139.872 364.278C139.939 364.278 140.006 364.278 140.072 364.278C140.152 364.265 140.226 364.252 140.292 364.238C140.546 364.198 140.792 364.125 141.032 364.018C141.286 363.898 141.506 363.752 141.692 363.578V366.638C141.292 366.838 140.872 366.985 140.432 367.078C140.006 367.172 139.572 367.218 139.132 367.218C137.612 367.218 136.299 366.718 135.192 365.718C134.099 364.705 133.552 363.425 133.552 361.878C133.552 360.225 134.106 358.885 135.212 357.858C136.319 356.818 137.679 356.298 139.292 356.298C139.719 356.298 140.132 356.352 140.532 356.458C140.946 356.552 141.332 356.698 141.692 356.898V356.878ZM154.5 361.978V362.358H146.84C146.84 363.105 147.034 363.678 147.42 364.078C147.807 364.465 148.374 364.658 149.12 364.658C149.507 364.658 149.84 364.585 150.12 364.438C150.414 364.292 150.66 364.052 150.86 363.718L154.36 363.698C154.067 364.925 153.414 365.818 152.4 366.378C151.4 366.938 150.314 367.218 149.14 367.218C147.447 367.218 146.034 366.758 144.9 365.838C143.767 364.905 143.2 363.552 143.2 361.778C143.2 360.072 143.727 358.732 144.78 357.758C145.847 356.785 147.214 356.298 148.88 356.298C150.667 356.298 152.047 356.812 153.02 357.838C154.007 358.865 154.5 360.252 154.5 361.998V361.978ZM146.9 360.258H151.12C151.027 359.778 150.78 359.392 150.38 359.098C149.994 358.805 149.554 358.658 149.06 358.658C148.527 358.658 148.06 358.798 147.66 359.078C147.26 359.345 147.007 359.745 146.9 360.278V360.258ZM171.023 356.938L169.803 359.258C169.643 359.178 169.463 359.105 169.263 359.038C169.076 358.972 168.883 358.918 168.683 358.878C168.536 358.852 168.389 358.832 168.243 358.818C168.109 358.792 167.976 358.778 167.843 358.778C167.776 358.778 167.703 358.785 167.623 358.798C167.556 358.798 167.489 358.812 167.423 358.838C167.236 358.878 167.069 358.952 166.923 359.058C166.776 359.152 166.703 359.292 166.703 359.478C166.703 359.705 166.796 359.878 166.983 359.998C167.183 360.105 167.403 360.185 167.643 360.238C167.776 360.278 167.903 360.312 168.023 360.338C168.143 360.352 168.249 360.365 168.343 360.378C169.196 360.552 169.903 360.865 170.463 361.318C171.036 361.772 171.323 362.472 171.323 363.418C171.323 364.725 170.843 365.678 169.883 366.278C168.923 366.865 167.863 367.178 166.703 367.218C166.663 367.218 166.623 367.218 166.583 367.218C166.556 367.218 166.523 367.218 166.483 367.218C165.749 367.218 165.029 367.118 164.323 366.918C163.629 366.718 162.969 366.432 162.343 366.058L163.663 363.498C163.889 363.672 164.149 363.832 164.443 363.978C164.736 364.112 165.036 364.232 165.343 364.338C165.556 364.405 165.763 364.458 165.963 364.498C166.163 364.538 166.356 364.558 166.543 364.558C166.596 364.558 166.649 364.558 166.703 364.558C166.769 364.545 166.836 364.532 166.903 364.518C167.103 364.478 167.283 364.398 167.443 364.278C167.603 364.158 167.683 363.992 167.683 363.778C167.683 363.485 167.543 363.278 167.263 363.158C166.983 363.025 166.649 362.918 166.263 362.838C166.116 362.812 165.969 362.785 165.823 362.758C165.689 362.718 165.549 362.678 165.403 362.638C164.829 362.492 164.303 362.238 163.823 361.878C163.356 361.505 163.123 360.858 163.123 359.938C163.123 358.698 163.583 357.785 164.503 357.198C165.423 356.612 166.429 356.312 167.523 356.298C167.549 356.298 167.569 356.298 167.583 356.298C167.609 356.298 167.629 356.298 167.643 356.298C168.229 356.298 168.803 356.352 169.363 356.458C169.936 356.552 170.489 356.718 171.023 356.958V356.938ZM177.257 359.618V366.878H173.617V359.618H172.437V356.618H173.617V353.538H177.257V356.618H179.317V359.618H177.257ZM180.424 356.618H184.064V362.098C184.064 362.765 184.177 363.305 184.404 363.718C184.644 364.132 185.137 364.338 185.884 364.338C186.63 364.338 187.117 364.132 187.344 363.718C187.584 363.305 187.704 362.772 187.704 362.118V356.618H191.344V362.798C191.344 364.505 190.817 365.672 189.764 366.298C188.724 366.912 187.43 367.218 185.884 367.218C184.35 367.218 183.057 366.912 182.004 366.298C180.95 365.672 180.424 364.512 180.424 362.818V356.618ZM197.667 359.618V366.878H194.027V359.618H192.747V356.618H194.027V355.318C194.027 354.772 194.054 354.265 194.107 353.798C194.161 353.332 194.314 352.878 194.567 352.438C194.634 352.318 194.707 352.205 194.787 352.098C194.867 351.978 194.961 351.858 195.067 351.738C195.521 351.205 196.054 350.798 196.667 350.518C197.294 350.238 197.954 350.098 198.647 350.098C198.927 350.098 199.194 350.125 199.447 350.178C199.701 350.232 199.954 350.325 200.207 350.458V353.578C200.154 353.565 200.094 353.545 200.027 353.518C199.974 353.492 199.914 353.472 199.847 353.458C199.701 353.392 199.554 353.345 199.407 353.318C199.261 353.278 199.101 353.258 198.927 353.258C198.461 353.258 198.134 353.398 197.947 353.678C197.761 353.958 197.667 354.392 197.667 354.978V356.618H200.207V359.618H197.667ZM205.421 359.618V366.878H201.781V359.618H200.501V356.618H201.781V355.318C201.781 354.772 201.808 354.265 201.861 353.798C201.915 353.332 202.068 352.878 202.321 352.438C202.388 352.318 202.461 352.205 202.541 352.098C202.621 351.978 202.715 351.858 202.821 351.738C203.275 351.205 203.808 350.798 204.421 350.518C205.048 350.238 205.708 350.098 206.401 350.098C206.681 350.098 206.948 350.125 207.201 350.178C207.455 350.232 207.708 350.325 207.961 350.458V353.578C207.908 353.565 207.848 353.545 207.781 353.518C207.728 353.492 207.668 353.472 207.601 353.458C207.455 353.392 207.308 353.345 207.161 353.318C207.015 353.278 206.855 353.258 206.681 353.258C206.215 353.258 205.888 353.398 205.701 353.678C205.515 353.958 205.421 354.392 205.421 354.978V356.618H207.961V359.618H205.421Z" fill="#050401"/>
<circle cx="160.221" cy="285.071" r="38.8705" transform="rotate(-31.3515 160.221 285.071)" fill="#2A38B2"/>
<circle cx="154.446" cy="282.542" r="37.8705" transform="rotate(-31.3515 154.446 282.542)" stroke="#050401" stroke-opacity="0.8" stroke-width="2"/>
<circle r="3.20221" transform="matrix(0.853992 -0.520287 -0.520287 -0.853992 136.966 282.12)" stroke="#050401" stroke-opacity="0.8" stroke-width="2"/>
<circle r="3.20221" transform="matrix(0.853992 -0.520287 -0.520287 -0.853992 167.82 262.092)" stroke="#050401" stroke-opacity="0.8" stroke-width="2"/>
<circle r="3.20221" transform="matrix(0.853992 -0.520287 -0.520287 -0.853992 143.412 302.796)" stroke="#050401" stroke-opacity="0.8" stroke-width="2"/>
<circle r="3.20221" transform="matrix(0.853992 -0.520287 -0.520287 -0.853992 174.813 283.665)" stroke="#050401" stroke-opacity="0.8" stroke-width="2"/>
<path d="M149.564 260.298C148.858 259.139 147.057 258.69 145.436 259.678C143.815 260.665 143.388 262.471 144.094 263.63C144.801 264.789 146.601 265.238 148.222 264.25C149.843 263.262 150.27 261.457 149.564 260.298Z" stroke="#050401" stroke-opacity="0.8" stroke-width="2"/>
<circle r="3.20221" transform="matrix(0.853992 -0.520287 -0.520287 -0.853992 165.377 300.485)" stroke="#050401" stroke-opacity="0.8" stroke-width="2"/>
<circle r="3.20221" transform="matrix(0.853992 -0.520287 -0.520287 -0.853992 157.488 279.459)" stroke="#050401" stroke-opacity="0.8" stroke-width="2"/>
<path d="M195.59 290.599C231.877 307.926 259.655 328.445 158.399 297.702C104.184 282.058 29.5752 254.006 124.709 270.674" stroke="#2A38B2" stroke-width="4"/>
<path d="M192.232 290.175C228.649 307.626 256.934 328.647 155.422 297.459C101.075 281.573 24.0958 252.394 119.395 269.548" stroke="#050401" stroke-opacity="0.8" stroke-width="2"/>
<g filter="url(#filter3_d)">
<rect width="164.982" height="148.988" rx="4" transform="matrix(-0.998886 0.047186 0.047186 0.998886 458.051 242.219)" fill="white"/>
</g>
<path opacity="0.2" d="M336.285 357.24V369H332.365V357.24H329.125V353.92H339.525V357.24H336.285ZM343.415 358.74V360.42H343.455C343.802 359.807 344.262 359.353 344.835 359.06C345.422 358.767 346.068 358.62 346.775 358.62L347.475 358.6V362.1C347.422 362.087 347.368 362.067 347.315 362.04C347.275 362.013 347.228 361.993 347.175 361.98C346.975 361.9 346.775 361.847 346.575 361.82C346.375 361.793 346.162 361.78 345.935 361.78C344.922 361.78 344.248 362.08 343.915 362.68C343.582 363.267 343.415 364 343.415 364.88V369H339.775V358.74H343.415ZM360.057 358.74V369H356.417V367.86H356.377C356.084 368.34 355.684 368.7 355.177 368.94C354.671 369.167 354.144 369.293 353.597 369.32C353.544 369.333 353.491 369.34 353.437 369.34C353.384 369.34 353.331 369.34 353.277 369.34C351.757 369.34 350.511 368.8 349.537 367.72C348.577 366.627 348.097 365.347 348.097 363.88C348.097 362.413 348.571 361.14 349.517 360.06C350.477 358.967 351.717 358.42 353.237 358.42C353.304 358.42 353.371 358.42 353.437 358.42C353.504 358.42 353.571 358.427 353.637 358.44C354.157 358.48 354.664 358.613 355.157 358.84C355.664 359.053 356.084 359.36 356.417 359.76V358.74H360.057ZM354.197 361.56C353.464 361.573 352.891 361.813 352.477 362.28C352.064 362.733 351.857 363.273 351.857 363.9C351.857 364.553 352.064 365.1 352.477 365.54C352.891 365.98 353.464 366.2 354.197 366.2C354.944 366.2 355.517 365.98 355.917 365.54C356.331 365.1 356.537 364.553 356.537 363.9C356.537 363.273 356.331 362.733 355.917 362.28C355.517 361.813 354.944 361.58 354.197 361.58V361.56ZM365.05 358.74L367.51 364L369.95 358.74H374.03L368.67 369H366.35L360.97 358.74H365.05ZM385.471 364.1V364.48H377.811C377.811 365.227 378.005 365.8 378.391 366.2C378.778 366.587 379.345 366.78 380.091 366.78C380.478 366.78 380.811 366.707 381.091 366.56C381.385 366.413 381.631 366.173 381.831 365.84L385.331 365.82C385.038 367.047 384.385 367.94 383.371 368.5C382.371 369.06 381.285 369.34 380.111 369.34C378.418 369.34 377.005 368.88 375.871 367.96C374.738 367.027 374.171 365.673 374.171 363.9C374.171 362.193 374.698 360.853 375.751 359.88C376.818 358.907 378.185 358.42 379.851 358.42C381.638 358.42 383.018 358.933 383.991 359.96C384.978 360.987 385.471 362.373 385.471 364.12V364.1ZM377.871 362.38H382.091C381.998 361.9 381.751 361.513 381.351 361.22C380.965 360.927 380.525 360.78 380.031 360.78C379.498 360.78 379.031 360.92 378.631 361.2C378.231 361.467 377.978 361.867 377.871 362.4V362.38ZM390.778 352.4V369H387.138V352.4H390.778ZM396.813 352.4V369H393.173V352.4H396.813ZM402.849 358.74V369H399.209V358.74H402.849ZM401.029 352.76C401.589 352.773 402.069 352.98 402.469 353.38C402.869 353.78 403.069 354.26 403.069 354.82C403.069 355.38 402.869 355.86 402.469 356.26C402.069 356.66 401.589 356.86 401.029 356.86C400.469 356.86 399.989 356.66 399.589 356.26C399.189 355.86 398.989 355.38 398.989 354.82C398.989 354.26 399.189 353.78 399.589 353.38C399.989 352.98 400.469 352.78 401.029 352.78V352.76ZM408.884 358.74V360.06H408.924C409.35 359.447 409.824 359.02 410.344 358.78C410.877 358.54 411.497 358.42 412.204 358.42C413.59 358.42 414.577 358.813 415.164 359.6C415.764 360.387 416.064 361.413 416.064 362.68V369H412.424V364C412.424 363.973 412.424 363.94 412.424 363.9C412.424 363.86 412.424 363.82 412.424 363.78C412.424 363.66 412.424 363.533 412.424 363.4C412.424 363.267 412.417 363.133 412.404 363C412.377 362.587 412.257 362.207 412.044 361.86C411.83 361.5 411.41 361.32 410.784 361.32C410.05 361.32 409.55 361.56 409.284 362.04C409.017 362.507 408.884 363.06 408.884 363.7V369H405.244V358.74H408.884ZM429.726 358.74V368C429.726 370.187 429.206 371.753 428.166 372.7C427.14 373.647 425.68 374.12 423.786 374.12C423.533 374.12 423.266 374.107 422.986 374.08C422.706 374.053 422.426 374.007 422.146 373.94C421.16 373.727 420.24 373.313 419.386 372.7C418.546 372.087 418.066 371.253 417.946 370.2H422.026C422.08 370.387 422.166 370.54 422.286 370.66C422.406 370.793 422.546 370.9 422.706 370.98C422.8 371.033 422.9 371.073 423.006 371.1C423.113 371.14 423.22 371.167 423.326 371.18C423.393 371.193 423.46 371.2 423.526 371.2C423.606 371.213 423.68 371.22 423.746 371.22C424.733 371.22 425.366 370.933 425.646 370.36C425.94 369.8 426.086 369.113 426.086 368.3V367.8C425.62 368.28 425.126 368.633 424.606 368.86C424.1 369.087 423.506 369.2 422.826 369.2C421.333 369.2 420.113 368.7 419.166 367.7C418.233 366.7 417.766 365.46 417.766 363.98C417.766 362.473 418.246 361.173 419.206 360.08C420.18 358.973 421.453 358.42 423.026 358.42C423.626 358.42 424.186 358.533 424.706 358.76C425.24 358.973 425.686 359.333 426.046 359.84L426.086 359.82V358.74H429.726ZM423.866 361.48C423.133 361.493 422.56 361.733 422.146 362.2C421.733 362.653 421.526 363.193 421.526 363.82C421.526 364.473 421.733 365.02 422.146 365.46C422.56 365.9 423.133 366.12 423.866 366.12C424.613 366.12 425.186 365.9 425.586 365.46C426 365.02 426.206 364.473 426.206 363.82C426.206 363.193 426 362.653 425.586 362.2C425.186 361.733 424.613 361.5 423.866 361.5V361.48Z" fill="#050401"/>
<path d="M398.891 333.906C408.615 329.192 416.274 278.521 418.888 253.775C419.883 245.133 372.622 231.778 362.428 235.706C355.006 238.566 345.29 284.149 340.253 312.655C339.438 317.269 341.982 321.804 346.377 323.426C363.786 329.851 390.499 337.974 398.891 333.906Z" fill="#FF7D49"/>
<path d="M389.255 334.655C391.896 333.934 392.067 329.101 391.823 327C389.989 327.45 384.12 327.901 380.085 327C379.499 328.441 380.452 331.053 381.186 332.403C383.02 334.655 385.954 335.555 389.255 334.655Z" stroke="#050401" stroke-width="2"/>
<path d="M347.845 325.614C350.469 325.479 351.734 321.796 351.777 320.117C350.653 319.927 345.636 317.675 342.494 317.023C341.742 318.052 340.637 321.422 340.947 322.438C341.823 323.67 344.564 325.782 347.845 325.614Z" stroke="#050401" stroke-width="2"/>
<path d="M394.142 327.917C403.744 323.25 411.307 273.086 413.888 248.587C414.871 240.032 368.201 226.81 358.134 230.699C350.811 233.528 341.226 278.583 336.248 306.809C335.436 311.417 337.976 315.949 342.365 317.572C359.558 323.928 385.868 331.938 394.142 327.917Z" stroke="#050401" stroke-width="2"/>
<path d="M397.047 224.141C403.116 225.681 402.237 233.894 401.04 238L395.051 235.69C395.85 234.15 395.542 232.56 395.051 231.455C393.853 228.761 383.074 225.681 378.682 226.836C373.859 228.104 374.291 229.916 373.892 230.686L367.903 229.916C368.302 225.296 370.059 217.905 373.892 219.136C378.682 220.676 389.462 222.216 397.047 224.141Z" stroke="#050401" stroke-width="2"/>
<path d="M395.903 249C394.189 260.478 389.989 283.748 386.903 285" stroke="#050401" stroke-width="2"/>
<path d="M371.903 244C369.457 255.245 364.875 278.588 366.111 282" stroke="#050401" stroke-width="2"/>
<path d="M395.903 294L349.903 285" stroke="#050401" stroke-width="2"/>
<path d="M388.903 297L347.903 287" stroke="#050401" stroke-width="2"/>
<defs>
<filter id="filter0_d" x="0" y="1" width="274.385" height="243.504" filterUnits="userSpaceOnUse" color-interpolation-filters="sRGB">
<feFlood flood-opacity="0" result="BackgroundImageFix"/>
<feColorMatrix in="SourceAlpha" type="matrix" values="0 0 0 0 0 0 0 0 0 0 0 0 0 0 0 0 0 0 127 0"/>
<feOffset/>
<feGaussianBlur stdDeviation="20"/>
<feColorMatrix type="matrix" values="0 0 0 0 0.0196078 0 0 0 0 0.0156863 0 0 0 0 0.00392157 0 0 0 0.05 0"/>
<feBlend mode="normal" in2="BackgroundImageFix" result="effect1_dropShadow"/>
<feBlend mode="normal" in="SourceGraphic" in2="effect1_dropShadow" result="shape"/>
</filter>
<filter id="filter1_d" x="236.942" y="0.981201" width="244.722" height="220.843" filterUnits="userSpaceOnUse" color-interpolation-filters="sRGB">
<feFlood flood-opacity="0" result="BackgroundImageFix"/>
<feColorMatrix in="SourceAlpha" type="matrix" values="0 0 0 0 0 0 0 0 0 0 0 0 0 0 0 0 0 0 127 0"/>
<feOffset/>
<feGaussianBlur stdDeviation="20"/>
<feColorMatrix type="matrix" values="0 0 0 0 0.0196078 0 0 0 0 0.0156863 0 0 0 0 0.00392157 0 0 0 0.05 0"/>
<feBlend mode="normal" in2="BackgroundImageFix" result="effect1_dropShadow"/>
<feBlend mode="normal" in="SourceGraphic" in2="effect1_dropShadow" result="shape"/>
</filter>
<filter id="filter2_d" x="19" y="203.896" width="266.821" height="237.208" filterUnits="userSpaceOnUse" color-interpolation-filters="sRGB">
<feFlood flood-opacity="0" result="BackgroundImageFix"/>
<feColorMatrix in="SourceAlpha" type="matrix" values="0 0 0 0 0 0 0 0 0 0 0 0 0 0 0 0 0 0 127 0"/>
<feOffset/>
<feGaussianBlur stdDeviation="20"/>
<feColorMatrix type="matrix" values="0 0 0 0 0.0196078 0 0 0 0 0.0156863 0 0 0 0 0.00392157 0 0 0 0.05 0"/>
<feBlend mode="normal" in2="BackgroundImageFix" result="effect1_dropShadow"/>
<feBlend mode="normal" in="SourceGraphic" in2="effect1_dropShadow" result="shape"/>
</filter>
<filter id="filter3_d" x="253.253" y="202.219" width="251.828" height="236.607" filterUnits="userSpaceOnUse" color-interpolation-filters="sRGB">
<feFlood flood-opacity="0" result="BackgroundImageFix"/>
<feColorMatrix in="SourceAlpha" type="matrix" values="0 0 0 0 0 0 0 0 0 0 0 0 0 0 0 0 0 0 127 0"/>
<feOffset/>
<feGaussianBlur stdDeviation="20"/>
<feColorMatrix type="matrix" values="0 0 0 0 0.0196078 0 0 0 0 0.0156863 0 0 0 0 0.00392157 0 0 0 0.05 0"/>
<feBlend mode="normal" in2="BackgroundImageFix" result="effect1_dropShadow"/>
<feBlend mode="normal" in="SourceGraphic" in2="effect1_dropShadow" result="shape"/>
</filter>
</defs>
</svg>
