<svg width="500" height="442" viewBox="0 0 500 442" fill="none" xmlns="http://www.w3.org/2000/svg">
<g filter="url(#filter0_d)">
<rect x="40.1064" y="60.75" width="174.621" height="137.262" rx="4" transform="rotate(-6.07708 40.1064 60.75)" fill="white"/>
</g>
<path opacity="0.2" d="M99.5216 155.558H102.482V161.238C101.722 161.812 100.842 162.252 99.8416 162.558C98.8416 162.865 97.8349 163.018 96.8216 163.018C95.3683 163.018 94.0616 162.712 92.9016 162.098C91.7416 161.472 90.8283 160.612 90.1616 159.518C89.5083 158.412 89.1816 157.165 89.1816 155.778C89.1816 154.392 89.5083 153.152 90.1616 152.058C90.8283 150.952 91.7483 150.092 92.9216 149.478C94.0949 148.852 95.4149 148.538 96.8816 148.538C98.1083 148.538 99.2216 148.745 100.222 149.158C101.222 149.572 102.062 150.172 102.742 150.958L100.662 152.878C99.6616 151.825 98.4549 151.298 97.0416 151.298C96.1483 151.298 95.3549 151.485 94.6616 151.858C93.9683 152.232 93.4283 152.758 93.0416 153.438C92.6549 154.118 92.4616 154.898 92.4616 155.778C92.4616 156.645 92.6549 157.418 93.0416 158.098C93.4283 158.778 93.9616 159.312 94.6416 159.698C95.3349 160.072 96.1216 160.258 97.0016 160.258C97.9349 160.258 98.7749 160.058 99.5216 159.658V155.558ZM109.611 151.858C111.278 151.858 112.558 152.258 113.451 153.058C114.345 153.845 114.791 155.038 114.791 156.638V162.778H111.871V161.438C111.285 162.438 110.191 162.938 108.591 162.938C107.765 162.938 107.045 162.798 106.431 162.518C105.831 162.238 105.371 161.852 105.051 161.358C104.731 160.865 104.571 160.305 104.571 159.678C104.571 158.678 104.945 157.892 105.691 157.318C106.451 156.745 107.618 156.458 109.191 156.458H111.671C111.671 155.778 111.465 155.258 111.051 154.898C110.638 154.525 110.018 154.338 109.191 154.338C108.618 154.338 108.051 154.432 107.491 154.618C106.945 154.792 106.478 155.032 106.091 155.338L104.971 153.158C105.558 152.745 106.258 152.425 107.071 152.198C107.898 151.972 108.745 151.858 109.611 151.858ZM109.371 160.838C109.905 160.838 110.378 160.718 110.791 160.478C111.205 160.225 111.498 159.858 111.671 159.378V158.278H109.531C108.251 158.278 107.611 158.698 107.611 159.538C107.611 159.938 107.765 160.258 108.071 160.498C108.391 160.725 108.825 160.838 109.371 160.838ZM131.395 151.858C132.742 151.858 133.808 152.258 134.595 153.058C135.395 153.845 135.795 155.032 135.795 156.618V162.778H132.675V157.098C132.675 156.245 132.495 155.612 132.135 155.198C131.788 154.772 131.288 154.558 130.635 154.558C129.902 154.558 129.322 154.798 128.895 155.278C128.468 155.745 128.255 156.445 128.255 157.378V162.778H125.135V157.098C125.135 155.405 124.455 154.558 123.095 154.558C122.375 154.558 121.802 154.798 121.375 155.278C120.948 155.745 120.735 156.445 120.735 157.378V162.778H117.615V152.018H120.595V153.258C120.995 152.805 121.482 152.458 122.055 152.218C122.642 151.978 123.282 151.858 123.975 151.858C124.735 151.858 125.422 152.012 126.035 152.318C126.648 152.612 127.142 153.045 127.515 153.618C127.955 153.058 128.508 152.625 129.175 152.318C129.855 152.012 130.595 151.858 131.395 151.858ZM138.592 152.018H141.712V162.778H138.592V152.018ZM140.152 150.518C139.578 150.518 139.112 150.352 138.752 150.018C138.392 149.685 138.212 149.272 138.212 148.778C138.212 148.285 138.392 147.872 138.752 147.538C139.112 147.205 139.578 147.038 140.152 147.038C140.725 147.038 141.192 147.198 141.552 147.518C141.912 147.838 142.092 148.238 142.092 148.718C142.092 149.238 141.912 149.672 141.552 150.018C141.192 150.352 140.725 150.518 140.152 150.518ZM151.147 151.858C152.481 151.858 153.554 152.258 154.367 153.058C155.194 153.858 155.607 155.045 155.607 156.618V162.778H152.487V157.098C152.487 156.245 152.301 155.612 151.927 155.198C151.554 154.772 151.014 154.558 150.307 154.558C149.521 154.558 148.894 154.805 148.427 155.298C147.961 155.778 147.727 156.498 147.727 157.458V162.778H144.607V152.018H147.587V153.278C148.001 152.825 148.514 152.478 149.127 152.238C149.741 151.985 150.414 151.858 151.147 151.858ZM169.653 152.018V160.978C169.653 162.952 169.139 164.418 168.113 165.378C167.086 166.338 165.586 166.818 163.613 166.818C162.573 166.818 161.586 166.692 160.653 166.438C159.719 166.185 158.946 165.818 158.333 165.338L159.573 163.098C160.026 163.472 160.599 163.765 161.293 163.978C161.986 164.205 162.679 164.318 163.373 164.318C164.453 164.318 165.246 164.072 165.753 163.578C166.273 163.098 166.533 162.365 166.533 161.378V160.918C165.719 161.812 164.586 162.258 163.133 162.258C162.146 162.258 161.239 162.045 160.413 161.618C159.599 161.178 158.953 160.565 158.473 159.778C157.993 158.992 157.753 158.085 157.753 157.058C157.753 156.032 157.993 155.125 158.473 154.338C158.953 153.552 159.599 152.945 160.413 152.518C161.239 152.078 162.146 151.858 163.133 151.858C164.693 151.858 165.879 152.372 166.693 153.398V152.018H169.653ZM163.753 159.698C164.579 159.698 165.253 159.458 165.773 158.978C166.306 158.485 166.573 157.845 166.573 157.058C166.573 156.272 166.306 155.638 165.773 155.158C165.253 154.665 164.579 154.418 163.753 154.418C162.926 154.418 162.246 154.665 161.713 155.158C161.179 155.638 160.913 156.272 160.913 157.058C160.913 157.845 161.179 158.485 161.713 158.978C162.246 159.458 162.926 159.698 163.753 159.698Z" fill="#050401"/>
<path d="M116.288 54.3904C94.9543 44.6849 78.7744 82.9575 73.3511 103.307C70.4589 117.746 83.7076 116.166 91.2359 112.881C103.193 107.663 109.697 99.4033 113.732 97.4157C121.758 102.538 140.079 104.424 148.235 104.726C152.858 111.91 161.297 126.275 162.728 127.201C174.937 142.109 181.919 129.581 183.301 121.336C190.496 67.2576 169.053 65.359 166.41 64.4302C163.564 63.4299 142.405 63.2167 137.743 62.2827C134.013 61.5356 121.886 56.7099 116.288 54.3904Z" fill="#69DC9E"/>
<path d="M113.08 48.6772C91.9464 39.0117 75.8395 77.299 70.4278 97.6508C67.5355 112.09 80.6732 110.487 88.1425 107.19C100.006 101.954 106.468 93.6859 110.472 91.692C118.421 96.7991 136.58 98.6525 144.667 98.9409C149.238 106.114 157.579 120.46 158.996 121.383C171.075 136.264 178.018 123.729 179.403 115.485C186.629 61.4123 165.373 59.5512 162.755 58.6273C159.935 57.6323 138.958 57.4555 134.337 56.5299C130.641 55.7894 118.626 50.9862 113.08 48.6772Z" stroke="#050401" stroke-opacity="0.8" stroke-width="2"/>
<path d="M110.272 62.6706C109.867 64.8373 109.346 67.5997 109.061 69.1186C108.958 69.6622 108.435 70.0188 107.891 69.9169L101.605 68.7375C101.061 68.6355 100.538 68.9942 100.437 69.538L99.8473 72.7182C99.7467 73.2604 100.104 73.7817 100.646 73.8834L106.939 75.0638C107.482 75.1657 107.839 75.6883 107.737 76.2311L106.597 82.3089C106.495 82.8525 106.854 83.3757 107.397 83.4766L110.523 84.0563C111.065 84.1569 111.587 83.7995 111.688 83.2575L112.83 77.1755C112.932 76.6327 113.454 76.2753 113.997 76.3771L120.286 77.5568C120.829 77.6588 121.353 77.3001 121.453 76.7563L122.043 73.5762C122.144 73.034 121.786 72.5126 121.244 72.411L114.952 71.2305C114.409 71.1287 114.051 70.6061 114.153 70.0633L115.362 63.6178C115.464 63.0742 115.105 62.551 114.561 62.4502L111.438 61.8708C110.894 61.7701 110.373 62.1277 110.272 62.6706Z" stroke="#050401" stroke-opacity="0.8" stroke-width="2"/>
<circle r="3.4743" transform="matrix(-0.980523 -0.196406 -0.196406 0.980523 159.111 74.6744)" stroke="#050401" stroke-opacity="0.8" stroke-width="2"/>
<circle r="3.4743" transform="matrix(-0.980523 -0.196406 -0.196406 0.980523 165.823 84.6148)" stroke="#050401" stroke-opacity="0.8" stroke-width="2"/>
<circle r="3.4743" transform="matrix(-0.980523 -0.196406 -0.196406 0.980523 149.25 81.2945)" stroke="#050401" stroke-opacity="0.8" stroke-width="2"/>
<circle r="3.4743" transform="matrix(-0.980523 -0.196406 -0.196406 0.980523 156.036 90.8521)" stroke="#050401" stroke-opacity="0.8" stroke-width="2"/>
<g filter="url(#filter1_d)">
<rect x="273.348" y="40.9814" width="162.34" height="138.034" rx="4" transform="rotate(0.99898 273.348 40.9814)" fill="white"/>
</g>
<path opacity="0.2" d="M326.56 155.231L323.852 151.337L323.692 151.337L320.872 151.343L320.88 155.243L317.64 155.25L317.611 141.25L323.671 141.237C324.911 141.235 325.985 141.439 326.892 141.851C327.813 142.262 328.521 142.847 329.016 143.606C329.511 144.365 329.759 145.265 329.761 146.305C329.763 147.345 329.512 148.245 329.007 149.006C328.515 149.754 327.81 150.329 326.89 150.731L330.04 155.224L326.56 155.231ZM326.481 146.311C326.48 145.525 326.225 144.925 325.718 144.513C325.21 144.087 324.47 143.876 323.496 143.878L320.856 143.883L320.866 148.763L323.506 148.758C324.48 148.756 325.219 148.541 325.725 148.113C326.231 147.685 326.483 147.085 326.481 146.311ZM342.656 149.858C342.656 149.898 342.636 150.178 342.597 150.698L334.457 150.715C334.606 151.381 334.953 151.907 335.501 152.293C336.048 152.678 336.729 152.87 337.542 152.869C338.102 152.867 338.595 152.786 339.021 152.625C339.461 152.451 339.867 152.184 340.24 151.823L341.904 153.619C340.893 154.782 339.414 155.365 337.467 155.369C336.254 155.371 335.18 155.14 334.246 154.675C333.311 154.197 332.59 153.539 332.082 152.7C331.573 151.861 331.318 150.908 331.316 149.841C331.313 148.788 331.558 147.841 332.05 147C332.555 146.145 333.24 145.484 334.106 145.016C334.985 144.534 335.964 144.292 337.044 144.29C338.098 144.287 339.051 144.512 339.906 144.964C340.76 145.415 341.428 146.067 341.91 146.919C342.405 147.758 342.653 148.738 342.656 149.858ZM337.069 146.649C336.362 146.651 335.769 146.852 335.29 147.253C334.811 147.654 334.519 148.201 334.414 148.895L339.714 148.884C339.606 148.204 339.311 147.665 338.83 147.266C338.349 146.854 337.762 146.648 337.069 146.649ZM348.768 144.265C350.435 144.262 351.716 144.659 352.611 145.457C353.506 146.242 353.955 147.435 353.958 149.035L353.971 155.175L351.051 155.181L351.048 153.841C350.464 154.842 349.371 155.344 347.771 155.347C346.945 155.349 346.224 155.211 345.61 154.932C345.01 154.653 344.549 154.267 344.228 153.775C343.907 153.282 343.746 152.722 343.745 152.096C343.743 151.096 344.114 150.308 344.86 149.733C345.618 149.158 346.785 148.869 348.358 148.866L350.838 148.861C350.836 148.181 350.629 147.661 350.215 147.302C349.801 146.93 349.18 146.744 348.354 146.746C347.78 146.747 347.214 146.842 346.654 147.03C346.108 147.204 345.642 147.445 345.256 147.753L344.131 145.575C344.717 145.16 345.416 144.839 346.229 144.611C347.055 144.382 347.902 144.267 348.768 144.265ZM348.547 153.246C349.08 153.245 349.553 153.124 349.966 152.883C350.379 152.629 350.672 152.261 350.844 151.781L350.842 150.681L348.702 150.685C347.422 150.688 346.783 151.109 346.784 151.949C346.785 152.349 346.939 152.669 347.246 152.908C347.567 153.134 348 153.247 348.547 153.246ZM367.841 140.306L367.872 155.146L364.892 155.152L364.889 153.912C364.118 154.847 362.999 155.316 361.532 155.319C360.519 155.321 359.598 155.096 358.771 154.645C357.957 154.193 357.315 153.548 356.847 152.709C356.378 151.87 356.143 150.897 356.141 149.79C356.138 148.683 356.37 147.71 356.835 146.869C357.3 146.028 357.938 145.38 358.751 144.925C359.576 144.47 360.496 144.241 361.509 144.239C362.883 144.236 363.957 144.667 364.732 145.532L364.721 140.312L367.841 140.306ZM362.067 152.758C362.854 152.756 363.506 152.488 364.025 151.954C364.544 151.406 364.803 150.679 364.801 149.772C364.799 148.865 364.537 148.146 364.016 147.614C363.495 147.068 362.841 146.796 362.055 146.798C361.255 146.799 360.595 147.074 360.076 147.622C359.557 148.156 359.299 148.877 359.301 149.783C359.303 150.69 359.564 151.416 360.085 151.962C360.606 152.494 361.267 152.759 362.067 152.758ZM370.737 144.38L373.857 144.373L373.88 155.133L370.76 155.14L370.737 144.38ZM372.294 142.877C371.721 142.878 371.254 142.712 370.893 142.379C370.532 142.047 370.352 141.634 370.351 141.141C370.35 140.647 370.529 140.234 370.888 139.899C371.247 139.565 371.714 139.398 372.287 139.397C372.86 139.395 373.327 139.554 373.688 139.874C374.049 140.193 374.229 140.593 374.23 141.073C374.231 141.593 374.052 142.026 373.693 142.374C373.334 142.708 372.867 142.875 372.294 142.877ZM383.293 144.194C384.626 144.191 385.7 144.589 386.515 145.387C387.343 146.185 387.759 147.371 387.762 148.945L387.775 155.105L384.655 155.111L384.643 149.431C384.642 148.578 384.454 147.945 384.079 147.532C383.705 147.106 383.165 146.894 382.458 146.896C381.671 146.897 381.045 147.145 380.58 147.639C380.114 148.12 379.882 148.841 379.884 149.801L379.895 155.121L376.775 155.127L376.753 144.367L379.733 144.361L379.735 145.621C380.148 145.167 380.66 144.819 381.273 144.578C381.886 144.323 382.559 144.195 383.293 144.194ZM401.798 144.316L401.817 153.276C401.821 155.249 401.31 156.717 400.286 157.679C399.261 158.641 397.762 159.124 395.789 159.128C394.749 159.13 393.762 159.006 392.828 158.754C391.894 158.503 391.12 158.138 390.506 157.659L391.741 155.416C392.195 155.789 392.769 156.081 393.463 156.293C394.157 156.518 394.85 156.63 395.544 156.629C396.624 156.626 397.416 156.378 397.922 155.884C398.441 155.403 398.7 154.669 398.698 153.682L398.697 153.222C397.885 154.117 396.753 154.566 395.299 154.569C394.313 154.571 393.406 154.36 392.578 153.935C391.764 153.496 391.116 152.884 390.634 152.099C390.153 151.313 389.911 150.407 389.909 149.38C389.906 148.353 390.145 147.446 390.623 146.659C391.101 145.871 391.747 145.263 392.559 144.835C393.385 144.393 394.291 144.171 395.278 144.169C396.838 144.166 398.026 144.677 398.841 145.702L398.838 144.322L401.798 144.316ZM395.914 152.008C396.741 152.006 397.414 151.765 397.933 151.284C398.465 150.789 398.73 150.149 398.729 149.362C398.727 148.575 398.459 147.942 397.925 147.464C397.404 146.971 396.73 146.726 395.903 146.728C395.076 146.729 394.397 146.978 393.865 147.472C393.332 147.953 393.067 148.587 393.069 149.374C393.07 150.16 393.338 150.8 393.873 151.292C394.407 151.771 395.087 152.009 395.914 152.008Z" fill="#050401"/>
<path d="M315.379 103.245C316.935 81.9856 309.283 56.3874 305.263 46.2457C334.833 44.397 349.229 53.4347 352.73 58.1847C351.563 59.0833 350.085 61.1116 353.508 62.0359C356.932 62.9602 365.31 62.4211 369.072 62.0359C372.184 61.4197 371.665 59.2117 371.017 58.1847C375.063 49.8659 404.867 46.7592 419.263 46.2457C413.349 50.251 409.017 85.9139 407.59 103.245C396.385 103.245 381.133 107.353 374.908 109.407C364.325 117.726 353.898 112.873 350.007 109.407C336 103.553 321.085 102.86 315.379 103.245Z" fill="#2A38B2"/>
<path d="M342.263 99C339.181 97.1424 329.465 93.5511 315.263 94.0464" stroke="#050401" stroke-opacity="0.8" stroke-width="2"/>
<path d="M341.263 55C335.869 51.8619 321.119 45.6713 305.263 46.0136" stroke="#050401" stroke-opacity="0.8" stroke-width="2"/>
<path d="M374.263 99C376.502 96.8195 384.636 92.8322 399.263 94.3274" stroke="#050401" stroke-opacity="0.8" stroke-width="2"/>
<path d="M372.263 55C379.189 51.2633 395.685 44.3074 406.263 46.3769" stroke="#050401" stroke-opacity="0.8" stroke-width="2"/>
<path d="M353.263 103C354.682 103.755 358.869 104.811 364.263 103" stroke="#050401" stroke-opacity="0.8" stroke-width="2"/>
<path d="M350.263 67C352.985 67.7546 359.596 68.8111 364.263 67" stroke="#050401" stroke-opacity="0.8" stroke-width="2"/>
<path d="M350.263 55C342.494 40.4594 315.692 37.6321 303.263 38.036V40.8633" stroke="#050401" stroke-opacity="0.8" stroke-width="2"/>
<path d="M353.263 54C345.466 39.593 319.737 35.6268 307.263 36.027V38.3924" stroke="#050401" stroke-opacity="0.8" stroke-width="2"/>
<path d="M356.263 54C348.335 39.7358 325.344 33 312.263 33V36.5661" stroke="#050401" stroke-opacity="0.8" stroke-width="2"/>
<path d="M362.263 55C370.197 40.4594 397.568 37.6321 410.263 38.036V41.6711" stroke="#050401" stroke-opacity="0.8" stroke-width="2"/>
<path d="M406.263 37.027C393.517 36.6268 367.229 40.593 359.263 55" stroke="#050401" stroke-opacity="0.8" stroke-width="2"/>
<path d="M358.263 55C365.83 40.7358 387.776 34 400.263 34V37.5661" stroke="#050401" stroke-opacity="0.8" stroke-width="2"/>
<path d="M311.379 98.9284C312.935 77.044 305.283 50.6929 301.263 40.2529C330.833 38.3499 345.229 47.6534 348.73 52.543C347.563 53.4681 346.085 55.5561 349.508 56.5076C352.932 57.4591 361.31 56.904 365.072 56.5076C368.184 55.8733 367.665 53.6002 367.017 52.543C371.063 43.9796 400.867 40.7815 415.263 40.2529C409.349 44.376 405.017 81.0879 403.59 98.9284C392.385 98.9284 377.133 103.157 370.908 105.272C360.325 113.835 349.898 108.84 346.007 105.272C332 99.2455 317.085 98.5319 311.379 98.9284Z" stroke="#050401" stroke-opacity="0.8" stroke-width="2"/>
<path d="M345.263 60C345.263 80.3273 348.263 95.1818 348.263 103" stroke="#050401" stroke-opacity="0.8" stroke-width="2"/>
<path d="M367.263 60C366.508 74.0177 365.452 102.442 367.263 104" stroke="#050401" stroke-opacity="0.8" stroke-width="2"/>
<g filter="url(#filter2_d)">
<rect width="180.259" height="155.016" rx="4" transform="matrix(-0.999364 -0.0356672 -0.0356672 0.999364 244.895 246.411)" fill="white"/>
</g>
<path d="M172.158 273.17C164.877 271.134 160.132 271.147 155.822 262.81C147.292 246.299 139.734 236.588 121.516 239.186C98.2349 242.502 99.4851 264.955 99.4851 264.955L104.729 324.905C105.094 327.998 108.442 332.707 111.452 332.353L202.725 321.603C205.733 321.249 207.825 315.961 207.932 312.85C208.37 300.147 207.674 272.937 185.702 274.385C180.182 274.744 175.711 274.167 172.158 273.17ZM201.542 309.286C201.789 311.732 200.028 313.925 197.587 314.212L109.151 324.628L107.301 306.236L112.656 305.605L114.459 320.912L120.228 320.232L118.425 304.926L123.161 304.368L124.963 319.674L130.732 318.995L128.929 303.689L133.665 303.131L135.468 318.437L141.235 317.758L139.432 302.452L144.17 301.894L145.972 317.2L151.74 316.521L149.937 301.214L154.677 300.656L156.48 315.962L162.247 315.283L160.445 299.977L165.181 299.419L166.983 314.725L172.751 314.046L170.948 298.74L175.687 298.182L177.489 313.488L183.254 312.809L181.451 297.503L186.19 296.945L187.992 312.251L193.762 311.571L191.96 296.265L200.13 295.303L201.542 309.286Z" fill="#FFD046"/>
<path d="M126.533 275.394C128.07 276.087 129.224 274.947 129.608 274.29L128.202 265.841L117.968 267.545L119.47 276.57C118.941 277.25 117.48 278.323 115.866 277.169" stroke="#050401" stroke-width="2" stroke-linecap="round"/>
<path d="M135.385 264.646L136.79 273.095C136.406 273.752 135.253 274.892 133.715 274.199" stroke="#050401" stroke-width="2" stroke-linecap="round"/>
<path d="M169.714 273.087C173.376 274.078 177.955 274.635 183.577 274.262L183.578 274.262C188.828 273.909 192.763 275.368 195.749 277.889C198.76 280.431 200.876 284.116 202.337 288.315C205.264 296.729 205.456 306.903 205.219 313.063C205.123 315.567 202.825 317.931 200.269 318.232L108.996 328.982C106.539 329.271 104.306 327.512 104.01 325.052L98.0477 263.187L98.0466 263.158C98.0453 263.122 98.0435 263.067 98.0422 262.993C98.0394 262.844 98.0381 262.621 98.0444 262.333C98.0569 261.756 98.0998 260.922 98.2218 259.907C98.4664 257.875 99.0265 255.139 100.283 252.313C102.774 246.711 108.028 240.668 119.291 239.071L119.291 239.071C128.187 237.808 134.337 239.487 139.303 243.336C144.335 247.236 148.252 253.435 152.489 261.465L152.489 261.465C154.707 265.666 157.167 268.108 160.063 269.737C162.66 271.197 165.579 271.979 168.799 272.841C169.101 272.922 169.406 273.004 169.714 273.087ZM169.714 273.087L169.976 272.121M169.714 273.087C169.715 273.087 169.715 273.087 169.715 273.087L169.976 272.121M169.976 272.121C169.673 272.04 169.375 271.96 169.08 271.881C162.285 270.06 157.478 268.772 153.374 260.998M169.976 272.121C173.524 273.082 177.992 273.631 183.511 273.264C205.48 271.787 206.694 300.722 206.219 313.102C206.102 316.134 203.394 318.871 200.386 319.225L109.113 329.975C106.103 330.329 103.371 328.173 103.016 325.159L153.374 260.998M153.374 260.998C144.896 244.934 137.37 235.494 119.151 238.08L153.374 260.998ZM201.267 313.832L201.156 312.831L201.142 312.833L198.864 293.487L198.747 292.494L197.753 292.611L189.583 293.574L188.59 293.691L188.707 294.684L190.346 308.6L186.563 309.046L184.924 295.129L184.807 294.136L183.813 294.253L179.075 294.811L178.082 294.928L178.199 295.921L179.838 309.838L176.06 310.283L174.421 296.366L174.304 295.373L173.311 295.49L168.572 296.048L167.579 296.165L167.696 297.158L169.335 311.075L165.554 311.52L163.915 297.604L163.798 296.611L162.805 296.727L158.069 297.285L157.075 297.402L157.192 298.395L158.831 312.312L155.05 312.757L153.411 298.841L153.294 297.848L152.301 297.965L147.561 298.523L146.568 298.64L146.685 299.633L148.324 313.55L144.543 313.995L142.904 300.078L142.787 299.085L141.794 299.202L137.056 299.76L136.063 299.877L136.18 300.87L137.819 314.787L134.038 315.232L132.399 301.315L132.282 300.322L131.289 300.439L126.553 300.997L125.56 301.114L125.677 302.107L127.316 316.024L123.534 316.469L121.895 302.553L121.778 301.559L120.785 301.676L116.049 302.234L115.056 302.351L115.173 303.344L116.812 317.261L113.029 317.706L111.39 303.79L111.273 302.797L110.28 302.914L104.925 303.544L103.932 303.661L104.049 304.654L106.444 324.993L106.561 325.986L107.554 325.869L200.39 314.935L200.387 314.911L201.374 314.799L201.373 314.791L201.267 313.832Z" stroke="#050401" stroke-opacity="0.8" stroke-width="2"/>
<path opacity="0.2" d="M101.45 367.378L99.5697 369.338V372.878H96.3497V358.878H99.5697V365.418L105.77 358.878H109.37L103.57 365.118L109.71 372.878H105.93L101.45 367.378ZM121.025 367.538C121.025 367.578 121.005 367.858 120.965 368.378H112.825C112.972 369.045 113.318 369.571 113.865 369.958C114.412 370.345 115.092 370.538 115.905 370.538C116.465 370.538 116.958 370.458 117.385 370.298C117.825 370.125 118.232 369.858 118.605 369.498L120.265 371.298C119.252 372.458 117.772 373.038 115.825 373.038C114.612 373.038 113.538 372.805 112.605 372.338C111.672 371.858 110.952 371.198 110.445 370.358C109.938 369.518 109.685 368.565 109.685 367.498C109.685 366.445 109.932 365.498 110.425 364.658C110.932 363.805 111.618 363.145 112.485 362.678C113.365 362.198 114.345 361.958 115.425 361.958C116.478 361.958 117.432 362.185 118.285 362.638C119.138 363.091 119.805 363.745 120.285 364.598C120.779 365.438 121.025 366.418 121.025 367.538ZM115.445 364.318C114.738 364.318 114.145 364.518 113.665 364.918C113.185 365.318 112.892 365.865 112.785 366.558H118.085C117.978 365.878 117.685 365.338 117.205 364.938C116.725 364.525 116.138 364.318 115.445 364.318ZM133.587 362.118L128.727 373.538C128.234 374.778 127.62 375.651 126.887 376.158C126.167 376.665 125.294 376.918 124.267 376.918C123.707 376.918 123.154 376.831 122.607 376.658C122.06 376.485 121.614 376.245 121.267 375.938L122.407 373.718C122.647 373.931 122.92 374.098 123.227 374.218C123.547 374.338 123.86 374.398 124.167 374.398C124.594 374.398 124.94 374.291 125.207 374.078C125.474 373.878 125.714 373.538 125.927 373.058L125.967 372.958L121.307 362.118H124.527L127.547 369.418L130.587 362.118H133.587ZM141.22 361.958C142.22 361.958 143.127 362.191 143.94 362.658C144.767 363.111 145.413 363.758 145.88 364.598C146.347 365.425 146.58 366.391 146.58 367.498C146.58 368.605 146.347 369.578 145.88 370.418C145.413 371.245 144.767 371.891 143.94 372.358C143.127 372.811 142.22 373.038 141.22 373.038C139.74 373.038 138.613 372.571 137.84 371.638V372.878H134.86V358.038H137.98V363.258C138.767 362.391 139.847 361.958 141.22 361.958ZM140.68 370.478C141.48 370.478 142.133 370.211 142.64 369.678C143.16 369.131 143.42 368.405 143.42 367.498C143.42 366.591 143.16 365.871 142.64 365.338C142.133 364.791 141.48 364.518 140.68 364.518C139.88 364.518 139.22 364.791 138.7 365.338C138.193 365.871 137.94 366.591 137.94 367.498C137.94 368.405 138.193 369.131 138.7 369.678C139.22 370.211 139.88 370.478 140.68 370.478ZM153.789 373.038C152.655 373.038 151.635 372.805 150.729 372.338C149.835 371.858 149.135 371.198 148.629 370.358C148.122 369.518 147.869 368.565 147.869 367.498C147.869 366.431 148.122 365.478 148.629 364.638C149.135 363.798 149.835 363.145 150.729 362.678C151.635 362.198 152.655 361.958 153.789 361.958C154.922 361.958 155.935 362.198 156.829 362.678C157.722 363.145 158.422 363.798 158.929 364.638C159.435 365.478 159.689 366.431 159.689 367.498C159.689 368.565 159.435 369.518 158.929 370.358C158.422 371.198 157.722 371.858 156.829 372.338C155.935 372.805 154.922 373.038 153.789 373.038ZM153.789 370.478C154.589 370.478 155.242 370.211 155.749 369.678C156.269 369.131 156.529 368.405 156.529 367.498C156.529 366.591 156.269 365.871 155.749 365.338C155.242 364.791 154.589 364.518 153.789 364.518C152.989 364.518 152.329 364.791 151.809 365.338C151.289 365.871 151.029 366.591 151.029 367.498C151.029 368.405 151.289 369.131 151.809 369.678C152.329 370.211 152.989 370.478 153.789 370.478ZM165.938 361.958C167.605 361.958 168.885 362.358 169.778 363.158C170.672 363.945 171.118 365.138 171.118 366.738V372.878H168.198V371.538C167.612 372.538 166.518 373.038 164.918 373.038C164.092 373.038 163.372 372.898 162.758 372.618C162.158 372.338 161.698 371.951 161.378 371.458C161.058 370.965 160.898 370.405 160.898 369.778C160.898 368.778 161.272 367.991 162.018 367.418C162.778 366.845 163.945 366.558 165.518 366.558H167.998C167.998 365.878 167.792 365.358 167.378 364.998C166.965 364.625 166.345 364.438 165.518 364.438C164.945 364.438 164.378 364.531 163.818 364.718C163.272 364.891 162.805 365.131 162.418 365.438L161.298 363.258C161.885 362.845 162.585 362.525 163.398 362.298C164.225 362.071 165.072 361.958 165.938 361.958ZM165.698 370.938C166.232 370.938 166.705 370.818 167.118 370.578C167.532 370.325 167.825 369.958 167.998 369.478V368.378H165.858C164.578 368.378 163.938 368.798 163.938 369.638C163.938 370.038 164.092 370.358 164.398 370.598C164.718 370.825 165.152 370.938 165.698 370.938ZM176.922 363.538C177.296 363.018 177.796 362.625 178.422 362.358C179.062 362.091 179.796 361.958 180.622 361.958V364.838C180.276 364.811 180.042 364.798 179.922 364.798C179.029 364.798 178.329 365.051 177.822 365.558C177.316 366.051 177.062 366.798 177.062 367.798V372.878H173.942V362.118H176.922V363.538ZM193.34 358.038V372.878H190.36V371.638C189.586 372.571 188.466 373.038 187 373.038C185.986 373.038 185.066 372.811 184.24 372.358C183.426 371.905 182.786 371.258 182.32 370.418C181.853 369.578 181.62 368.605 181.62 367.498C181.62 366.391 181.853 365.418 182.32 364.578C182.786 363.738 183.426 363.091 184.24 362.638C185.066 362.185 185.986 361.958 187 361.958C188.373 361.958 189.446 362.391 190.22 363.258V358.038H193.34ZM187.54 370.478C188.326 370.478 188.98 370.211 189.5 369.678C190.02 369.131 190.28 368.405 190.28 367.498C190.28 366.591 190.02 365.871 189.5 365.338C188.98 364.791 188.326 364.518 187.54 364.518C186.74 364.518 186.08 364.791 185.56 365.338C185.04 365.871 184.78 366.591 184.78 367.498C184.78 368.405 185.04 369.131 185.56 369.678C186.08 370.211 186.74 370.478 187.54 370.478Z" fill="#050401"/>
<g filter="url(#filter3_d)">
<rect width="164.982" height="148.988" rx="4" transform="matrix(-0.998886 0.047186 0.047186 0.998886 452.051 242.219)" fill="white"/>
</g>
<path opacity="0.2" d="M326.949 360.64H322.469V358H334.669V360.64H330.189V372H326.949V360.64ZM338.938 362.66C339.312 362.14 339.812 361.747 340.438 361.48C341.078 361.213 341.812 361.08 342.638 361.08V363.96C342.292 363.933 342.058 363.92 341.938 363.92C341.045 363.92 340.345 364.173 339.838 364.68C339.332 365.173 339.078 365.92 339.078 366.92V372H335.958V361.24H338.938V362.66ZM348.775 361.08C350.442 361.08 351.722 361.48 352.615 362.28C353.508 363.067 353.955 364.26 353.955 365.86V372H351.035V370.66C350.448 371.66 349.355 372.16 347.755 372.16C346.928 372.16 346.208 372.02 345.595 371.74C344.995 371.46 344.535 371.073 344.215 370.58C343.895 370.087 343.735 369.527 343.735 368.9C343.735 367.9 344.108 367.113 344.855 366.54C345.615 365.967 346.782 365.68 348.355 365.68H350.835C350.835 365 350.628 364.48 350.215 364.12C349.802 363.747 349.182 363.56 348.355 363.56C347.782 363.56 347.215 363.653 346.655 363.84C346.108 364.013 345.642 364.253 345.255 364.56L344.135 362.38C344.722 361.967 345.422 361.647 346.235 361.42C347.062 361.193 347.908 361.08 348.775 361.08ZM348.535 370.06C349.068 370.06 349.542 369.94 349.955 369.7C350.368 369.447 350.662 369.08 350.835 368.6V367.5H348.695C347.415 367.5 346.775 367.92 346.775 368.76C346.775 369.16 346.928 369.48 347.235 369.72C347.555 369.947 347.988 370.06 348.535 370.06ZM367.263 361.24L362.723 372H359.503L354.983 361.24H358.203L361.183 368.56L364.263 361.24H367.263ZM378.783 366.66C378.783 366.7 378.763 366.98 378.723 367.5H370.583C370.73 368.167 371.077 368.693 371.623 369.08C372.17 369.467 372.85 369.66 373.663 369.66C374.223 369.66 374.717 369.58 375.143 369.42C375.583 369.247 375.99 368.98 376.363 368.62L378.023 370.42C377.01 371.58 375.53 372.16 373.583 372.16C372.37 372.16 371.297 371.927 370.363 371.46C369.43 370.98 368.71 370.32 368.203 369.48C367.697 368.64 367.443 367.687 367.443 366.62C367.443 365.567 367.69 364.62 368.183 363.78C368.69 362.927 369.377 362.267 370.243 361.8C371.123 361.32 372.103 361.08 373.183 361.08C374.237 361.08 375.19 361.307 376.043 361.76C376.897 362.213 377.563 362.867 378.043 363.72C378.537 364.56 378.783 365.54 378.783 366.66ZM373.203 363.44C372.497 363.44 371.903 363.64 371.423 364.04C370.943 364.44 370.65 364.987 370.543 365.68H375.843C375.737 365 375.443 364.46 374.963 364.06C374.483 363.647 373.897 363.44 373.203 363.44ZM380.861 357.16H383.981V372H380.861V357.16ZM386.876 357.16H389.996V372H386.876V357.16ZM392.892 361.24H396.012V372H392.892V361.24ZM394.452 359.74C393.879 359.74 393.412 359.573 393.052 359.24C392.692 358.907 392.512 358.493 392.512 358C392.512 357.507 392.692 357.093 393.052 356.76C393.412 356.427 393.879 356.26 394.452 356.26C395.025 356.26 395.492 356.42 395.852 356.74C396.212 357.06 396.392 357.46 396.392 357.94C396.392 358.46 396.212 358.893 395.852 359.24C395.492 359.573 395.025 359.74 394.452 359.74ZM405.448 361.08C406.781 361.08 407.854 361.48 408.668 362.28C409.494 363.08 409.908 364.267 409.908 365.84V372H406.788V366.32C406.788 365.467 406.601 364.833 406.228 364.42C405.854 363.993 405.314 363.78 404.608 363.78C403.821 363.78 403.194 364.027 402.728 364.52C402.261 365 402.028 365.72 402.028 366.68V372H398.908V361.24H401.888V362.5C402.301 362.047 402.814 361.7 403.428 361.46C404.041 361.207 404.714 361.08 405.448 361.08ZM423.953 361.24V370.2C423.953 372.173 423.44 373.64 422.413 374.6C421.386 375.56 419.886 376.04 417.913 376.04C416.873 376.04 415.886 375.913 414.953 375.66C414.02 375.407 413.246 375.04 412.633 374.56L413.873 372.32C414.326 372.693 414.9 372.987 415.593 373.2C416.286 373.427 416.98 373.54 417.673 373.54C418.753 373.54 419.546 373.293 420.053 372.8C420.573 372.32 420.833 371.587 420.833 370.6V370.14C420.02 371.033 418.886 371.48 417.433 371.48C416.446 371.48 415.54 371.267 414.713 370.84C413.9 370.4 413.253 369.787 412.773 369C412.293 368.213 412.053 367.307 412.053 366.28C412.053 365.253 412.293 364.347 412.773 363.56C413.253 362.773 413.9 362.167 414.713 361.74C415.54 361.3 416.446 361.08 417.433 361.08C418.993 361.08 420.18 361.593 420.993 362.62V361.24H423.953ZM418.053 368.92C418.88 368.92 419.553 368.68 420.073 368.2C420.606 367.707 420.873 367.067 420.873 366.28C420.873 365.493 420.606 364.86 420.073 364.38C419.553 363.887 418.88 363.64 418.053 363.64C417.226 363.64 416.546 363.887 416.013 364.38C415.48 364.86 415.213 365.493 415.213 366.28C415.213 367.067 415.48 367.707 416.013 368.2C416.546 368.68 417.226 368.92 418.053 368.92Z" fill="#050401"/>
<path d="M400.446 330.376C409.436 324.38 410.113 273.138 409.328 248.267C409.137 239.57 360.496 232.784 350.932 238.065C343.97 241.91 340.56 288.393 339.457 317.32C339.279 322.001 342.418 326.147 346.993 327.154C365.116 331.146 392.687 335.55 400.446 330.376Z" fill="#FF7D49"/>
<path d="M391.002 332.432C393.52 331.358 393.03 326.547 392.501 324.498C390.746 325.194 384.994 326.441 380.874 326.099C380.489 327.606 381.79 330.063 382.701 331.302C384.825 333.282 387.854 333.774 391.002 332.432Z" stroke="#050401" stroke-width="2"/>
<path d="M348.745 329.122C351.327 328.63 352.078 324.81 351.891 323.141C350.752 323.106 345.475 321.558 342.273 321.341C341.669 322.463 341.033 325.952 341.479 326.917C342.515 328.018 345.518 329.736 348.745 329.122Z" stroke="#050401" stroke-width="2"/>
<path d="M394.924 325.09C403.8 319.158 404.452 268.431 403.668 243.809C403.476 235.2 355.438 228.465 345.996 233.691C339.127 237.491 335.775 283.433 334.693 312.074C334.516 316.75 337.65 320.893 342.22 321.902C360.12 325.855 387.275 330.202 394.924 325.09Z" stroke="#050401" stroke-width="2"/>
<path d="M383.651 221.888C389.873 222.586 390.123 230.842 389.496 235.073L383.249 233.601C383.83 231.967 383.308 230.433 382.671 229.406C381.117 226.9 370.019 225.319 365.825 227.062C361.22 228.976 361.895 230.712 361.604 231.529L355.567 231.583C355.332 226.952 356.065 219.39 360.03 220.088C364.986 220.96 375.874 221.015 383.651 221.888Z" stroke="#050401" stroke-width="2"/>
<path d="M385.908 246.671C385.775 258.276 384.787 281.901 381.901 283.562" stroke="#050401" stroke-width="2"/>
<path d="M361.45 244.99C360.56 256.464 359.204 280.213 360.893 283.425" stroke="#050401" stroke-width="2"/>
<path d="M392.044 291.25L345.246 288.607" stroke="#050401" stroke-width="2"/>
<path d="M385.518 295.177L343.538 290.861" stroke="#050401" stroke-width="2"/>
<defs>
<filter id="filter0_d" x="0.106445" y="2.26367" width="268.171" height="234.977" filterUnits="userSpaceOnUse" color-interpolation-filters="sRGB">
<feFlood flood-opacity="0" result="BackgroundImageFix"/>
<feColorMatrix in="SourceAlpha" type="matrix" values="0 0 0 0 0 0 0 0 0 0 0 0 0 0 0 0 0 0 127 0"/>
<feOffset/>
<feGaussianBlur stdDeviation="20"/>
<feColorMatrix type="matrix" values="0 0 0 0 0.0196078 0 0 0 0 0.0156863 0 0 0 0 0.00392157 0 0 0 0.05 0"/>
<feBlend mode="normal" in2="BackgroundImageFix" result="effect1_dropShadow"/>
<feBlend mode="normal" in="SourceGraphic" in2="effect1_dropShadow" result="shape"/>
</filter>
<filter id="filter1_d" x="230.942" y="0.981445" width="244.722" height="220.843" filterUnits="userSpaceOnUse" color-interpolation-filters="sRGB">
<feFlood flood-opacity="0" result="BackgroundImageFix"/>
<feColorMatrix in="SourceAlpha" type="matrix" values="0 0 0 0 0 0 0 0 0 0 0 0 0 0 0 0 0 0 127 0"/>
<feOffset/>
<feGaussianBlur stdDeviation="20"/>
<feColorMatrix type="matrix" values="0 0 0 0 0.0196078 0 0 0 0 0.0156863 0 0 0 0 0.00392157 0 0 0 0.05 0"/>
<feBlend mode="normal" in2="BackgroundImageFix" result="effect1_dropShadow"/>
<feBlend mode="normal" in="SourceGraphic" in2="effect1_dropShadow" result="shape"/>
</filter>
<filter id="filter2_d" x="19.2214" y="199.981" width="265.674" height="241.346" filterUnits="userSpaceOnUse" color-interpolation-filters="sRGB">
<feFlood flood-opacity="0" result="BackgroundImageFix"/>
<feColorMatrix in="SourceAlpha" type="matrix" values="0 0 0 0 0 0 0 0 0 0 0 0 0 0 0 0 0 0 127 0"/>
<feOffset/>
<feGaussianBlur stdDeviation="20"/>
<feColorMatrix type="matrix" values="0 0 0 0 0.0196078 0 0 0 0 0.0156863 0 0 0 0 0.00392157 0 0 0 0.05 0"/>
<feBlend mode="normal" in2="BackgroundImageFix" result="effect1_dropShadow"/>
<feBlend mode="normal" in="SourceGraphic" in2="effect1_dropShadow" result="shape"/>
</filter>
<filter id="filter3_d" x="247.253" y="202.219" width="251.828" height="236.607" filterUnits="userSpaceOnUse" color-interpolation-filters="sRGB">
<feFlood flood-opacity="0" result="BackgroundImageFix"/>
<feColorMatrix in="SourceAlpha" type="matrix" values="0 0 0 0 0 0 0 0 0 0 0 0 0 0 0 0 0 0 127 0"/>
<feOffset/>
<feGaussianBlur stdDeviation="20"/>
<feColorMatrix type="matrix" values="0 0 0 0 0.0196078 0 0 0 0 0.0156863 0 0 0 0 0.00392157 0 0 0 0.05 0"/>
<feBlend mode="normal" in2="BackgroundImageFix" result="effect1_dropShadow"/>
<feBlend mode="normal" in="SourceGraphic" in2="effect1_dropShadow" result="shape"/>
</filter>
</defs>
</svg>
