<svg width="894" height="270" viewBox="0 0 894 270" fill="none" xmlns="http://www.w3.org/2000/svg">
<g clip-path="url(#clip0)">
<g filter="url(#filter0_d)">
<rect x="43" y="80.75" width="174.621" height="137.262" rx="4" transform="rotate(-6.07708 43 80.75)" fill="#222430"/>
</g>
<path opacity="0.4" d="M102.415 175.558H105.375V181.238C104.615 181.812 103.735 182.252 102.735 182.558C101.735 182.865 100.728 183.018 99.7152 183.018C98.2618 183.018 96.9552 182.712 95.7952 182.098C94.6352 181.472 93.7218 180.612 93.0552 179.518C92.4018 178.412 92.0752 177.165 92.0752 175.778C92.0752 174.392 92.4018 173.152 93.0552 172.058C93.7218 170.952 94.6418 170.092 95.8152 169.478C96.9885 168.852 98.3085 168.538 99.7752 168.538C101.002 168.538 102.115 168.745 103.115 169.158C104.115 169.572 104.955 170.172 105.635 170.958L103.555 172.878C102.555 171.825 101.349 171.298 99.9352 171.298C99.0418 171.298 98.2485 171.485 97.5552 171.858C96.8618 172.232 96.3218 172.758 95.9352 173.438C95.5485 174.118 95.3552 174.898 95.3552 175.778C95.3552 176.645 95.5485 177.418 95.9352 178.098C96.3218 178.778 96.8552 179.312 97.5352 179.698C98.2285 180.072 99.0152 180.258 99.8952 180.258C100.828 180.258 101.668 180.058 102.415 179.658V175.558ZM112.505 171.858C114.172 171.858 115.452 172.258 116.345 173.058C117.238 173.845 117.685 175.038 117.685 176.638V182.778H114.765V181.438C114.178 182.438 113.085 182.938 111.485 182.938C110.658 182.938 109.938 182.798 109.325 182.518C108.725 182.238 108.265 181.852 107.945 181.358C107.625 180.865 107.465 180.305 107.465 179.678C107.465 178.678 107.838 177.892 108.585 177.318C109.345 176.745 110.512 176.458 112.085 176.458H114.565C114.565 175.778 114.358 175.258 113.945 174.898C113.532 174.525 112.912 174.338 112.085 174.338C111.512 174.338 110.945 174.432 110.385 174.618C109.838 174.792 109.372 175.032 108.985 175.338L107.865 173.158C108.452 172.745 109.152 172.425 109.965 172.198C110.792 171.972 111.638 171.858 112.505 171.858ZM112.265 180.838C112.798 180.838 113.272 180.718 113.685 180.478C114.098 180.225 114.392 179.858 114.565 179.378V178.278H112.425C111.145 178.278 110.505 178.698 110.505 179.538C110.505 179.938 110.658 180.258 110.965 180.498C111.285 180.725 111.718 180.838 112.265 180.838ZM134.289 171.858C135.635 171.858 136.702 172.258 137.489 173.058C138.289 173.845 138.689 175.032 138.689 176.618V182.778H135.569V177.098C135.569 176.245 135.389 175.612 135.029 175.198C134.682 174.772 134.182 174.558 133.529 174.558C132.795 174.558 132.215 174.798 131.789 175.278C131.362 175.745 131.149 176.445 131.149 177.378V182.778H128.029V177.098C128.029 175.405 127.349 174.558 125.989 174.558C125.269 174.558 124.695 174.798 124.269 175.278C123.842 175.745 123.629 176.445 123.629 177.378V182.778H120.509V172.018H123.489V173.258C123.889 172.805 124.375 172.458 124.949 172.218C125.535 171.978 126.175 171.858 126.869 171.858C127.629 171.858 128.315 172.012 128.929 172.318C129.542 172.612 130.035 173.045 130.409 173.618C130.849 173.058 131.402 172.625 132.069 172.318C132.749 172.012 133.489 171.858 134.289 171.858ZM141.485 172.018H144.605V182.778H141.485V172.018ZM143.045 170.518C142.472 170.518 142.005 170.352 141.645 170.018C141.285 169.685 141.105 169.272 141.105 168.778C141.105 168.285 141.285 167.872 141.645 167.538C142.005 167.205 142.472 167.038 143.045 167.038C143.618 167.038 144.085 167.198 144.445 167.518C144.805 167.838 144.985 168.238 144.985 168.718C144.985 169.238 144.805 169.672 144.445 170.018C144.085 170.352 143.618 170.518 143.045 170.518ZM154.041 171.858C155.374 171.858 156.447 172.258 157.261 173.058C158.087 173.858 158.501 175.045 158.501 176.618V182.778H155.381V177.098C155.381 176.245 155.194 175.612 154.821 175.198C154.447 174.772 153.907 174.558 153.201 174.558C152.414 174.558 151.787 174.805 151.321 175.298C150.854 175.778 150.621 176.498 150.621 177.458V182.778H147.501V172.018H150.481V173.278C150.894 172.825 151.407 172.478 152.021 172.238C152.634 171.985 153.307 171.858 154.041 171.858ZM172.546 172.018V180.978C172.546 182.952 172.033 184.418 171.006 185.378C169.979 186.338 168.479 186.818 166.506 186.818C165.466 186.818 164.479 186.692 163.546 186.438C162.613 186.185 161.839 185.818 161.226 185.338L162.466 183.098C162.919 183.472 163.493 183.765 164.186 183.978C164.879 184.205 165.573 184.318 166.266 184.318C167.346 184.318 168.139 184.072 168.646 183.578C169.166 183.098 169.426 182.365 169.426 181.378V180.918C168.613 181.812 167.479 182.258 166.026 182.258C165.039 182.258 164.133 182.045 163.306 181.618C162.493 181.178 161.846 180.565 161.366 179.778C160.886 178.992 160.646 178.085 160.646 177.058C160.646 176.032 160.886 175.125 161.366 174.338C161.846 173.552 162.493 172.945 163.306 172.518C164.133 172.078 165.039 171.858 166.026 171.858C167.586 171.858 168.773 172.372 169.586 173.398V172.018H172.546ZM166.646 179.698C167.473 179.698 168.146 179.458 168.666 178.978C169.199 178.485 169.466 177.845 169.466 177.058C169.466 176.272 169.199 175.638 168.666 175.158C168.146 174.665 167.473 174.418 166.646 174.418C165.819 174.418 165.139 174.665 164.606 175.158C164.073 175.638 163.806 176.272 163.806 177.058C163.806 177.845 164.073 178.485 164.606 178.978C165.139 179.458 165.819 179.698 166.646 179.698Z" fill="#FFFAFF"/>
<path d="M119.182 74.3904C97.8479 64.6849 81.6679 102.958 76.2447 123.307C73.3524 137.746 86.6012 136.166 94.1294 132.881C106.086 127.663 112.59 119.403 116.626 117.416C124.652 122.538 142.972 124.424 151.129 124.726C155.752 131.91 164.19 146.275 165.621 147.201C177.83 162.109 184.812 149.581 186.194 141.336C193.389 87.2576 171.947 85.359 169.304 84.4302C166.457 83.4299 145.299 83.2167 140.636 82.2827C136.906 81.5356 124.779 76.7099 119.182 74.3904Z" fill="#69DC9E"/>
<path d="M115.974 68.6772C94.8399 59.0117 78.733 97.299 73.3213 117.651C70.4291 132.09 83.5668 130.487 91.0361 127.19C102.899 121.954 109.362 113.686 113.366 111.692C121.314 116.799 139.474 118.653 147.56 118.941C152.131 126.114 160.472 140.46 161.89 141.383C173.968 156.264 180.912 143.729 182.296 135.485C189.522 81.4123 168.267 79.5512 165.648 78.6273C162.828 77.6323 141.852 77.4555 137.231 76.5299C133.534 75.7894 121.519 70.9862 115.974 68.6772Z" stroke="#050401" stroke-opacity="0.8" stroke-width="2"/>
<path d="M113.165 82.6706C112.761 84.8373 112.24 87.5997 111.954 89.1186C111.852 89.6622 111.329 90.0188 110.785 89.9169L104.498 88.7375C103.955 88.6355 103.432 88.9942 103.331 89.538L102.741 92.7182C102.64 93.2604 102.998 93.7817 103.54 93.8834L109.832 95.0638C110.375 95.1657 110.733 95.6883 110.631 96.2311L109.49 102.309C109.388 102.853 109.747 103.376 110.291 103.477L113.417 104.056C113.959 104.157 114.48 103.8 114.582 103.258L115.723 97.1755C115.825 96.6327 116.348 96.2753 116.891 96.3771L123.179 97.5568C123.723 97.6588 124.246 97.3001 124.347 96.7563L124.937 93.5762C125.037 93.034 124.68 92.5126 124.138 92.411L117.845 91.2305C117.302 91.1287 116.945 90.6061 117.047 90.0633L118.255 83.6178C118.357 83.0742 117.999 82.551 117.455 82.4502L114.331 81.8708C113.788 81.7701 113.266 82.1277 113.165 82.6706Z" stroke="#050401" stroke-opacity="0.8" stroke-width="2"/>
<circle r="3.4743" transform="matrix(-0.980523 -0.196406 -0.196406 0.980523 162.005 94.6744)" stroke="#050401" stroke-opacity="0.8" stroke-width="2"/>
<circle r="3.4743" transform="matrix(-0.980523 -0.196406 -0.196406 0.980523 168.717 104.615)" stroke="#050401" stroke-opacity="0.8" stroke-width="2"/>
<circle r="3.4743" transform="matrix(-0.980523 -0.196406 -0.196406 0.980523 152.143 101.295)" stroke="#050401" stroke-opacity="0.8" stroke-width="2"/>
<circle r="3.4743" transform="matrix(-0.980523 -0.196406 -0.196406 0.980523 158.93 110.852)" stroke="#050401" stroke-opacity="0.8" stroke-width="2"/>
<g filter="url(#filter1_d)">
<rect x="276.242" y="60.9814" width="162.34" height="138.034" rx="4" transform="rotate(0.99898 276.242 60.9814)" fill="#222430"/>
</g>
<path opacity="0.4" d="M329.453 175.231L326.745 171.337L326.585 171.337L323.765 171.343L323.773 175.243L320.533 175.25L320.504 161.25L326.564 161.237C327.804 161.235 328.878 161.439 329.786 161.851C330.706 162.262 331.414 162.847 331.909 163.606C332.404 164.365 332.653 165.265 332.655 166.305C332.657 167.345 332.406 168.245 331.9 169.006C331.409 169.754 330.703 170.329 329.784 170.731L332.933 175.224L329.453 175.231ZM329.375 166.311C329.373 165.525 329.119 164.925 328.611 164.513C328.104 164.087 327.363 163.876 326.39 163.878L323.75 163.883L323.76 168.763L326.4 168.758C327.373 168.756 328.113 168.541 328.619 168.113C329.124 167.685 329.376 167.085 329.375 166.311ZM345.549 169.858C345.549 169.898 345.53 170.178 345.491 170.698L337.351 170.715C337.499 171.381 337.847 171.907 338.394 172.293C338.942 172.678 339.622 172.87 340.435 172.869C340.995 172.867 341.489 172.786 341.915 172.625C342.355 172.451 342.761 172.184 343.133 171.823L344.797 173.619C343.786 174.782 342.307 175.365 340.361 175.369C339.147 175.371 338.074 175.14 337.139 174.675C336.205 174.197 335.484 173.539 334.975 172.7C334.467 171.861 334.211 170.908 334.209 169.841C334.207 168.788 334.452 167.841 334.943 167C335.448 166.145 336.134 165.484 336.999 165.016C337.878 164.534 338.858 164.292 339.938 164.29C340.991 164.287 341.945 164.512 342.799 164.964C343.653 165.415 344.321 166.067 344.803 166.919C345.298 167.758 345.547 168.738 345.549 169.858ZM339.963 166.649C339.256 166.651 338.663 166.852 338.184 167.253C337.705 167.654 337.412 168.201 337.307 168.895L342.607 168.884C342.499 168.204 342.205 167.665 341.724 167.266C341.243 166.854 340.656 166.648 339.963 166.649ZM351.662 164.265C353.329 164.262 354.609 164.659 355.504 165.457C356.399 166.242 356.849 167.435 356.852 169.035L356.865 175.175L353.945 175.181L353.942 173.841C353.357 174.842 352.265 175.344 350.665 175.347C349.838 175.349 349.118 175.211 348.504 174.932C347.903 174.653 347.443 174.267 347.122 173.775C346.801 173.282 346.639 172.722 346.638 172.096C346.636 171.096 347.008 170.308 347.753 169.733C348.512 169.158 349.678 168.869 351.251 168.866L353.731 168.861C353.73 168.181 353.522 167.661 353.108 167.302C352.694 166.93 352.074 166.744 351.247 166.746C350.674 166.747 350.107 166.842 349.548 167.03C349.001 167.204 348.535 167.445 348.149 167.753L347.025 165.575C347.61 165.16 348.31 164.839 349.123 164.611C349.949 164.382 350.795 164.267 351.662 164.265ZM351.441 173.246C351.974 173.245 352.447 173.124 352.86 172.883C353.273 172.629 353.565 172.261 353.737 171.781L353.735 170.681L351.595 170.685C350.315 170.688 349.676 171.109 349.678 171.949C349.679 172.349 349.833 172.669 350.14 172.908C350.46 173.134 350.894 173.247 351.441 173.246ZM370.735 160.306L370.765 175.146L367.785 175.152L367.783 173.912C367.011 174.847 365.892 175.316 364.426 175.319C363.412 175.321 362.492 175.096 361.664 174.645C360.85 174.193 360.209 173.548 359.74 172.709C359.272 171.87 359.037 170.897 359.034 169.79C359.032 168.683 359.263 167.71 359.728 166.869C360.193 166.028 360.832 165.38 361.644 164.925C362.47 164.47 363.39 164.241 364.403 164.239C365.776 164.236 366.85 164.667 367.626 165.532L367.615 160.312L370.735 160.306ZM364.96 172.758C365.747 172.756 366.4 172.488 366.919 171.954C367.438 171.406 367.696 170.679 367.694 169.772C367.692 168.865 367.431 168.146 366.91 167.614C366.389 167.068 365.735 166.796 364.948 166.798C364.148 166.799 363.489 167.074 362.97 167.622C362.451 168.156 362.192 168.877 362.194 169.783C362.196 170.69 362.458 171.416 362.979 171.962C363.5 172.494 364.16 172.759 364.96 172.758ZM373.631 164.38L376.751 164.373L376.773 175.133L373.653 175.14L373.631 164.38ZM375.188 162.877C374.614 162.878 374.147 162.712 373.787 162.379C373.426 162.047 373.245 161.634 373.244 161.141C373.243 160.647 373.422 160.234 373.782 159.899C374.141 159.565 374.607 159.398 375.181 159.397C375.754 159.395 376.221 159.554 376.581 159.874C376.942 160.193 377.123 160.593 377.124 161.073C377.125 161.593 376.946 162.026 376.587 162.374C376.227 162.708 375.761 162.875 375.188 162.877ZM386.186 164.194C387.519 164.191 388.594 164.589 389.409 165.387C390.237 166.185 390.653 167.371 390.656 168.945L390.669 175.105L387.549 175.111L387.537 169.431C387.535 168.578 387.347 167.945 386.973 167.532C386.599 167.106 386.058 166.894 385.352 166.896C384.565 166.897 383.939 167.145 383.473 167.639C383.008 168.12 382.776 168.841 382.778 169.801L382.789 175.121L379.669 175.127L379.646 164.367L382.626 164.361L382.629 165.621C383.041 165.167 383.554 164.819 384.167 164.578C384.78 164.323 385.453 164.195 386.186 164.194ZM404.692 164.316L404.71 173.276C404.714 175.249 404.204 176.717 403.179 177.679C402.155 178.641 400.656 179.124 398.682 179.128C397.642 179.13 396.655 179.006 395.722 178.754C394.788 178.503 394.014 178.138 393.399 177.659L394.635 175.416C395.089 175.789 395.663 176.081 396.356 176.293C397.05 176.518 397.744 176.63 398.437 176.629C399.517 176.626 400.31 176.378 400.816 175.884C401.335 175.403 401.593 174.669 401.591 173.682L401.59 173.222C400.779 174.117 399.646 174.566 398.193 174.569C397.206 174.571 396.299 174.36 395.472 173.935C394.657 173.496 394.009 172.884 393.528 172.099C393.046 171.313 392.804 170.407 392.802 169.38C392.8 168.353 393.038 167.446 393.517 166.659C393.995 165.871 394.64 165.263 395.453 164.835C396.278 164.393 397.185 164.171 398.171 164.169C399.731 164.166 400.919 164.677 401.735 165.702L401.732 164.322L404.692 164.316ZM398.808 172.008C399.634 172.006 400.307 171.765 400.826 171.284C401.358 170.789 401.624 170.149 401.622 169.362C401.62 168.575 401.353 167.942 400.818 167.464C400.297 166.971 399.623 166.726 398.797 166.728C397.97 166.729 397.291 166.978 396.758 167.472C396.226 167.953 395.961 168.587 395.962 169.374C395.964 170.16 396.232 170.8 396.766 171.292C397.3 171.771 397.981 172.009 398.808 172.008Z" fill="#FFFAFF"/>
<path d="M318.272 123.245C319.829 101.986 312.177 76.3874 308.156 66.2457C337.726 64.397 352.122 73.4347 355.624 78.1847C354.457 79.0833 352.978 81.1116 356.402 82.0359C359.826 82.9602 368.204 82.4211 371.965 82.0359C375.078 81.4197 374.559 79.2117 373.911 78.1847C377.957 69.8659 407.76 66.7592 422.156 66.2457C416.242 70.251 411.911 105.914 410.484 123.245C399.278 123.245 384.027 127.353 377.801 129.407C367.218 137.726 356.791 132.873 352.9 129.407C338.893 123.553 323.979 122.86 318.272 123.245Z" fill="#2F52E0"/>
<path d="M345.156 119C342.074 117.142 332.359 113.551 318.156 114.046" stroke="#050401" stroke-opacity="0.8" stroke-width="2"/>
<path d="M344.156 75C338.763 71.8619 324.012 65.6713 308.156 66.0136" stroke="#050401" stroke-opacity="0.8" stroke-width="2"/>
<path d="M377.156 119C379.395 116.819 387.529 112.832 402.156 114.327" stroke="#050401" stroke-opacity="0.8" stroke-width="2"/>
<path d="M375.156 75C382.082 71.2633 398.578 64.3074 409.156 66.3769" stroke="#050401" stroke-opacity="0.8" stroke-width="2"/>
<path d="M356.156 123C357.576 123.755 361.763 124.811 367.156 123" stroke="#050401" stroke-opacity="0.8" stroke-width="2"/>
<path d="M353.156 87C355.878 87.7546 362.49 88.8111 367.156 87" stroke="#050401" stroke-opacity="0.8" stroke-width="2"/>
<path d="M353.156 75C345.388 60.4594 318.586 57.6321 306.156 58.036V60.8633" stroke="#050401" stroke-opacity="0.8" stroke-width="2"/>
<path d="M356.156 74C348.36 59.593 322.631 55.6268 310.156 56.027V58.3924" stroke="#050401" stroke-opacity="0.8" stroke-width="2"/>
<path d="M359.156 74C351.228 59.7358 328.237 53 315.156 53V56.5661" stroke="#050401" stroke-opacity="0.8" stroke-width="2"/>
<path d="M365.156 75C373.09 60.4594 400.462 57.6321 413.156 58.036V61.6711" stroke="#050401" stroke-opacity="0.8" stroke-width="2"/>
<path d="M409.156 57.027C396.41 56.6268 370.122 60.593 362.156 75" stroke="#050401" stroke-opacity="0.8" stroke-width="2"/>
<path d="M361.156 75C368.724 60.7358 390.67 54 403.156 54V57.5661" stroke="#050401" stroke-opacity="0.8" stroke-width="2"/>
<path d="M314.272 118.928C315.829 97.044 308.177 70.6929 304.156 60.2529C333.726 58.3499 348.122 67.6534 351.624 72.543C350.457 73.4681 348.978 75.5561 352.402 76.5076C355.826 77.4591 364.204 76.904 367.965 76.5076C371.078 75.8733 370.559 73.6002 369.911 72.543C373.957 63.9796 403.76 60.7815 418.156 60.2529C412.242 64.376 407.911 101.088 406.484 118.928C395.278 118.928 380.027 123.157 373.801 125.272C363.218 133.835 352.791 128.84 348.9 125.272C334.893 119.246 319.979 118.532 314.272 118.928Z" stroke="#050401" stroke-opacity="0.8" stroke-width="2"/>
<path d="M348.156 80C348.156 100.327 351.156 115.182 351.156 123" stroke="#050401" stroke-opacity="0.8" stroke-width="2"/>
<path d="M370.156 80C369.402 94.0177 368.345 122.442 370.156 124" stroke="#050401" stroke-opacity="0.8" stroke-width="2"/>
<g filter="url(#filter2_d)">
<rect width="180.259" height="155.016" rx="4" transform="matrix(-0.999364 -0.0356672 -0.0356672 0.999364 860.657 55.7754)" fill="#222430"/>
</g>
<path d="M787.919 82.5343C780.638 80.4985 775.893 80.5114 771.583 72.1746C763.053 55.6629 755.495 45.9522 737.277 48.5501C713.996 51.8659 715.246 74.3194 715.246 74.3194L720.49 134.269C720.855 137.363 724.203 142.072 727.213 141.717L818.486 130.967C821.494 130.613 823.586 125.326 823.693 122.214C824.131 109.511 823.435 82.3009 801.463 83.749C795.943 84.1078 791.472 83.5313 787.919 82.5343ZM817.303 118.65C817.55 121.096 815.789 123.289 813.348 123.577L724.912 133.992L723.062 115.6L728.417 114.969L730.22 130.276L735.989 129.596L734.186 114.29L738.922 113.732L740.724 129.039L746.493 128.359L744.69 113.053L749.426 112.495L751.229 127.801L756.996 127.122L755.193 111.816L759.931 111.258L761.733 126.564L767.501 125.885L765.698 110.579L770.438 110.02L772.241 125.327L778.008 124.647L776.206 109.341L780.942 108.783L782.744 124.09L788.512 123.41L786.709 108.104L791.448 107.546L793.25 122.852L799.015 122.173L797.212 106.867L801.951 106.309L803.753 121.615L809.523 120.936L807.721 105.629L815.891 104.667L817.303 118.65Z" fill="#FFD046"/>
<path d="M742.294 84.7586C743.831 85.4509 744.984 84.3109 745.369 83.6543L743.963 75.2057L733.729 76.9092L735.231 85.934C734.702 86.6146 733.241 87.6872 731.627 86.5337" stroke="#050401" stroke-width="2" stroke-linecap="round"/>
<path d="M751.146 74.0107L752.552 82.4593C752.167 83.1159 751.014 84.2559 749.477 83.5637" stroke="#050401" stroke-width="2" stroke-linecap="round"/>
<path d="M768.25 70.8293L768.25 70.8291C764.013 62.7994 760.096 56.6001 755.064 52.7001C750.098 48.8514 743.948 47.1721 735.053 48.4348L735.052 48.4348C723.789 50.0318 718.535 56.075 716.044 61.6775C714.788 64.5036 714.228 67.2389 713.983 69.2716C713.861 70.2863 713.818 71.1208 713.806 71.6972C713.799 71.9853 713.801 72.2085 713.803 72.3569C713.805 72.4312 713.806 72.4867 713.808 72.5223L713.809 72.5511L719.772 134.416C720.067 136.877 722.3 138.635 724.757 138.346L816.03 127.596C818.586 127.295 820.884 124.931 820.981 122.428C820.981 122.428 820.981 122.428 820.981 122.428L821.98 122.466C822.455 110.086 821.241 81.1513 799.272 82.6285L768.25 70.8293ZM768.25 70.8293C770.468 75.0298 772.928 77.4727 775.825 79.1015M768.25 70.8293L775.825 79.1015M775.825 79.1015C778.422 80.5617 781.34 81.3431 784.56 82.2051M775.825 79.1015L784.56 82.2051M784.56 82.2051C784.863 82.2862 785.168 82.368 785.476 82.4511L784.56 82.2051ZM817.028 123.197L816.917 122.195L816.903 122.197L814.625 102.852L814.508 101.859L813.515 101.976L805.345 102.938L804.352 103.055L804.469 104.048L806.108 117.965L802.324 118.41L800.685 104.494L800.568 103.5L799.575 103.617L794.836 104.175L793.843 104.292L793.96 105.286L795.599 119.202L791.821 119.647L790.182 105.731L790.065 104.737L789.072 104.854L784.333 105.412L783.34 105.529L783.457 106.523L785.096 120.439L781.315 120.885L779.676 106.968L779.559 105.975L778.566 106.092L773.83 106.65L772.837 106.766L772.954 107.76L774.593 121.676L770.811 122.122L769.172 108.205L769.055 107.212L768.062 107.329L763.322 107.887L762.329 108.004L762.446 108.997L764.085 122.914L760.304 123.359L758.665 109.443L758.548 108.449L757.555 108.566L752.817 109.124L751.824 109.241L751.941 110.234L753.58 124.151L749.799 124.596L748.16 110.68L748.043 109.687L747.05 109.804L742.315 110.361L741.321 110.478L741.438 111.471L743.077 125.388L739.295 125.834L737.656 111.917L737.539 110.924L736.546 111.041L731.81 111.598L730.817 111.715L730.934 112.709L732.573 126.625L728.791 127.071L727.152 113.154L727.035 112.161L726.042 112.278L720.686 112.909L719.693 113.026L719.81 114.019L722.205 134.357L722.322 135.35L723.316 135.233L816.151 124.299L816.148 124.275L817.135 124.163L817.134 124.156L817.028 123.197Z" stroke="#050401" stroke-opacity="0.8" stroke-width="2"/>
<path opacity="0.4" d="M717.211 176.742L715.331 178.702V182.242H712.111V168.242H715.331V174.782L721.531 168.242H725.131L719.331 174.482L725.471 182.242H721.691L717.211 176.742ZM736.787 176.902C736.787 176.942 736.767 177.222 736.727 177.742H728.587C728.733 178.409 729.08 178.936 729.627 179.322C730.173 179.709 730.853 179.902 731.667 179.902C732.227 179.902 732.72 179.822 733.147 179.662C733.587 179.489 733.993 179.222 734.367 178.862L736.027 180.662C735.013 181.822 733.533 182.402 731.587 182.402C730.373 182.402 729.3 182.169 728.367 181.702C727.433 181.222 726.713 180.562 726.207 179.722C725.7 178.882 725.447 177.929 725.447 176.862C725.447 175.809 725.693 174.862 726.187 174.022C726.693 173.169 727.38 172.509 728.247 172.042C729.127 171.562 730.107 171.322 731.187 171.322C732.24 171.322 733.193 171.549 734.047 172.002C734.9 172.456 735.567 173.109 736.047 173.962C736.54 174.802 736.787 175.782 736.787 176.902ZM731.207 173.682C730.5 173.682 729.907 173.882 729.427 174.282C728.947 174.682 728.653 175.229 728.547 175.922H733.847C733.74 175.242 733.447 174.702 732.967 174.302C732.487 173.889 731.9 173.682 731.207 173.682ZM749.349 171.482L744.489 182.902C743.995 184.142 743.382 185.016 742.649 185.522C741.929 186.029 741.055 186.282 740.029 186.282C739.469 186.282 738.915 186.196 738.369 186.022C737.822 185.849 737.375 185.609 737.029 185.302L738.169 183.082C738.409 183.296 738.682 183.462 738.989 183.582C739.309 183.702 739.622 183.762 739.929 183.762C740.355 183.762 740.702 183.656 740.969 183.442C741.235 183.242 741.475 182.902 741.689 182.422L741.729 182.322L737.069 171.482H740.289L743.309 178.782L746.349 171.482H749.349ZM756.982 171.322C757.982 171.322 758.888 171.556 759.702 172.022C760.528 172.476 761.175 173.122 761.642 173.962C762.108 174.789 762.342 175.756 762.342 176.862C762.342 177.969 762.108 178.942 761.642 179.782C761.175 180.609 760.528 181.256 759.702 181.722C758.888 182.176 757.982 182.402 756.982 182.402C755.502 182.402 754.375 181.936 753.602 181.002V182.242H750.622V167.402H753.742V172.622C754.528 171.756 755.608 171.322 756.982 171.322ZM756.442 179.842C757.242 179.842 757.895 179.576 758.402 179.042C758.922 178.496 759.182 177.769 759.182 176.862C759.182 175.956 758.922 175.236 758.402 174.702C757.895 174.156 757.242 173.882 756.442 173.882C755.642 173.882 754.982 174.156 754.462 174.702C753.955 175.236 753.702 175.956 753.702 176.862C753.702 177.769 753.955 178.496 754.462 179.042C754.982 179.576 755.642 179.842 756.442 179.842ZM769.55 182.402C768.417 182.402 767.397 182.169 766.49 181.702C765.597 181.222 764.897 180.562 764.39 179.722C763.884 178.882 763.63 177.929 763.63 176.862C763.63 175.796 763.884 174.842 764.39 174.002C764.897 173.162 765.597 172.509 766.49 172.042C767.397 171.562 768.417 171.322 769.55 171.322C770.684 171.322 771.697 171.562 772.59 172.042C773.484 172.509 774.184 173.162 774.69 174.002C775.197 174.842 775.45 175.796 775.45 176.862C775.45 177.929 775.197 178.882 774.69 179.722C774.184 180.562 773.484 181.222 772.59 181.702C771.697 182.169 770.684 182.402 769.55 182.402ZM769.55 179.842C770.35 179.842 771.004 179.576 771.51 179.042C772.03 178.496 772.29 177.769 772.29 176.862C772.29 175.956 772.03 175.236 771.51 174.702C771.004 174.156 770.35 173.882 769.55 173.882C768.75 173.882 768.09 174.156 767.57 174.702C767.05 175.236 766.79 175.956 766.79 176.862C766.79 177.769 767.05 178.496 767.57 179.042C768.09 179.576 768.75 179.842 769.55 179.842ZM781.7 171.322C783.367 171.322 784.647 171.722 785.54 172.522C786.433 173.309 786.88 174.502 786.88 176.102V182.242H783.96V180.902C783.373 181.902 782.28 182.402 780.68 182.402C779.853 182.402 779.133 182.262 778.52 181.982C777.92 181.702 777.46 181.316 777.14 180.822C776.82 180.329 776.66 179.769 776.66 179.142C776.66 178.142 777.033 177.356 777.78 176.782C778.54 176.209 779.707 175.922 781.28 175.922H783.76C783.76 175.242 783.553 174.722 783.14 174.362C782.727 173.989 782.107 173.802 781.28 173.802C780.707 173.802 780.14 173.896 779.58 174.082C779.033 174.256 778.567 174.496 778.18 174.802L777.06 172.622C777.647 172.209 778.347 171.889 779.16 171.662C779.987 171.436 780.833 171.322 781.7 171.322ZM781.46 180.302C781.993 180.302 782.467 180.182 782.88 179.942C783.293 179.689 783.587 179.322 783.76 178.842V177.742H781.62C780.34 177.742 779.7 178.162 779.7 179.002C779.7 179.402 779.853 179.722 780.16 179.962C780.48 180.189 780.913 180.302 781.46 180.302ZM792.684 172.902C793.057 172.382 793.557 171.989 794.184 171.722C794.824 171.456 795.557 171.322 796.384 171.322V174.202C796.037 174.176 795.804 174.162 795.684 174.162C794.79 174.162 794.09 174.416 793.584 174.922C793.077 175.416 792.824 176.162 792.824 177.162V182.242H789.704V171.482H792.684V172.902ZM809.101 167.402V182.242H806.121V181.002C805.348 181.936 804.228 182.402 802.761 182.402C801.748 182.402 800.828 182.176 800.001 181.722C799.188 181.269 798.548 180.622 798.081 179.782C797.615 178.942 797.381 177.969 797.381 176.862C797.381 175.756 797.615 174.782 798.081 173.942C798.548 173.102 799.188 172.456 800.001 172.002C800.828 171.549 801.748 171.322 802.761 171.322C804.135 171.322 805.208 171.756 805.981 172.622V167.402H809.101ZM803.301 179.842C804.088 179.842 804.741 179.576 805.261 179.042C805.781 178.496 806.041 177.769 806.041 176.862C806.041 175.956 805.781 175.236 805.261 174.702C804.741 174.156 804.088 173.882 803.301 173.882C802.501 173.882 801.841 174.156 801.321 174.702C800.801 175.236 800.541 175.956 800.541 176.862C800.541 177.769 800.801 178.496 801.321 179.042C801.841 179.576 802.501 179.842 803.301 179.842Z" fill="#FFFAFF"/>
<g filter="url(#filter3_d)">
<rect width="164.982" height="148.988" rx="4" transform="matrix(-0.998886 0.047186 0.047186 0.998886 634.798 74.4043)" fill="#222430"/>
</g>
<path opacity="0.4" d="M509.697 192.826H505.217V190.186H517.417V192.826H512.937V204.186H509.697V192.826ZM521.686 194.846C522.059 194.326 522.559 193.932 523.186 193.666C523.826 193.399 524.559 193.266 525.386 193.266V196.146C525.039 196.119 524.806 196.106 524.686 196.106C523.792 196.106 523.092 196.359 522.586 196.866C522.079 197.359 521.826 198.106 521.826 199.106V204.186H518.706V193.426H521.686V194.846ZM531.522 193.266C533.189 193.266 534.469 193.666 535.362 194.466C536.256 195.252 536.702 196.446 536.702 198.046V204.186H533.782V202.846C533.196 203.846 532.102 204.346 530.502 204.346C529.676 204.346 528.956 204.206 528.342 203.926C527.742 203.646 527.282 203.259 526.962 202.766C526.642 202.272 526.482 201.712 526.482 201.086C526.482 200.086 526.856 199.299 527.602 198.726C528.362 198.152 529.529 197.866 531.102 197.866H533.582C533.582 197.186 533.376 196.666 532.962 196.306C532.549 195.932 531.929 195.746 531.102 195.746C530.529 195.746 529.962 195.839 529.402 196.026C528.856 196.199 528.389 196.439 528.002 196.746L526.882 194.566C527.469 194.152 528.169 193.832 528.982 193.606C529.809 193.379 530.656 193.266 531.522 193.266ZM531.282 202.246C531.816 202.246 532.289 202.126 532.702 201.886C533.116 201.632 533.409 201.266 533.582 200.786V199.686H531.442C530.162 199.686 529.522 200.106 529.522 200.946C529.522 201.346 529.676 201.666 529.982 201.906C530.302 202.132 530.736 202.246 531.282 202.246ZM550.011 193.426L545.471 204.186H542.251L537.731 193.426H540.951L543.931 200.746L547.011 193.426H550.011ZM561.531 198.846C561.531 198.886 561.511 199.166 561.471 199.686H553.331C553.477 200.352 553.824 200.879 554.371 201.266C554.917 201.652 555.597 201.846 556.411 201.846C556.971 201.846 557.464 201.766 557.891 201.606C558.331 201.432 558.737 201.166 559.111 200.806L560.771 202.606C559.757 203.766 558.277 204.346 556.331 204.346C555.117 204.346 554.044 204.112 553.111 203.646C552.177 203.166 551.457 202.506 550.951 201.666C550.444 200.826 550.191 199.872 550.191 198.806C550.191 197.752 550.437 196.806 550.931 195.966C551.437 195.112 552.124 194.452 552.991 193.986C553.871 193.506 554.851 193.266 555.931 193.266C556.984 193.266 557.937 193.492 558.791 193.946C559.644 194.399 560.311 195.052 560.791 195.906C561.284 196.746 561.531 197.726 561.531 198.846ZM555.951 195.626C555.244 195.626 554.651 195.826 554.171 196.226C553.691 196.626 553.397 197.172 553.291 197.866H558.591C558.484 197.186 558.191 196.646 557.711 196.246C557.231 195.832 556.644 195.626 555.951 195.626ZM563.608 189.346H566.728V204.186H563.608V189.346ZM569.624 189.346H572.744V204.186H569.624V189.346ZM575.639 193.426H578.759V204.186H575.639V193.426ZM577.199 191.926C576.626 191.926 576.159 191.759 575.799 191.426C575.439 191.092 575.259 190.679 575.259 190.186C575.259 189.692 575.439 189.279 575.799 188.946C576.159 188.612 576.626 188.446 577.199 188.446C577.773 188.446 578.239 188.606 578.599 188.926C578.959 189.246 579.139 189.646 579.139 190.126C579.139 190.646 578.959 191.079 578.599 191.426C578.239 191.759 577.773 191.926 577.199 191.926ZM588.195 193.266C589.528 193.266 590.602 193.666 591.415 194.466C592.242 195.266 592.655 196.452 592.655 198.026V204.186H589.535V198.506C589.535 197.652 589.348 197.019 588.975 196.606C588.602 196.179 588.062 195.966 587.355 195.966C586.568 195.966 585.942 196.212 585.475 196.706C585.008 197.186 584.775 197.906 584.775 198.866V204.186H581.655V193.426H584.635V194.686C585.048 194.232 585.562 193.886 586.175 193.646C586.788 193.392 587.462 193.266 588.195 193.266ZM606.7 193.426V202.386C606.7 204.359 606.187 205.826 605.16 206.786C604.133 207.746 602.633 208.226 600.66 208.226C599.62 208.226 598.633 208.099 597.7 207.846C596.767 207.592 595.993 207.226 595.38 206.746L596.62 204.506C597.073 204.879 597.647 205.172 598.34 205.386C599.033 205.612 599.727 205.726 600.42 205.726C601.5 205.726 602.293 205.479 602.8 204.986C603.32 204.506 603.58 203.772 603.58 202.786V202.326C602.767 203.219 601.633 203.666 600.18 203.666C599.193 203.666 598.287 203.452 597.46 203.026C596.647 202.586 596 201.972 595.52 201.186C595.04 200.399 594.8 199.492 594.8 198.466C594.8 197.439 595.04 196.532 595.52 195.746C596 194.959 596.647 194.352 597.46 193.926C598.287 193.486 599.193 193.266 600.18 193.266C601.74 193.266 602.927 193.779 603.74 194.806V193.426H606.7ZM600.8 201.106C601.627 201.106 602.3 200.866 602.82 200.386C603.353 199.892 603.62 199.252 603.62 198.466C603.62 197.679 603.353 197.046 602.82 196.566C602.3 196.072 601.627 195.826 600.8 195.826C599.973 195.826 599.293 196.072 598.76 196.566C598.227 197.046 597.96 197.679 597.96 198.466C597.96 199.252 598.227 199.892 598.76 200.386C599.293 200.866 599.973 201.106 600.8 201.106Z" fill="#FFFAFF"/>
<path d="M583.193 162.561C592.183 156.566 592.86 105.324 592.076 80.4521C591.884 71.7554 543.243 64.9695 533.679 70.2508C526.717 74.0959 523.307 120.578 522.204 149.505C522.026 154.187 525.165 158.332 529.74 159.34C547.863 163.331 575.434 167.736 583.193 162.561Z" fill="#FF7D49"/>
<path d="M573.749 164.617C576.267 163.543 575.777 158.732 575.248 156.684C573.493 157.38 567.741 158.626 563.621 158.284C563.236 159.792 564.537 162.249 565.448 163.487C567.572 165.468 570.601 165.96 573.749 164.617Z" stroke="#050401" stroke-width="2"/>
<path d="M531.492 161.307C534.074 160.816 534.825 156.995 534.638 155.326C533.499 155.291 528.222 153.744 525.02 153.527C524.415 154.649 523.78 158.138 524.226 159.102C525.261 160.203 528.265 161.921 531.492 161.307Z" stroke="#050401" stroke-width="2"/>
<path d="M577.671 157.276C586.547 151.344 587.199 100.617 586.415 75.9946C586.223 67.3852 538.185 60.651 528.743 65.8761C521.874 69.677 518.523 115.618 517.44 144.259C517.264 148.936 520.398 153.078 524.967 154.088C542.867 158.04 570.023 162.388 577.671 157.276Z" stroke="#050401" stroke-width="2"/>
<path d="M566.398 54.0735C572.62 54.7715 572.87 63.0274 572.243 67.2586L565.996 65.787C566.577 64.1526 566.055 62.6187 565.418 61.5917C563.864 59.0856 552.766 57.5045 548.573 59.2473C543.967 61.1613 544.642 62.8973 544.351 63.7145L538.314 63.7683C538.079 59.1374 538.812 51.5754 542.777 52.2732C547.733 53.1454 558.621 53.201 566.398 54.0735Z" stroke="#050401" stroke-width="2"/>
<path d="M568.655 78.8564C568.522 90.4613 567.534 114.086 564.648 115.747" stroke="#050401" stroke-width="2"/>
<path d="M544.197 77.1758C543.308 88.6491 541.951 112.399 543.641 115.611" stroke="#050401" stroke-width="2"/>
<path d="M574.791 123.435L527.993 120.792" stroke="#050401" stroke-width="2"/>
<path d="M568.265 127.363L526.285 123.047" stroke="#050401" stroke-width="2"/>
</g>
<defs>
<filter id="filter0_d" x="3.40063" y="22.6641" width="267.37" height="234.176" filterUnits="userSpaceOnUse" color-interpolation-filters="sRGB">
<feFlood flood-opacity="0" result="BackgroundImageFix"/>
<feColorMatrix in="SourceAlpha" type="matrix" values="0 0 0 0 0 0 0 0 0 0 0 0 0 0 0 0 0 0 127 0"/>
<feOffset/>
<feGaussianBlur stdDeviation="20"/>
<feColorMatrix type="matrix" values="0 0 0 0 0.0196078 0 0 0 0 0.0156863 0 0 0 0 0.00392157 0 0 0 0.05 0"/>
<feBlend mode="normal" in2="BackgroundImageFix" result="effect1_dropShadow"/>
<feBlend mode="normal" in="SourceGraphic" in2="effect1_dropShadow" result="shape"/>
</filter>
<filter id="filter1_d" x="233.904" y="21.0508" width="244.583" height="220.705" filterUnits="userSpaceOnUse" color-interpolation-filters="sRGB">
<feFlood flood-opacity="0" result="BackgroundImageFix"/>
<feColorMatrix in="SourceAlpha" type="matrix" values="0 0 0 0 0 0 0 0 0 0 0 0 0 0 0 0 0 0 127 0"/>
<feOffset/>
<feGaussianBlur stdDeviation="20"/>
<feColorMatrix type="matrix" values="0 0 0 0 0.0196078 0 0 0 0 0.0156863 0 0 0 0 0.00392157 0 0 0 0.05 0"/>
<feBlend mode="normal" in2="BackgroundImageFix" result="effect1_dropShadow"/>
<feBlend mode="normal" in="SourceGraphic" in2="effect1_dropShadow" result="shape"/>
</filter>
<filter id="filter2_d" x="635.123" y="9.48633" width="265.393" height="241.066" filterUnits="userSpaceOnUse" color-interpolation-filters="sRGB">
<feFlood flood-opacity="0" result="BackgroundImageFix"/>
<feColorMatrix in="SourceAlpha" type="matrix" values="0 0 0 0 0 0 0 0 0 0 0 0 0 0 0 0 0 0 127 0"/>
<feOffset/>
<feGaussianBlur stdDeviation="20"/>
<feColorMatrix type="matrix" values="0 0 0 0 0.0196078 0 0 0 0 0.0156863 0 0 0 0 0.00392157 0 0 0 0.05 0"/>
<feBlend mode="normal" in2="BackgroundImageFix" result="effect1_dropShadow"/>
<feBlend mode="normal" in="SourceGraphic" in2="effect1_dropShadow" result="shape"/>
</filter>
<filter id="filter3_d" x="430.184" y="34.5889" width="251.46" height="236.238" filterUnits="userSpaceOnUse" color-interpolation-filters="sRGB">
<feFlood flood-opacity="0" result="BackgroundImageFix"/>
<feColorMatrix in="SourceAlpha" type="matrix" values="0 0 0 0 0 0 0 0 0 0 0 0 0 0 0 0 0 0 127 0"/>
<feOffset/>
<feGaussianBlur stdDeviation="20"/>
<feColorMatrix type="matrix" values="0 0 0 0 0.0196078 0 0 0 0 0.0156863 0 0 0 0 0.00392157 0 0 0 0.05 0"/>
<feBlend mode="normal" in2="BackgroundImageFix" result="effect1_dropShadow"/>
<feBlend mode="normal" in="SourceGraphic" in2="effect1_dropShadow" result="shape"/>
</filter>
<clipPath id="clip0">
<rect width="894" height="270" fill="white"/>
</clipPath>
</defs>
</svg>
