<svg width="28" height="28" viewBox="0 0 28 28" fill="none" xmlns="http://www.w3.org/2000/svg">
<path d="M0.873794 25.7913H4.37194C4.85454 25.7913 5.24573 25.4001 5.24573 24.9175V9.62721C5.24573 9.14455 4.85454 8.75342 4.37194 8.75342H0.873794C0.391138 8.75342 0 9.14455 0 9.62721V24.9175C0 25.4 0.391138 25.7913 0.873794 25.7913Z" fill="#2168BF"/>
<path d="M0.873794 6.06538H4.37194C4.85454 6.06538 5.24573 5.67419 5.24573 5.19159V2.08522C5.24573 1.60261 4.85454 1.21143 4.37194 1.21143H0.873794C0.391138 1.21143 0 1.60261 0 2.08522V5.19159C0 5.67419 0.391138 6.06538 0.873794 6.06538Z" fill="#2168BF"/>
<path d="M25.5923 10.527C25.1007 9.87995 24.3759 9.34784 23.4175 8.93075C22.4591 8.51396 21.4012 8.30542 20.2437 8.30542C17.8941 8.30542 15.9031 9.20214 14.2708 10.9959C13.946 11.3528 13.7099 11.2748 13.7099 10.7922V9.6273C13.7099 9.14465 13.3186 8.75351 12.836 8.75351H9.71121C9.22856 8.75351 8.83742 9.14465 8.83742 9.6273V24.9176C8.83742 25.4002 9.2286 25.7914 9.71121 25.7914H13.2094C13.692 25.7914 14.0831 25.4002 14.0831 24.9176V19.6C14.0831 17.3847 14.2169 15.8663 14.4845 15.0449C14.7519 14.2235 15.2468 13.564 15.9686 13.0662C16.6905 12.5683 17.5056 12.3193 18.4142 12.3193C19.1236 12.3193 19.7304 12.4935 20.2345 12.8421C20.7386 13.1907 21.1027 13.6789 21.3267 14.3076C21.5508 14.9361 21.6628 16.3207 21.6628 18.4614V24.9176C21.6628 25.4002 22.0539 25.7914 22.5365 25.7914H26.0347C26.5173 25.7914 26.9084 25.4002 26.9084 24.9176V16.2584C26.9084 14.7277 26.8119 13.5515 26.6192 12.7301C26.4265 11.9088 26.0841 11.1744 25.5923 10.527Z" fill="#2168BF"/>
</svg>
