<svg width="27" height="27" viewBox="0 0 27 27" fill="none" xmlns="http://www.w3.org/2000/svg">
<path d="M0.876766 25.8317H4.38681C4.87106 25.8317 5.26358 25.4392 5.26358 24.9549V9.6126C5.26358 9.12831 4.87106 8.73584 4.38681 8.73584H0.876766C0.392469 8.73584 0 9.12831 0 9.6126V24.9549C0 25.4391 0.392469 25.8317 0.876766 25.8317Z" fill="#2168BF"/>
<path d="M0.876766 6.03868H4.38681C4.87106 6.03868 5.26358 5.64617 5.26358 5.16192V2.04498C5.26358 1.56073 4.87106 1.16821 4.38681 1.16821H0.876766C0.392469 1.16821 0 1.56073 0 2.04498V5.16192C0 5.64617 0.392469 6.03868 0.876766 6.03868Z" fill="#2168BF"/>
<path d="M25.6793 10.5155C25.1861 9.86627 24.4588 9.33234 23.4971 8.91384C22.5355 8.49563 21.474 8.28638 20.3126 8.28638C17.9549 8.28638 15.9572 9.18615 14.3194 10.986C13.9935 11.3442 13.7565 11.2659 13.7565 10.7816V9.61276C13.7565 9.12846 13.364 8.73599 12.8797 8.73599H9.74425C9.25995 8.73599 8.86748 9.12846 8.86748 9.61276V24.9551C8.86748 25.4393 9.26 25.8319 9.74425 25.8319H13.2543C13.7386 25.8319 14.1311 25.4393 14.1311 24.9551V19.6194C14.1311 17.3966 14.2653 15.873 14.5337 15.0488C14.8021 14.2246 15.2986 13.5628 16.0229 13.0633C16.7473 12.5638 17.5652 12.3139 18.4769 12.3139C19.1887 12.3139 19.7975 12.4887 20.3034 12.8385C20.8091 13.1883 21.1745 13.6782 21.3992 14.309C21.6241 14.9396 21.7365 16.3289 21.7365 18.4769V24.955C21.7365 25.4393 22.1289 25.8319 22.6132 25.8319H26.1232C26.6075 25.8319 26.9999 25.4393 26.9999 24.955V16.2664C26.9999 14.7305 26.9031 13.5503 26.7098 12.7261C26.5164 11.902 26.1729 11.1651 25.6793 10.5155Z" fill="#2168BF"/>
</svg>
