<svg width="255" height="39" viewBox="0 0 255 39" fill="none" xmlns="http://www.w3.org/2000/svg">
<path opacity="0.9" d="M68.72 26L70.768 13.936H73.872L76.288 20.368L78.688 13.936H81.792L83.84 26H80.72L79.68 19.056L76.832 26H75.584L72.88 19.056L71.84 26H68.72ZM88.9625 13.936V26H85.8265V13.936H88.9625ZM94.6188 13.936V23.344H98.3788V26H91.4828V13.936H94.6188ZM107.058 21.52L105.65 17.504L104.242 21.52H107.058ZM107.89 23.904H103.41L102.69 26H99.3464L103.938 13.936H107.362L111.954 26H108.61L107.89 23.904ZM113.327 26V13.936H116.463L122.255 21.312V13.936H125.375V26H122.255L116.463 18.624V26H113.327ZM132.798 26L134.846 13.936H137.95L140.366 20.368L142.766 13.936H145.87L147.918 26H144.798L143.758 19.056L140.91 26H139.662L136.958 19.056L135.918 26H132.798ZM156.465 21.52L155.057 17.504L153.649 21.52H156.465ZM157.297 23.904H152.817L152.097 26H148.753L153.345 13.936H156.769L161.361 26H158.017L157.297 23.904ZM165.869 18.592H170.397V13.936H173.533V26H170.397V21.024H165.869V26H162.733V13.936H165.869V18.592ZM182.925 16.592H179.197V18.608H182.717V21.264H179.197V23.344H182.925V26H176.061V13.936H182.925V16.592ZM191.81 17.024C191.469 16.7467 191.127 16.544 190.786 16.416C190.445 16.2773 190.114 16.208 189.794 16.208C189.389 16.208 189.058 16.304 188.802 16.496C188.546 16.688 188.418 16.9387 188.418 17.248C188.418 17.4613 188.482 17.6373 188.61 17.776C188.738 17.9147 188.903 18.0373 189.106 18.144C189.319 18.24 189.554 18.3253 189.81 18.4C190.077 18.4747 190.338 18.5547 190.594 18.64C191.618 18.9813 192.365 19.44 192.834 20.016C193.314 20.5813 193.554 21.3227 193.554 22.24C193.554 22.8587 193.447 23.4187 193.234 23.92C193.031 24.4213 192.727 24.8533 192.322 25.216C191.927 25.568 191.437 25.84 190.85 26.032C190.274 26.2347 189.618 26.336 188.882 26.336C187.357 26.336 185.943 25.8827 184.642 24.976L185.986 22.448C186.455 22.864 186.919 23.1733 187.378 23.376C187.837 23.5787 188.29 23.68 188.738 23.68C189.25 23.68 189.629 23.5627 189.874 23.328C190.13 23.0933 190.258 22.8267 190.258 22.528C190.258 22.3467 190.226 22.192 190.162 22.064C190.098 21.9253 189.991 21.8027 189.842 21.696C189.693 21.5787 189.495 21.472 189.25 21.376C189.015 21.28 188.727 21.1733 188.386 21.056C187.981 20.928 187.581 20.7893 187.186 20.64C186.802 20.48 186.455 20.272 186.146 20.016C185.847 19.76 185.602 19.44 185.41 19.056C185.229 18.6613 185.138 18.1653 185.138 17.568C185.138 16.9707 185.234 16.432 185.426 15.952C185.629 15.4613 185.906 15.0453 186.258 14.704C186.621 14.352 187.058 14.08 187.57 13.888C188.093 13.696 188.674 13.6 189.314 13.6C189.911 13.6 190.535 13.6853 191.186 13.856C191.837 14.016 192.461 14.256 193.058 14.576L191.81 17.024ZM198.666 18.592H203.194V13.936H206.33V26H203.194V21.024H198.666V26H195.53V13.936H198.666V18.592ZM210.874 13.936L212.954 21.728L215.514 13.936H218.01L220.57 21.728L222.65 13.936H225.93L222.33 26H219.13L216.762 19.008L214.394 26H211.194L207.594 13.936H210.874ZM233.121 21.52L231.713 17.504L230.305 21.52H233.121ZM233.953 23.904H229.473L228.753 26H225.409L230.001 13.936H233.425L238.017 26H234.673L233.953 23.904ZM242.525 19.328H243.117C243.736 19.328 244.21 19.2 244.541 18.944C244.872 18.688 245.037 18.32 245.037 17.84C245.037 17.36 244.872 16.992 244.541 16.736C244.21 16.48 243.736 16.352 243.117 16.352H242.525V19.328ZM249.421 26H245.517L242.525 21.36V26H239.389V13.936H244.269C244.941 13.936 245.528 14.0373 246.029 14.24C246.53 14.432 246.941 14.6987 247.261 15.04C247.592 15.3813 247.837 15.776 247.997 16.224C248.168 16.672 248.253 17.152 248.253 17.664C248.253 18.5813 248.029 19.328 247.581 19.904C247.144 20.4693 246.493 20.8533 245.629 21.056L249.421 26ZM253.869 13.936V26H250.733V13.936H253.869Z" fill="#FFFAFF"/>
<path d="M1.20271 20.3329L18.7162 37.8464C19.1732 38.3034 19.9251 38.3034 20.3821 37.8464L37.8956 20.3329C38.3526 19.8759 38.3526 19.1241 37.8956 18.6671L20.3821 1.15354C19.9251 0.69654 19.1732 0.69654 18.7162 1.15354L1.20271 18.6671C0.745704 19.1241 0.745704 19.8759 1.20271 20.3329Z" stroke="#FF7D49" stroke-width="1.5" stroke-miterlimit="10"/>
<path d="M19.7924 20.3329L38.1167 38.6572C38.5737 39.1142 39.3256 39.1142 39.7826 38.6572L58.1069 20.3329C58.5639 19.8759 58.5639 19.1241 58.1069 18.6671L39.7678 0.342752C39.3108 -0.114251 38.559 -0.114251 38.102 0.342752L19.7924 18.6671C19.3207 19.1241 19.3207 19.8759 19.7924 20.3329Z" fill="#FF7D49"/>
</svg>
