<svg width="28" height="22" viewBox="0 0 28 22" fill="none" xmlns="http://www.w3.org/2000/svg">
<path d="M3.32026 4.48795C3.35505 4.14777 3.22398 3.81155 2.96732 3.5826L0.352941 0.465608V0H8.47059L14.7451 13.619L20.2614 0H28V0.465608L25.7647 2.58671C25.572 2.73209 25.4764 2.97103 25.5163 3.20753V18.7925C25.4764 19.029 25.572 19.2679 25.7647 19.4133L27.9477 21.5344V22H16.9673V21.5344L19.2288 19.3616C19.451 19.1417 19.451 19.077 19.451 18.7407V6.14345L13.1634 21.9483H12.3137L4.99346 6.14345V16.736C4.93243 17.1814 5.08188 17.6297 5.39869 17.9518L8.33987 21.4827V21.9483H0V21.4827L2.94118 17.9518C3.25569 17.6292 3.39642 17.1779 3.32026 16.736V4.48795Z" fill="#FFFFFF"/>
</svg>
