<svg width="40" height="78" viewBox="0 0 40 78" fill="none" xmlns="http://www.w3.org/2000/svg">
<g opacity="0.5">
<path d="M4.83674 74.1121C4.09941 74.1121 3.38541 74.0001 2.69474 73.7761C2.01341 73.5427 1.47674 73.2441 1.08474 72.8801L1.60274 71.7881C1.97608 72.1241 2.45208 72.3994 3.03074 72.6141C3.61874 72.8194 4.22074 72.9221 4.83674 72.9221C5.64874 72.9221 6.25541 72.7867 6.65674 72.5161C7.05808 72.2361 7.25874 71.8674 7.25874 71.4101C7.25874 71.0741 7.14674 70.8034 6.92274 70.5981C6.70808 70.3834 6.43741 70.2201 6.11074 70.1081C5.79341 69.9961 5.34074 69.8701 4.75274 69.7301C4.01541 69.5527 3.41808 69.3754 2.96074 69.1981C2.51274 69.0207 2.12541 68.7501 1.79874 68.3861C1.48141 68.0127 1.32274 67.5134 1.32274 66.8881C1.32274 66.3654 1.45808 65.8941 1.72874 65.4741C2.00874 65.0541 2.42874 64.7181 2.98874 64.4661C3.54874 64.2141 4.24408 64.0881 5.07474 64.0881C5.65341 64.0881 6.22274 64.1627 6.78274 64.3121C7.34274 64.4614 7.82341 64.6761 8.22474 64.9561L7.76274 66.0761C7.35208 65.8147 6.91341 65.6187 6.44674 65.4881C5.98008 65.3481 5.52274 65.2781 5.07474 65.2781C4.28141 65.2781 3.68408 65.4227 3.28274 65.7121C2.89074 66.0014 2.69474 66.3747 2.69474 66.8321C2.69474 67.1681 2.80674 67.4434 3.03074 67.6581C3.25474 67.8634 3.53008 68.0267 3.85674 68.1481C4.19274 68.2601 4.64541 68.3814 5.21474 68.5121C5.95208 68.6894 6.54474 68.8667 6.99274 69.0441C7.44074 69.2214 7.82341 69.4921 8.14074 69.8561C8.46741 70.2201 8.63074 70.7101 8.63074 71.3261C8.63074 71.8394 8.49074 72.3107 8.21074 72.7401C7.93074 73.1601 7.50608 73.4961 6.93674 73.7481C6.36741 73.9907 5.66741 74.1121 4.83674 74.1121ZM13.7141 74.0841C12.9581 74.0841 12.2814 73.9207 11.6841 73.5941C11.0961 73.2674 10.6341 72.8194 10.2981 72.2501C9.96205 71.6714 9.79405 71.0181 9.79405 70.2901C9.79405 69.5621 9.96205 68.9134 10.2981 68.3441C10.6341 67.7654 11.0961 67.3174 11.6841 67.0001C12.2814 66.6734 12.9581 66.5101 13.7141 66.5101C14.3861 66.5101 14.9834 66.6454 15.5061 66.9161C16.0381 67.1867 16.4487 67.5787 16.7381 68.0921L15.7161 68.7501C15.4827 68.3954 15.1934 68.1294 14.8481 67.9521C14.5027 67.7747 14.1201 67.6861 13.7001 67.6861C13.2147 67.6861 12.7761 67.7934 12.3841 68.0081C12.0014 68.2227 11.6981 68.5307 11.4741 68.9321C11.2594 69.3241 11.1521 69.7767 11.1521 70.2901C11.1521 70.8127 11.2594 71.2747 11.4741 71.6761C11.6981 72.0681 12.0014 72.3714 12.3841 72.5861C12.7761 72.8007 13.2147 72.9081 13.7001 72.9081C14.1201 72.9081 14.5027 72.8194 14.8481 72.6421C15.1934 72.4647 15.4827 72.1987 15.7161 71.8441L16.7381 72.4881C16.4487 73.0014 16.0381 73.3981 15.5061 73.6781C14.9834 73.9487 14.3861 74.0841 13.7141 74.0841ZM19.7661 67.8261C19.9994 67.3967 20.3448 67.0701 20.8021 66.8461C21.2594 66.6221 21.8148 66.5101 22.4681 66.5101V67.8121C22.3934 67.8027 22.2908 67.7981 22.1601 67.7981C21.4321 67.7981 20.8581 68.0174 20.4381 68.4561C20.0274 68.8854 19.8221 69.5014 19.8221 70.3041V74.0001H18.4781V66.5801H19.7661V67.8261ZM27.2342 74.0841C26.4969 74.0841 25.8342 73.9207 25.2462 73.5941C24.6582 73.2674 24.1962 72.8194 23.8602 72.2501C23.5336 71.6714 23.3702 71.0181 23.3702 70.2901C23.3702 69.5621 23.5336 68.9134 23.8602 68.3441C24.1962 67.7654 24.6582 67.3174 25.2462 67.0001C25.8342 66.6734 26.4969 66.5101 27.2342 66.5101C27.9716 66.5101 28.6296 66.6734 29.2082 67.0001C29.7962 67.3174 30.2536 67.7654 30.5802 68.3441C30.9162 68.9134 31.0842 69.5621 31.0842 70.2901C31.0842 71.0181 30.9162 71.6714 30.5802 72.2501C30.2536 72.8194 29.7962 73.2674 29.2082 73.5941C28.6296 73.9207 27.9716 74.0841 27.2342 74.0841ZM27.2342 72.9081C27.7102 72.9081 28.1349 72.8007 28.5082 72.5861C28.8909 72.3621 29.1896 72.0541 29.4042 71.6621C29.6189 71.2607 29.7262 70.8034 29.7262 70.2901C29.7262 69.7767 29.6189 69.3241 29.4042 68.9321C29.1896 68.5307 28.8909 68.2227 28.5082 68.0081C28.1349 67.7934 27.7102 67.6861 27.2342 67.6861C26.7582 67.6861 26.3289 67.7934 25.9462 68.0081C25.5729 68.2227 25.2742 68.5307 25.0502 68.9321C24.8356 69.3241 24.7282 69.7767 24.7282 70.2901C24.7282 70.8034 24.8356 71.2607 25.0502 71.6621C25.2742 72.0541 25.5729 72.3621 25.9462 72.5861C26.3289 72.8007 26.7582 72.9081 27.2342 72.9081ZM32.9429 63.6121H34.2869V74.0001H32.9429V63.6121ZM36.8531 63.6121H38.1971V74.0001H36.8531V63.6121Z" fill="#FFFAFF"/>
<path d="M20 6.10352e-05L20 40.0001" stroke="#FFFAFF"/>
</g>
</svg>
