<svg width="29" height="24" viewBox="0 0 29 24" fill="none" xmlns="http://www.w3.org/2000/svg">
<path d="M9.04723 23.3798C19.9036 23.3798 25.8404 14.3857 25.8404 6.58663C25.8404 6.33115 25.8351 6.07677 25.8237 5.82371C26.976 4.99056 27.9777 3.95088 28.7678 2.76744C27.7104 3.23757 26.5721 3.55384 25.3784 3.69672C26.5969 2.96585 27.5326 1.81006 27.9737 0.432158C26.8333 1.10816 25.5704 1.59936 24.2259 1.86471C23.1489 0.717484 21.6154 0 19.9175 0C16.6582 0 14.015 2.64321 14.015 5.90141C14.015 6.36473 14.0668 6.81511 14.1679 7.24726C9.26254 7.00035 4.91264 4.6519 2.00189 1.08051C1.4951 1.95272 1.20276 2.96607 1.20276 4.04723C1.20276 6.09477 2.24485 7.90263 3.82929 8.96009C2.86094 8.93025 1.95141 8.66445 1.15623 8.22198C1.15535 8.24678 1.15535 8.27092 1.15535 8.29726C1.15535 11.1558 3.18972 13.5424 5.89065 14.0832C5.39462 14.2182 4.8727 14.2909 4.33431 14.2909C3.95461 14.2909 3.58456 14.2535 3.22484 14.1844C3.97634 16.5296 6.15535 18.236 8.73864 18.2839C6.71853 19.8672 4.17365 20.8103 1.40797 20.8103C0.932136 20.8103 0.462008 20.7831 0 20.7287C2.61204 22.4029 5.71397 23.38 9.04745 23.38" fill="#1DA1F2"/>
</svg>
