<svg width="32" height="27" viewBox="0 0 32 27" fill="none" xmlns="http://www.w3.org/2000/svg">
<path d="M10.0637 26.0066C22.1399 26.0066 28.7437 16.002 28.7437 7.32666C28.7437 7.04248 28.7378 6.75952 28.7251 6.47803C30.0068 5.55127 31.1211 4.39478 32 3.07837C30.8237 3.60132 29.5576 3.95312 28.2297 4.11206C29.5852 3.29907 30.626 2.01343 31.1167 0.480713C29.8481 1.23267 28.4434 1.77905 26.9478 2.07422C25.7498 0.798096 24.0439 0 22.1553 0C18.5298 0 15.5896 2.94019 15.5896 6.56445C15.5896 7.07983 15.6472 7.58081 15.7598 8.06152C10.3032 7.78687 5.4646 5.17456 2.22681 1.2019C1.66309 2.17212 1.33789 3.29932 1.33789 4.50195C1.33789 6.77954 2.49707 8.79053 4.25952 9.9668C3.18237 9.93359 2.17065 9.63794 1.28613 9.14575C1.28516 9.17334 1.28516 9.2002 1.28516 9.22949C1.28516 12.4092 3.5481 15.064 6.55249 15.6655C6.00073 15.8157 5.42017 15.8965 4.82129 15.8965C4.39893 15.8965 3.9873 15.855 3.58716 15.7781C4.4231 18.3867 6.84692 20.2849 9.72046 20.3381C7.47339 22.0994 4.64258 23.1484 1.56616 23.1484C1.03687 23.1484 0.513916 23.1182 0 23.0576C2.90552 24.9199 6.35596 26.0068 10.064 26.0068" fill="#1DA1F2"/>
</svg>
